<svg id="Behance_logo" xmlns="http://www.w3.org/2000/svg" width="215.56" height="40.005" viewBox="0 0 215.56 40.005">
  <path id="Path_537" data-name="Path 537" d="M18.526,0a19.561,19.561,0,0,1,5.086.559,11.218,11.218,0,0,1,3.967,1.555A6.54,6.54,0,0,1,30.13,5.086a11.364,11.364,0,0,1,.856,4.527,7.862,7.862,0,0,1-1.416,4.946A10.091,10.091,0,0,1,25.6,17.809a9.336,9.336,0,0,1,5.365,3.67,11.675,11.675,0,0,1,.7,11.308,9.219,9.219,0,0,1-3.111,3.53,14.4,14.4,0,0,1-4.527,1.975,21.217,21.217,0,0,1-5.086.7L0,39.026V0ZM17.39,15.834A6.322,6.322,0,0,0,21.2,14.7a4.156,4.156,0,0,0,1.416-3.53A5.353,5.353,0,0,0,22.2,8.913,3.905,3.905,0,0,0,20.92,7.5a7.151,7.151,0,0,0-1.835-.7,11.483,11.483,0,0,0-2.255-.14h-8.2v9.193C8.634,15.834,17.39,15.834,17.39,15.834Zm.419,16.691a12.689,12.689,0,0,0,2.412-.28,4.767,4.767,0,0,0,1.975-.856,5.315,5.315,0,0,0,1.416-1.555,6.788,6.788,0,0,0,.559-2.552,5.454,5.454,0,0,0-1.7-4.387,7.427,7.427,0,0,0-4.527-1.276H8.634V32.507h9.175Z" fill="#ccc"/>
  <path id="Path_538" data-name="Path 538" d="M213.29,45.094a6.9,6.9,0,0,0,5.086,1.7,7.683,7.683,0,0,0,4.107-1.136A5.6,5.6,0,0,0,224.6,43.1h6.921a13.881,13.881,0,0,1-5.086,7.358,15.054,15.054,0,0,1-8.2,2.255,16.458,16.458,0,0,1-6.082-1.136,11.252,11.252,0,0,1-4.527-3.111A11.349,11.349,0,0,1,204.8,43.8a16.766,16.766,0,0,1-1-6.082,16.207,16.207,0,0,1,1-5.942,15.415,15.415,0,0,1,2.971-4.806,14.24,14.24,0,0,1,4.527-3.111,15.994,15.994,0,0,1,5.942-1.136,13.084,13.084,0,0,1,6.362,1.416,11.6,11.6,0,0,1,4.387,3.81,17.3,17.3,0,0,1,2.552,5.365,30.012,30.012,0,0,1,.28,6.222h-20.5A8.141,8.141,0,0,0,213.29,45.094ZM222.2,30.238a6.121,6.121,0,0,0-4.387-1.555,6.819,6.819,0,0,0-3.111.7,7.215,7.215,0,0,0-1.975,1.555,3.808,3.808,0,0,0-1,1.975,9.785,9.785,0,0,0-.28,1.835h12.723A7.581,7.581,0,0,0,222.2,30.238ZM209.76,15.4h15.834v3.81H209.76Z" transform="translate(-168.182 -12.709)" fill="#ccc"/>
  <path id="Path_539" data-name="Path 539" d="M390.477,0V14.7h.14a8.293,8.293,0,0,1,3.81-3.53,10.827,10.827,0,0,1,4.527-1.136,12.517,12.517,0,0,1,5.086.856A7.514,7.514,0,0,1,407.15,13.3a9.718,9.718,0,0,1,1.555,3.67,24.594,24.594,0,0,1,.419,4.806v17.39h-7.777V23.192a9.732,9.732,0,0,0-1.136-5.226,4.144,4.144,0,0,0-3.793-1.713,5.439,5.439,0,0,0-4.527,1.835c-1,1.276-1.416,3.391-1.416,6.222V39.166H382.7V0Z" transform="translate(-315.815)" fill="#ccc"/>
  <path id="Path_540" data-name="Path 540" d="M556.662,62.446a10.512,10.512,0,0,1,3.111-2.971,14,14,0,0,1,4.247-1.555,26.326,26.326,0,0,1,4.666-.419c1.416,0,2.831.14,4.387.28a11.506,11.506,0,0,1,3.967,1.136,8.2,8.2,0,0,1,2.971,2.412,7.149,7.149,0,0,1,1.136,4.107V80.29a29.835,29.835,0,0,0,.28,3.67,5.827,5.827,0,0,0,1,2.691h-7.917a3.541,3.541,0,0,1-.559-1.276,4.875,4.875,0,0,1-.14-1.416,10.984,10.984,0,0,1-4.387,2.691,15.957,15.957,0,0,1-5.086.7,11.368,11.368,0,0,1-3.81-.559,9.293,9.293,0,0,1-3.111-1.555,7.841,7.841,0,0,1-2.115-2.691,10.294,10.294,0,0,1-.7-3.81,8.134,8.134,0,0,1,.856-3.967,9.373,9.373,0,0,1,2.115-2.552,10.573,10.573,0,0,1,3.111-1.416,26.29,26.29,0,0,1,3.53-.7l3.391-.419c1.136-.14,2.115-.28,2.971-.419a6.794,6.794,0,0,0,2.115-1,2.03,2.03,0,0,0,.7-1.835,3.731,3.731,0,0,0-.419-1.975,4.134,4.134,0,0,0-1.136-1.136,5.117,5.117,0,0,0-1.555-.559,8.756,8.756,0,0,0-1.975-.14,5.19,5.19,0,0,0-3.53,1,4.689,4.689,0,0,0-1.555,3.251h-7.777A7.859,7.859,0,0,1,556.662,62.446Zm15.415,11.028c-.419.14-1,.28-1.555.419s-1.136.14-1.835.28c-.559.14-1.276.14-1.835.28s-1.136.28-1.7.419a3.355,3.355,0,0,0-1.416.7,3.922,3.922,0,0,0-1,1.136,2.766,2.766,0,0,0-.419,1.835,3.043,3.043,0,0,0,.419,1.7,3.654,3.654,0,0,0,1,1.136,5.118,5.118,0,0,0,1.555.559,7.533,7.533,0,0,0,1.835.14,7.816,7.816,0,0,0,3.53-.7,5.561,5.561,0,0,0,1.835-1.835,4.219,4.219,0,0,0,.7-2.115,8.175,8.175,0,0,0,.14-1.7V72.757A5.771,5.771,0,0,1,572.077,73.474Z" transform="translate(-457.672 -47.451)" fill="#ccc"/>
  <path id="Path_541" data-name="Path 541" d="M737.272,58.2v3.967h.14a8.292,8.292,0,0,1,3.81-3.53,12.07,12.07,0,0,1,4.806-1.136,12.516,12.516,0,0,1,5.086.856,6.712,6.712,0,0,1,3.111,2.412,12.729,12.729,0,0,1,1.7,3.67,24.6,24.6,0,0,1,.419,4.806v17.39h-7.777V70.66a9.732,9.732,0,0,0-1.136-5.226,4.292,4.292,0,0,0-3.967-1.835,5.717,5.717,0,0,0-4.666,2.115c-1,1.276-1.416,3.391-1.416,6.222V86.792H729.6V58.2Z" transform="translate(-602.087 -47.451)" fill="#ccc"/>
  <path id="Path_542" data-name="Path 542" d="M914.136,63.2a5.308,5.308,0,0,0-3.111.856,6.413,6.413,0,0,0-2.115,2.255,9.392,9.392,0,0,0-1.136,2.971,12.787,12.787,0,0,0-.28,3.251,23.386,23.386,0,0,0,.28,3.111,8.224,8.224,0,0,0,1.136,2.831,6.93,6.93,0,0,0,1.975,2.115,5.439,5.439,0,0,0,3.111.856,6.362,6.362,0,0,0,4.387-1.555,6.558,6.558,0,0,0,1.835-4.247h7.5c-.559,3.81-1.975,6.641-4.387,8.634A14.258,14.258,0,0,1,914,87.251a15,15,0,0,1-5.8-1.136,12.528,12.528,0,0,1-4.526-2.971,14.136,14.136,0,0,1-2.971-4.527,15.757,15.757,0,0,1-1-5.8,16.463,16.463,0,0,1,1-6.082,15.4,15.4,0,0,1,2.831-4.946,14.65,14.65,0,0,1,4.526-3.251,16.751,16.751,0,0,1,6.082-1.136,18.146,18.146,0,0,1,4.806.7,12.46,12.46,0,0,1,4.107,1.975,8.732,8.732,0,0,1,2.971,3.391,12.136,12.136,0,0,1,1.276,4.806h-7.637Q919.213,63.211,914.136,63.2Z" transform="translate(-742.459 -47.368)" fill="#ccc"/>
  <path id="Path_543" data-name="Path 543" d="M1081.63,79.671a7.125,7.125,0,0,0,5.086,1.7,7.683,7.683,0,0,0,4.107-1.136,5.6,5.6,0,0,0,2.115-2.552h6.781a13.88,13.88,0,0,1-5.086,7.358,15.054,15.054,0,0,1-8.2,2.255,16.459,16.459,0,0,1-6.082-1.136A13.033,13.033,0,0,1,1073,78.377a16.766,16.766,0,0,1-1-6.082,16.209,16.209,0,0,1,1-5.942,15.1,15.1,0,0,1,2.971-4.806,14.24,14.24,0,0,1,4.526-3.111,16.566,16.566,0,0,1,5.942-1.136,12.182,12.182,0,0,1,6.222,1.416,11.6,11.6,0,0,1,4.387,3.81,17.3,17.3,0,0,1,2.552,5.365,18.981,18.981,0,0,1,.559,6.362h-20.5a8.028,8.028,0,0,0,1.975,5.418Zm9.053-14.855a6.121,6.121,0,0,0-4.387-1.555,6.819,6.819,0,0,0-3.111.7,5.581,5.581,0,0,0-1.975,1.555,5.275,5.275,0,0,0-1,1.975,9.788,9.788,0,0,0-.28,1.835h12.723a9.778,9.778,0,0,0-1.975-4.509Z" transform="translate(-884.646 -47.286)" fill="#ccc"/>
</svg>
