<svg xmlns="http://www.w3.org/2000/svg" width="213.87" height="40" viewBox="0 0 213.87 40">
  <path id="Discord_Color_Text_Logo" d="M34.435,19.565H20V35.913l9.609,8.7V28.739h5.174c3.261,0,4.87,1.609,4.87,4.13V45c0,2.522-1.522,4.217-4.87,4.217H20v9.217H34.435c7.739.043,15-3.826,15-12.783V32.565c0-9.043-7.261-13-15-13Zm75.7,26.13V32.3c0-4.826,8.609-5.957,11.217-1.087l7.957-3.261A14.3,14.3,0,0,0,115.739,19c-7.739,0-15.391,4.522-15.391,13.3V45.7c0,8.826,7.652,13.3,15.217,13.3a15.54,15.54,0,0,0,13.913-8.739L120.957,46.3C118.87,51.7,110.13,50.391,110.13,45.7ZM83.783,34.13c-3-.652-5-1.739-5.13-3.609.174-4.522,7.087-4.652,11.13-.348l6.391-4.957A15.812,15.812,0,0,0,82.957,19C75.87,19,69,23,69,30.652,69,38.087,74.652,42.043,80.87,43c3.174.435,6.7,1.7,6.609,3.913-.261,4.174-8.783,3.957-12.652-.783L68.7,51.957C72.3,56.609,77.217,59,81.826,59c7.087,0,14.957-4.13,15.261-11.652.435-9.565-6.435-11.957-13.3-13.217ZM54.7,58.435h9.739V19.565H54.7v38.87Zm164.217-38.87H204.478V35.913l9.609,8.7V28.739h5.13c3.261,0,4.87,1.609,4.87,4.13V45c0,2.522-1.522,4.217-4.87,4.217H204.435v9.217H218.87c7.739.043,15-3.826,15-12.783V32.565c.043-9.043-7.217-13-14.957-13ZM148.087,19c-8,0-15.957,4.391-15.957,13.348v13.3c0,8.913,8,13.348,16.043,13.348,8,0,15.957-4.435,15.957-13.348v-13.3C164.13,23.435,156.087,19,148.087,19Zm6.261,26.652c0,2.783-3.13,4.217-6.217,4.217-3.13,0-6.261-1.391-6.261-4.217v-13.3c0-2.87,3.043-4.391,6.087-4.391,3.174,0,6.391,1.391,6.391,4.391v13.3Zm44.7-13.3c-.217-9.13-6.391-12.783-14.348-12.783H169.261V58.478h9.87V46.087h1.739l8.957,12.348H202L191.478,45.087C196.174,43.609,199.043,39.565,199.043,32.348ZM184.87,37.609H179.13v-8.87h5.739a4.439,4.439,0,1,1,0,8.87Z" transform="translate(-20 -19)" fill="#ccc"/>
</svg>
