<svg xmlns="http://www.w3.org/2000/svg" width="280.5" height="204.735" viewBox="0 0 280.5 204.735">
  <g id="_29" data-name="29" transform="translate(0)">
    <path id="Fill_333" data-name="Fill 333" d="M217.487,204.735c-.117,0-.234,0-.347-.011-.586-.038-1.208-.056-1.957-.056-.586,0-1.183.011-1.76.022-.341.006-.681.013-1.019.017h-.095a15.7,15.7,0,0,1-3.815-.629c-.315-.079-.639-.161-.96-.236a16.475,16.475,0,0,1-3.159-1.069,3.978,3.978,0,0,0-1.664-.4,2.992,2.992,0,0,0-.476.038,2.936,2.936,0,0,1-.461.036,5.826,5.826,0,0,1-2.322-.666l-.048-.021a33.2,33.2,0,0,1-6.288-3.865l-.094-.068c-.213-.154-.431-.308-.643-.456l-.008-.006a15.708,15.708,0,0,1-2.431-1.966,17.96,17.96,0,0,1-3.606-5.865,23.206,23.206,0,0,0-2.06-3.72,46.169,46.169,0,0,1-3.165-5.941l-.008-.018c-.218-.459-.443-.935-.682-1.432-.809-1.684-1.477-3.447-2.123-5.152l0-.011c-.281-.742-.572-1.509-.87-2.258-.157-.394-.322-.791-.481-1.176-.371-.9-.755-1.824-1.067-2.763a16.572,16.572,0,0,0-1.7-3.881,9.518,9.518,0,0,1-.62-1.209,10.118,10.118,0,0,0-.614-1.2,31.648,31.648,0,0,1-1.833-3.542c-.143-.307-.285-.613-.43-.919-.254-.534-.519-1.075-.776-1.6l-.007-.013c-.616-1.255-1.254-2.552-1.779-3.861a21.056,21.056,0,0,0-1.192-2.374,20.97,20.97,0,0,1-1.186-2.362,36.032,36.032,0,0,0-1.735-3.546l0-.008c-.207-.388-.422-.788-.628-1.184a6.833,6.833,0,0,0-3.419-3.437,5.994,5.994,0,0,1-2.5-1.858.507.507,0,0,1-.456.26,1.663,1.663,0,0,1-.358-.055,1.693,1.693,0,0,0-.356-.055.471.471,0,0,0-.392.183,1.207,1.207,0,0,0-.969-.331h-.284a1.942,1.942,0,0,1-.563-.063.138.138,0,0,1-.029,0,.055.055,0,0,1-.045-.018c-.03-.036-.016-.119,0-.208l.006-.037c.015-.091.027-.185-.014-.232a.1.1,0,0,0-.083-.032.733.733,0,0,0-.3.1,2.706,2.706,0,0,1-1.178.187c-.2,0-.412.008-.619.029-.045-.232-.088-.449-.139-.707l0-.018-.1-.511-.135.385-.147.42-.394-.26-.029-.019-.85-.562.149-.52.134-.469a2.451,2.451,0,0,0-1.348-.416,2.93,2.93,0,0,0-1,.19l1.415.671.361.171-.3.616-.158.324c-.1-.048-.142-.185-.183-.317-.052-.168-.106-.341-.276-.341a.779.779,0,0,0-.405.183l.219.488.195.434c-.045.023-.086.051-.123.074a.334.334,0,0,1-.129.066.03.03,0,0,1-.015,0c-.424-.224-.85-.461-1.262-.69l-.339-.188a3.72,3.72,0,0,1-2.492,1.564l.116-.334.181-.523a1.125,1.125,0,0,1-.265-.279.9.9,0,0,0-.736-.461.982.982,0,0,0-.1.006c.067.364.132.71.195,1.046l.075.4c-.319.143-.461.245-.505.369a.456.456,0,0,0,.066.357.66.66,0,0,1-.4.172c-.217,0-.369-.182-.53-.374a.946.946,0,0,0-.566-.416c-.031.2-.058.384-.084.554l-.01.066c-.02.13-.039.255-.058.382a.777.777,0,0,1-.292-.131.621.621,0,0,0-.329-.129.549.549,0,0,0-.333.14,5.73,5.73,0,0,1-1.042.6,5.649,5.649,0,0,0-1.054.607,1.18,1.18,0,0,1-.744.288,2.408,2.408,0,0,1-.95-.285l-.055-.025c-.013.175-.025.339-.039.526l-.03.409a1.668,1.668,0,0,0-.3-.028,3.105,3.105,0,0,0-1.29.384,5.96,5.96,0,0,1-.691.286c-1.216.385-2.421.86-3.586,1.319-.586.231-1.192.47-1.792.694-.975.365-1.953.772-2.9,1.166l-.007,0c-.6.252-1.231.512-1.85.759l-.119.047c-1.248.5-2.538,1.014-3.827,1.473-1.075.384-2.144.836-3.178,1.274-.7.3-1.421.6-2.14.884-1.151.452-2.322.961-3.453,1.453l-.715.311a3.857,3.857,0,0,0-.353.185,1.743,1.743,0,0,1-.851.3,1.028,1.028,0,0,1-.249-.031.252.252,0,0,0-.059-.007.615.615,0,0,0-.363.148,6.392,6.392,0,0,1-2.362,1.174,7.6,7.6,0,0,0-2.013.9.428.428,0,0,1-.23.065.333.333,0,0,1-.068-.007,2.58,2.58,0,0,0-.5-.049,4.473,4.473,0,0,0-2.125.733c-.273.15-.556.3-.841.43a32.571,32.571,0,0,1-5.449,1.837c-.086.021-.174.039-.262.058a3.376,3.376,0,0,0-.9.283,1.13,1.13,0,0,1-.543.109,1.1,1.1,0,0,0-.423.067,3.068,3.068,0,0,0-1.013.69.3.3,0,0,1-.221.117.545.545,0,0,1-.279-.12.59.59,0,0,0-.306-.128.372.372,0,0,0-.26.127,1.569,1.569,0,0,1-.772.311,2.554,2.554,0,0,0-.632.2,3.523,3.523,0,0,1-.919.283,2.4,2.4,0,0,0-1.345.6.477.477,0,0,1-.333.091,1.13,1.13,0,0,1-.454-.091,1.079,1.079,0,0,0-.4-.141c-.144,0-.255.11-.4.393-.12.243-.648.321-1.073.384h-.008l-.174.027a10.207,10.207,0,0,0-1.677.468,7.345,7.345,0,0,1-2.362.524l-.13,0a5.839,5.839,0,0,1-2.55.813,12.147,12.147,0,0,0-1.262.241c-.115.031-.229.067-.339.1a4.651,4.651,0,0,1-.537.147,2.007,2.007,0,0,1-.384.031c-.064,0-.129,0-.194,0l-.182,0a1.448,1.448,0,0,0-.932.263.663.663,0,0,1-.41.105c-.082,0-.166-.006-.255-.012s-.186-.013-.279-.013a.912.912,0,0,0-.71.27.222.222,0,0,1-.16.044,1.214,1.214,0,0,1-.571-.168.536.536,0,0,0-.252-.112A.079.079,0,0,0,71.7,161c-.037.038-.036.117-.035.193s0,.146-.035.166a.523.523,0,0,1-.24.044l-.1,0h-.09a.575.575,0,0,0-.236.038,5.188,5.188,0,0,1-2.141.481,4.791,4.791,0,0,1-.613-.04,5.661,5.661,0,0,0-.728-.045,13.082,13.082,0,0,0-2.02.211,13.019,13.019,0,0,1-2.037.213l-.148,0h-.026a2.323,2.323,0,0,0-.478.068,2.332,2.332,0,0,1-.483.069.854.854,0,0,1-.538-.177,1.646,1.646,0,0,1-.771.178,4.51,4.51,0,0,1-.838-.107,4.414,4.414,0,0,0-.834-.107,1.774,1.774,0,0,0-.392.041,2.883,2.883,0,0,0-.435.15,1.687,1.687,0,0,1-.57.163.378.378,0,0,1-.151-.028,4.525,4.525,0,0,0-1.7-.269c-.208-.006-.423-.012-.635-.029-.533-.044-1.072-.127-1.594-.208-.237-.037-.481-.075-.722-.108a.912.912,0,0,0-.113-.007c-.08,0-.162,0-.187-.042a.683.683,0,0,0-.635-.312c-.058,0-.116,0-.173.006H52c-.054,0-.105,0-.155,0a.764.764,0,0,1-.258-.035,4.7,4.7,0,0,0-1.079-.2,3.438,3.438,0,0,1-1.457-.38l-.276-.163a4.248,4.248,0,0,1-1.155-.842l-.079.169c-.082.175-.168.359-.28.6a5.553,5.553,0,0,0-1.571-.748,4.12,4.12,0,0,1-2.39-1.6H42.086c-.051-.091-.1-.2-.144-.3-.09-.2-.168-.373-.246-.373h-.075a1.573,1.573,0,0,1-1.16-.292,1.155,1.155,0,0,1-.229-.888c0-.111-.174-.232-.445-.415-.154-.1-.345-.233-.546-.392.159.462.251.732.353,1.032l.118.348c-.2-.133-.38-.251-.553-.364-.364-.238-.675-.442-.97-.657-.086-.062-.174-.124-.262-.185a3.9,3.9,0,0,1-.906-.778,2.327,2.327,0,0,0-.587-.5,2,2,0,0,1-.644-.588,6.282,6.282,0,0,0-.93-1.243,3.671,3.671,0,0,1-.388-.472,2.52,2.52,0,0,0-.705-.725,1.5,1.5,0,0,1-.445-.86,4.7,4.7,0,0,0-.156-.472l.251-.272.141-.153.2.175.306.271c-.016-.12-.022-.225-.028-.317a.754.754,0,0,0-.076-.377,3.347,3.347,0,0,0-1.417-1.019l-.1-.046-.009,0c-.232-.112-.52-.251-.6-.45a1.16,1.16,0,0,1-.043-.469,1.131,1.131,0,0,0-.046-.475.809.809,0,0,0-.334-.284c-.136-.082-.265-.159-.264-.244a3.461,3.461,0,0,0-.2-1.061,2.579,2.579,0,0,1-.153-1.418,6.243,6.243,0,0,1-.332-2.867,12.7,12.7,0,0,0,.006-1.41,18.645,18.645,0,0,1,1.433-7.577,27.531,27.531,0,0,1,4.227-7.569c.314-.4.629-.817.933-1.217l.008-.01c.909-1.193,1.849-2.426,2.872-3.569a63.71,63.71,0,0,0,5.1-6.705,8.054,8.054,0,0,0,.575-1.065,7.414,7.414,0,0,1,.671-1.205,8.211,8.211,0,0,0,1.052-2.33,12.035,12.035,0,0,0,.4-1.957c.015-.1.03-.207.046-.309a3.218,3.218,0,0,0,.014-.6,1.6,1.6,0,0,1,.3-1.238c.091-.1.021-.375-.029-.573l-.011-.044a1.653,1.653,0,0,0-.123-.3,1.092,1.092,0,0,1-.137-.4,10.891,10.891,0,0,0-4.765-8.329c-1-.714-2.049-1.353-3.069-1.971-.655-.4-1.331-.807-1.984-1.233-1.13-.736-2.313-1.423-3.456-2.087-1.239-.72-2.52-1.465-3.737-2.272-1.239-.822-2.55-1.58-3.817-2.313-.594-.344-1.208-.7-1.808-1.057-.558-.332-1.135-.655-1.693-.967a26.183,26.183,0,0,1-4.525-2.961,3.125,3.125,0,0,1-1.475-.829,4.405,4.405,0,0,0-1-.689,6.123,6.123,0,0,1-1.552-1.128,9.077,9.077,0,0,0-1.05-.855,15.441,15.441,0,0,1-2.012-1.694c-.286-.27-.582-.55-.881-.813-.164-.145-.32-.3-.47-.459a3.855,3.855,0,0,0-1.23-.955,1.793,1.793,0,0,1-.907-.909,3.377,3.377,0,0,0-.942-1.221c-.161-.152-.327-.309-.476-.478a25.749,25.749,0,0,1-5.277-8.931c-.179-.536-.314-1.093-.445-1.631A12.748,12.748,0,0,0,.4,56.763a4.875,4.875,0,0,0-.143-1.942A6.241,6.241,0,0,1,.061,53.3c.016-.416-.007-.844-.028-1.259a7.822,7.822,0,0,1,.085-2.16c.116-.5.194-1.015.269-1.515a8.5,8.5,0,0,1,.99-3.348c.306-2.26,2.521-6.239,3.485-7.707A22.638,22.638,0,0,1,9.18,32.761a6.876,6.876,0,0,1,2.9-1.62,7.653,7.653,0,0,0,1.09-.361,8.278,8.278,0,0,1,1.074-.36l.075-.018a4.639,4.639,0,0,1,1.066-.171,2.054,2.054,0,0,1,.781.154.328.328,0,0,0,.125.022,1.3,1.3,0,0,0,.413-.106,1.6,1.6,0,0,1,.424-.114c.389-.024.688-.034.97-.034a8.153,8.153,0,0,1,.825.038,1.659,1.659,0,0,1,.415.121,1.387,1.387,0,0,0,.484.124.64.64,0,0,0,.43-.173.875.875,0,0,0,.67.256,3.425,3.425,0,0,0,.346-.024,3.359,3.359,0,0,1,.349-.025,1.042,1.042,0,0,1,.329.047,4.55,4.55,0,0,1,.7.319,4.7,4.7,0,0,0,.674.311c.473.159.962.29,1.435.417.3.08.6.162.9.251a2.542,2.542,0,0,1,.691.3,10.038,10.038,0,0,0,2.7,1.16c.451.143.917.291,1.363.467.532.211,1.084.4,1.617.588a22.888,22.888,0,0,1,2.751,1.091,18.2,18.2,0,0,0,1.986.807c.364.132.741.268,1.105.414.436.176.873.374,1.295.565.616.279,1.252.567,1.9.8a41.743,41.743,0,0,1,4.638,2.073c.594.3,1.208.6,1.816.888,2.84,1.342,5.592,2.661,8.18,3.921,2,.972,4.024,1.966,5.984,2.927l.007,0c2.711,1.329,5.515,2.7,8.281,4.041a22.6,22.6,0,0,0,3.63,1.479,4.75,4.75,0,0,1,.808.343,4.136,4.136,0,0,0,.869.355c.315.075.643.158.933.231.569.144,1.157.292,1.74.413a7.761,7.761,0,0,0,.83.109,4.508,4.508,0,0,1,1.308.255,9.523,9.523,0,0,0,1.975.514,12.094,12.094,0,0,1,1.578.365,2.806,2.806,0,0,0,.872.137,4.412,4.412,0,0,0,2.738-1.145,9.178,9.178,0,0,0,.725-.705c.179-.187.363-.38.555-.557a4.982,4.982,0,0,0,1.42-5.686c-.04-.122-.081-.245-.122-.367a7.446,7.446,0,0,1-.539-2.627,1.329,1.329,0,0,1-.32-1.1,1.34,1.34,0,0,0-.31-1.091,8.928,8.928,0,0,0,.017-1.379,5.937,5.937,0,0,1,.208-2.26,6.266,6.266,0,0,0,.424-2.781,22.44,22.44,0,0,1,.165-5.2c.085-.77.171-1.563.22-2.342a25.124,25.124,0,0,1,1.047-5.251,20.442,20.442,0,0,1,.784-2.134c.17-.413.345-.84.5-1.267A12.489,12.489,0,0,1,93.7,17.328c.158-.222.32-.451.474-.675a21.168,21.168,0,0,1,6.243-5.76,23.62,23.62,0,0,1,5.555-2.756,11.923,11.923,0,0,1,1.417-.331c.377-.072.767-.146,1.132-.247a5.171,5.171,0,0,1,1.292-.135,3.985,3.985,0,0,0,1.351-.176,4.709,4.709,0,0,1,1.713-.29c.237,0,.485.012.781.038,1.472.128,2.916.348,4.632.639a18.017,18.017,0,0,1,3.493,1.1c.272.106.548.214.82.317a20.324,20.324,0,0,1,5.205,2.821,3.286,3.286,0,0,0,.28.184,1.667,1.667,0,0,1,.466.364q.3.393.612.784c.777.991,1.58,2.016,2.27,3.088a21.273,21.273,0,0,0,5.188,5.506,3.124,3.124,0,0,1,.576.661c.081.112.163.226.249.332.176-.062.333-.128.484-.192a2.356,2.356,0,0,1,.818-.242,2.437,2.437,0,0,0,.825-.2c.115-.044.233-.088.354-.124a2.35,2.35,0,0,1,.657-.092,2.1,2.1,0,0,1,.635.093.393.393,0,0,0,.121.019.711.711,0,0,0,.361-.139.719.719,0,0,1,.355-.138.444.444,0,0,1,.27.1.125.125,0,0,0,.077.021,1.3,1.3,0,0,0,.421-.145c.092-.042.188-.086.27-.113s.178-.054.266-.079a2.2,2.2,0,0,0,.586-.223.292.292,0,0,1,.157-.05.492.492,0,0,1,.288.146.508.508,0,0,0,.3.148.355.355,0,0,0,.206-.077,1.009,1.009,0,0,1,.539-.121,2.023,2.023,0,0,0,.37-.042,4.7,4.7,0,0,0,.461-.147,3.921,3.921,0,0,1,.549-.166,1,1,0,0,1,.191-.018,2.089,2.089,0,0,1,.675.153,2.759,2.759,0,0,0,.476.134l.038,0a.956.956,0,0,0,.5-.274,1.457,1.457,0,0,1,.5-.307,4.764,4.764,0,0,1,.588-.1,3.435,3.435,0,0,0,.926-.2,1.832,1.832,0,0,1,.665-.148.831.831,0,0,1,.851.725c0,.02.059.03.171.03.081,0,.181,0,.287-.01s.228-.011.327-.011l-.352-.73a2.212,2.212,0,0,0,.42-.253,1.179,1.179,0,0,1,.641-.291.755.755,0,0,1,.514.247c.064-.1.132-.153.205-.153a.365.365,0,0,1,.193.083l.014.01A.314.314,0,0,0,154.8,20h.008c.148-.018.26-.153.379-.3s.259-.311.437-.311a.654.654,0,0,1,.439.262c.126-.052.253-.109.376-.164a5.8,5.8,0,0,1,.977-.368.158.158,0,0,1,.038,0,.661.661,0,0,1,.289.122.677.677,0,0,0,.293.125.154.154,0,0,0,.04,0,.746.746,0,0,0,.239-.149.532.532,0,0,1,.3-.155.335.335,0,0,1,.248.149.271.271,0,0,0,.2.122.293.293,0,0,0,.187-.1l.019-.018c.048-.046.089-.085.13-.085a.066.066,0,0,1,.043.017.726.726,0,0,1,.18.361c.018.062.037.125.06.182,1.1-.352,1.1-.352,1.371-1.327.087.041.176.079.262.115a2.578,2.578,0,0,1,.553.286,1.789,1.789,0,0,1,.359.407c.046.064.088.124.133.178l.54-.9a8.412,8.412,0,0,0,1.835.363c.673,0,.932-.36,1.449-1.313h1.108l.113.242.011.024.167.356c.206-.822.206-.822,1.031-1.273a.168.168,0,0,1,.043-.007.063.063,0,0,1,.051.021c.035.041.021.137.005.238l0,.013c-.016.109-.027.2.011.247a.082.082,0,0,0,.066.026.673.673,0,0,0,.3-.126,1.144,1.144,0,0,1,.611-.181,1.363,1.363,0,0,1,.722.227.716.716,0,0,0,.376.086,1.438,1.438,0,0,0,.488-.088c.095-.036.2-.065.3-.094.459-.13.932-.264.853-1.009a.22.22,0,0,1,.064-.162.345.345,0,0,1,.263-.111.646.646,0,0,1,.362.132,2.48,2.48,0,0,0,1.114.29c.2.023.41.046.618.086-.086-.254-.169-.5-.271-.8l-.038-.113a3.992,3.992,0,0,0,1.274.3,1.433,1.433,0,0,0,1.1-.512.186.186,0,0,1,.143-.065.664.664,0,0,1,.226.063l.033.013a.862.862,0,0,0,.325.078.586.586,0,0,0,.309-.091,4.7,4.7,0,0,1,1.647-.485c.27-.046.548-.094.828-.16.023-.163.069-.462.112-.741.028-.013.053-.028.074-.041a.2.2,0,0,1,.09-.038,1.246,1.246,0,0,0,.14.007,11.92,11.92,0,0,0,2.24-.332c.686-.21,1.43-.418,2.342-.656,2.053-.536,4.091-1.234,6.062-1.91,1.552-.532,3.156-1.082,4.757-1.548l.957-.28c2.225-.651,4.526-1.325,6.823-1.886,2.124-.518,4.383-1.082,6.6-1.781a18.637,18.637,0,0,1,2.488-.539c.421-.071.857-.145,1.281-.233.193-.04.386-.1.572-.155a6.2,6.2,0,0,1,.6-.161c.46-.091.932-.165,1.389-.237l.6-.1c.206-.034.417-.059.621-.084a6.874,6.874,0,0,0,1.361-.26,12.091,12.091,0,0,1,2.135-.444,11.82,11.82,0,0,0,2.22-.471,4.126,4.126,0,0,1,1.254-.161,4.513,4.513,0,0,0,1.382-.184,3.908,3.908,0,0,1,1.043-.156,2.8,2.8,0,0,0,1.233-.253,2.812,2.812,0,0,1,1.183-.3,3.152,3.152,0,0,0,1.06-.232,3.258,3.258,0,0,1,1.305-.194,4.286,4.286,0,0,0,1.318-.162.57.57,0,0,1,.185-.028,2.733,2.733,0,0,1,1.08.391l.019.01a1.8,1.8,0,0,0,.821.254,1.075,1.075,0,0,0,.75-.332A17.251,17.251,0,0,1,239.711.157a.046.046,0,0,1,.03.007.833.833,0,0,0,.593.27,1.927,1.927,0,0,0,.743-.225A4.476,4.476,0,0,1,241.6,0c-.031.126-.057.234-.08.331l0,.008c-.041.172-.073.307-.111.442-.032.119-.07.236-.118.384-.024.075-.049.154-.078.243.777-.256.77-.8.7-1.344.11.063.213.132.3.192a.883.883,0,0,0,.3.164.042.042,0,0,0,.024-.007A.809.809,0,0,1,243,.261a1.845,1.845,0,0,1,.554.122L243.6.4a.362.362,0,0,0,.11.016,1.358,1.358,0,0,0,.495-.151A2.262,2.262,0,0,1,244.6.117a1.423,1.423,0,0,1,.313-.033,1.989,1.989,0,0,1,.337.03.728.728,0,0,1,.291.167.6.6,0,0,0,.335.17.408.408,0,0,0,.306-.2A.328.328,0,0,1,246.438.1a.536.536,0,0,1,.292.132l.025.018a.46.46,0,0,0,.225.113.125.125,0,0,0,.093-.044.71.71,0,0,1,.513-.262,1.207,1.207,0,0,1,.567.21,1.328,1.328,0,0,0,.5.2c.488.045,1.019.146,1.133.779.008.049.224.112.385.112a.267.267,0,0,0,.136-.027c.046-.029.09-.062.133-.095a.584.584,0,0,1,.325-.16.329.329,0,0,1,.223.1,4.178,4.178,0,0,0,1.209.708,3.909,3.909,0,0,1,1.285.782,1.074,1.074,0,0,0,.63.358h.024l.067,0a.935.935,0,0,1,.76.49l0,.006.072.092a5.588,5.588,0,0,0,1.026,1.021c.1.075.194.157.284.236a1.651,1.651,0,0,0,1.057.525,1.126,1.126,0,0,1,.673.45,1.9,1.9,0,0,0,.7.538,22.746,22.746,0,0,1,4.785,2.609c.333.227.675.452,1.005.67a26.363,26.363,0,0,1,3.3,2.435c.314.286.641.572.958.848.511.446,1.037.905,1.53,1.385a17.945,17.945,0,0,1,2,2.462c.412.575.838,1.168,1.3,1.713a22.922,22.922,0,0,1,3.026,5.107l0,.009c.174.362.353.736.534,1.1a27.827,27.827,0,0,1,2.015,6.038c.1.418.161.855.222,1.277a7.386,7.386,0,0,0,.7,2.58.273.273,0,0,1,0,.161,5.6,5.6,0,0,0,.141,2.141,7.249,7.249,0,0,1,.2,1.647c-.022.623-.017,1.256-.012,1.868s.01,1.26-.013,1.89a3.976,3.976,0,0,1-.161.857,5.417,5.417,0,0,0-.143.644c-.016.115-.024.229-.033.338a2.128,2.128,0,0,1-.262,1.02,1.543,1.543,0,0,0-.153.62,2.077,2.077,0,0,1-.168.713c-.085.17.015.423.122.691a2.634,2.634,0,0,1,.153.46.887.887,0,0,1-.075.687.611.611,0,0,1-.478.2,3.689,3.689,0,0,1-.516,1.264,3.434,3.434,0,0,0-.463,1.094,6.142,6.142,0,0,1-.935,2.167,6.7,6.7,0,0,0-.859,1.843,1.665,1.665,0,0,0-.664.993,2.019,2.019,0,0,1-.578.968,3.457,3.457,0,0,0-.767,1.066,6.305,6.305,0,0,1-.424.7c-.308.419-.648.824-.977,1.215-.173.206-.348.414-.516.622-.02.024-.043.05-.066.077-.092.1-.194.22-.176.3.175.764-.283,1.178-.726,1.578-.1.093-.21.189-.307.289l-.372.384-.045.046c-.683.706-1.39,1.436-2.128,2.107a37.942,37.942,0,0,1-4.774,3.842,13.609,13.609,0,0,0-1.438,1.133,10.855,10.855,0,0,1-1.793,1.346c-.788.434-1.543.937-2.273,1.424-.48.32-.976.65-1.475.958-1.247.766-2.548,1.486-3.806,2.182q-.541.3-1.081.6c-.81.453-1.646.884-2.455,1.3-.917.473-1.862.96-2.77,1.48-.356.2-.708.435-1.049.657A11.15,11.15,0,0,1,243.86,81.3a17.584,17.584,0,0,0-2.705,1.438c-.46.28-.935.57-1.417.83a37.389,37.389,0,0,0-3.5,2.245c-.456.317-.925.644-1.392.956a18.229,18.229,0,0,0-2.723,2.395c-.313.315-.635.639-.961.949-.106.1-.211.206-.313.308a5.054,5.054,0,0,1-1.258,1.01,3.173,3.173,0,0,0-1.3,1.552l-.055.117a24.6,24.6,0,0,0-1.532,3.8,4.055,4.055,0,0,0-.1.99,5.646,5.646,0,0,1-.05.749,1.385,1.385,0,0,0,.022.4.824.824,0,0,1-.06.624.7.7,0,0,1-.5.216c-.057.007-.1.384-.1.586,0,.476,0,.953,0,1.415,0,.66,0,1.343-.01,2.016a2.622,2.622,0,0,0,.2.9,1.922,1.922,0,0,1,.136,1.25,1.662,1.662,0,0,1,.395,1.284,2.309,2.309,0,0,0,.205,1.091,3.442,3.442,0,0,1,.285,1.451,6.086,6.086,0,0,0,.111.994,11.458,11.458,0,0,0,.369,1.2,6.969,6.969,0,0,1,.467,1.869,6.815,6.815,0,0,0,.476,1.926,8.5,8.5,0,0,1,.428,1.487,6.722,6.722,0,0,0,.535,1.567,6.745,6.745,0,0,1,.534,1.563,24.151,24.151,0,0,0,.755,3.015l0,.007c.108.364.22.741.323,1.113.026.1-.061.222-.153.356a2.109,2.109,0,0,0-.129.2l.583.2a9.567,9.567,0,0,0,.624,2.974,1.92,1.92,0,0,1,.07.737,3.023,3.023,0,0,0,.015.539,3.665,3.665,0,0,0,.148.557,3.261,3.261,0,0,1,.156.618c.009.081.016.16.023.24a2.365,2.365,0,0,0,.292,1.109,2.807,2.807,0,0,1,.332,1.321,2.561,2.561,0,0,0,.348,1.333c.1.158.006.325-.084.486-.128.231-.261.469.143.7.287.162.263.435.239.7a.732.732,0,0,0,.053.474,2.979,2.979,0,0,1,.4,1.436,4.524,4.524,0,0,0,.166.944,12.192,12.192,0,0,1,.374,1.644,2.844,2.844,0,0,1,.02.554,1.431,1.431,0,0,0,.27,1.086c-.135.072-.208.142-.222.219-.018.1.062.187.139.275a.468.468,0,0,1,.141.236,1.708,1.708,0,0,0,.095.383,1.9,1.9,0,0,1,.092.351,5.275,5.275,0,0,1,.02.82l0,.063a.706.706,0,0,1-.05.189c-.026.071-.048.132-.028.148a1.915,1.915,0,0,1,.6,1.542,2.894,2.894,0,0,0,.213,1.071,2.713,2.713,0,0,1,.194.774,4.638,4.638,0,0,0,.109.562c.046.161.106.326.163.485a2.813,2.813,0,0,1,.246,1.494,1.434,1.434,0,0,0,.315.991,2.087,2.087,0,0,1,.3,1.484v.026a2.152,2.152,0,0,0,.116.964c.048.151.107.338.172.631a6.3,6.3,0,0,0,.312.938,3.933,3.933,0,0,1,.362,1.4,2.045,2.045,0,0,0,.212.745c.2.474.408.964-.132,1.469a3.239,3.239,0,0,0,.245.3l.126.147a1.752,1.752,0,0,1,.336.919,3.755,3.755,0,0,0,.088.437,1.733,1.733,0,0,1-.156,1.573l.277.064.207.048a.519.519,0,0,0,.041.034c.033.026.067.052.071.082.047.369.091.738.135,1.107.066.553.135,1.124.212,1.692a4.118,4.118,0,0,1,0,.856,2.231,2.231,0,0,0,.31,1.637c.078.1.01.225-.069.364-.116.206-.248.44.058.693.077.063-.013.332-.1.593-.041.121-.082.246-.107.349l.553.193a2.718,2.718,0,0,1-.312.976,1.537,1.537,0,0,0-.056,1.735,2.346,2.346,0,0,1-.394.107c-.447.095-.91.193-.849.979l.424-.208.27-.133c.037.028.078.053.117.077.079.048.145.089.143.127-.017.293-.054.589-.09.875l-.027.216c-.005.042-.015.1-.025.148a.515.515,0,0,0-.021.184c.462.155.4.455.338.773a.775.775,0,0,0,.115.767c.33.341.1.822-.126,1.288a4.028,4.028,0,0,0-.206.475,7.084,7.084,0,0,0-.283,1.515c-.018.175-.03.358-.041.535a3.768,3.768,0,0,1-.325,1.591,2.013,2.013,0,0,0-.209.982,1.831,1.831,0,0,1-.159.833c-.045.084-.092.167-.139.25a2.216,2.216,0,0,0-.425,1.478,4.141,4.141,0,0,0-.76,1.655,4.934,4.934,0,0,1-.561,1.391.935.935,0,0,1-.405.271c-.077.035-.156.071-.227.113v1.613c-.092.055-.192.1-.289.149-.357.171-.726.348-.723.878a.538.538,0,0,0-.293.3.662.662,0,0,0,.138.483c.113.2.23.409.1.618a1.193,1.193,0,0,0-.136.024.967.967,0,0,1-.187.028.143.143,0,0,1-.1-.027l-.067-.059c-.094-.084-.175-.156-.267-.156s-.166.054-.267.17c-.148.169-.112.243-.051.365.017.034.036.072.053.117a1.315,1.315,0,0,1-.187,1.078c-.051.074-.1.116-.13.116a.029.029,0,0,1-.021-.009.619.619,0,0,0-.392-.231c-.154,0-.249.151-.341.3a.665.665,0,0,1-.223.256.459.459,0,0,0-.215.381c.219.868-.35,1.173-.9,1.467-.084.045-.18.1-.266.147-1.672.983-1.723.985-3.017,1.033l-.079,0c0,.1,0,.194-.008.289a3.075,3.075,0,0,0,.017.645.869.869,0,0,1-.478.945l-.44.266a28.72,28.72,0,0,1-2.6,1.458l-.2.1a10.021,10.021,0,0,1-2.912,1.031,15.045,15.045,0,0,0-1.806.381A10.6,10.6,0,0,1,217.487,204.735Zm16.238-24.656c-.066.086-.14.17-.211.251a1.933,1.933,0,0,0-.4.576,4.837,4.837,0,0,0-.195.8,5.7,5.7,0,0,1-.158.693c-.111.349-.212.708-.31,1.055a11.476,11.476,0,0,1-1.122,2.926.855.855,0,0,0-.18.569,2.506,2.506,0,0,1-.716,2.144,7.2,7.2,0,0,0-.871,1.451,4.817,4.817,0,0,1-1.371,1.9l.529.529c.133-.2.264-.378.39-.554a9.171,9.171,0,0,0,.707-1.085,18.289,18.289,0,0,1,.977-1.591,8.151,8.151,0,0,0,1.672-3.849c0-.049.059-.092.117-.137a.6.6,0,0,0,.1-.1,3.106,3.106,0,0,0,.727-2.146,4.932,4.932,0,0,1,.551-2.39.73.73,0,0,0-.242-1.045Zm-5.33-25.164c-.079.156-.168.311-.247.447-.144.25-.257.447-.214.491a1.244,1.244,0,0,1,.266,1.093,2.835,2.835,0,0,0-.014.449c.007.086.014.173.022.261a3.516,3.516,0,0,1-.047,1.361.8.8,0,0,0,.12.6c.128.262.25.51-.067.78a1.085,1.085,0,0,1,.315,1.075,2.971,2.971,0,0,0-.014.416c.024.378.018.764.013,1.137,0,.165,0,.33,0,.5v1.435c0,1.569,0,3.184.006,4.772a1.858,1.858,0,0,0,.068.424c.015.064.031.129.043.193a11.182,11.182,0,0,1,.24-1.137,8.113,8.113,0,0,0,.254-1.333c.054-.708.065-1.431.076-2.129a20.984,20.984,0,0,1,.266-3.619,4.307,4.307,0,0,0-.1-1.576,7.58,7.58,0,0,1-.132-.9,26.5,26.5,0,0,0-.74-4.279l-.015-.067Zm-77.4-22.737h0l.158.158c.183.183.387.387.568.569a1.645,1.645,0,0,0,.014-.529c-.034-.47-.073-1,.657-1.231a1.428,1.428,0,0,0,.928.363,1.815,1.815,0,0,0,.76-.187l-.086-.057c-.338-.224-.637-.422-.936-.618l.23-.232a1.061,1.061,0,0,1-.085-.088c-.057-.064-.117-.131-.168-.131-.224.021-.445.032-.64.032a1.646,1.646,0,0,1-.982-.206,1.839,1.839,0,0,0-1.415-.587,5.677,5.677,0,0,0-1.138.157c-.105.022-.209.043-.31.063a6.187,6.187,0,0,0-1.714.717c-.247.133-.5.271-.757.39-.064.03-.127.062-.191.094a2,2,0,0,1-.6.228.22.22,0,0,1-.129-.075l-.01-.009a.265.265,0,0,0-.157-.083c-.055,0-.107.039-.159.118-.084.128-.156.26-.277.48-.065.119-.142.26-.24.435a1.171,1.171,0,0,1,.441-.086,2.093,2.093,0,0,1,.691.15l.031.011a1.875,1.875,0,0,0,.6.139.858.858,0,0,0,.654-.328h0c.038,0,.386.189.4.3.036.342.263.378.359.378a.456.456,0,0,0,.223-.058,2.762,2.762,0,0,1,1.473-.309h.435a4.8,4.8,0,0,0,.727-.044c.053-.331.1-.63.113-.713l.421.419.3.3-.177.062-.009,0-.014.005.013,0ZM271.48,50.129c-.191.371-.382.75-.566,1.117a25.6,25.6,0,0,1-3.135,5.172c-1.157,1.364-2.355,2.644-3.622,4-.53.567-1.079,1.153-1.624,1.747.077.008.144.021.2.032a.9.9,0,0,0,.149.021.1.1,0,0,0,.064-.017q.356-.3.717-.6c.687-.57,1.4-1.156,2.039-1.788a33.008,33.008,0,0,0,4.566-5.934c.09-.142.182-.284.275-.426a8.544,8.544,0,0,0,1.311-2.659c.078-.332-.069-.412-.2-.483C271.578,50.264,271.5,50.223,271.48,50.129Zm-19.089.233h0c-.068.091-.132.19-.194.286a2.217,2.217,0,0,1-.483.59,1.676,1.676,0,0,1-.512.219,1.24,1.24,0,0,0-.563.274,4.616,4.616,0,0,1-1.471.956c-.116.056-.232.111-.348.169a2.3,2.3,0,0,1-1.248,1.427,6.449,6.449,0,0,0-.567.388c-.157.125-.315.248-.473.372-.369.288-.751.585-1.1.9a.846.846,0,0,0-.192.395,2.162,2.162,0,0,1-.07.208,2.634,2.634,0,0,0,.489-.281,1.318,1.318,0,0,1,.738-.307.917.917,0,0,1,.247.035.6.6,0,0,0,.156.024c.2,0,.257-.15.319-.308a.915.915,0,0,1,.114-.226c.08-.1.306-.134.506-.162.16-.022.3-.041.306-.094.076-.5.405-.674.754-.854.1-.05.2-.1.29-.161l.083-.052a5.168,5.168,0,0,0,1.259-.988,1.4,1.4,0,0,1,.912-.448c.109-.021.221-.043.328-.075l-.126-.318-.24-.608h1.367v-1.2l-.073-.042-.2-.116ZM95.225,18.573a4.441,4.441,0,0,0-1.777,2.233c-.073.15-.146.3-.221.449a11.96,11.96,0,0,0-.628,1.6A13.858,13.858,0,0,1,92.09,24.2a8.574,8.574,0,0,0-.777,3.244,5.566,5.566,0,0,1-.221,1.169,3.033,3.033,0,0,0-.009,2.23c.049-.085.1-.168.153-.249a3.25,3.25,0,0,0,.3-.561.892.892,0,0,0,.033-.342,1.162,1.162,0,0,1,.015-.291c.117-.523.248-1.052.374-1.563.055-.223.109-.441.162-.659s.121-.434.186-.644a4.044,4.044,0,0,0,.272-1.773,20.255,20.255,0,0,0,.852-2.209,13.73,13.73,0,0,1,1.414-3.209,3.556,3.556,0,0,0,.264-.52C95.145,18.748,95.184,18.659,95.225,18.573Zm155.909.445v0a1.744,1.744,0,0,1-1,1.329,3.929,3.929,0,0,0-.347.233V21.5l.2.128.077.051c.186.122.362.238.538.347s.366.22.545.324l.238.139-.005.009c-.417.764-.417.764.1,1.14l.013.009.079.057c.193.137.433.307.457.485.044.32.151.469.338.469a.785.785,0,0,0,.242-.053l.019-.006a.7.7,0,0,1,.195-.045l.028,0c-.049-.575-.1-1.118-.143-1.66.48-.311.309-.628.143-.935a1.212,1.212,0,0,1-.165-.418,1.457,1.457,0,0,0-.445-.773.018.018,0,0,0-.014,0,1.46,1.46,0,0,0-.356.189c-.093.057-.187.115-.271.161l-.261-.562-.3-.648.621.254.34.139a.475.475,0,0,0,.037-.385c-.056-.11-.192-.143-.323-.175s-.259-.063-.283-.173a3.129,3.129,0,0,1-.029-.775c.005-.136.011-.274.011-.425h-2.2c-.089-.238-.143-.384-.245-.654l-.058-.153c-.085,1.262-.085,1.262.466,1.741l.094-.277.1-.3.414.388.371.348.523-.291.008,0,.248-.138ZM105.726,15.57h0l-.258.232-.161.145c.078.09.15.171.206.234l.065.074-.5.39L103.4,17.964c.017.022.049.054.079.086.082.085.174.181.155.211-.124.2-.267.4-.4.593s-.263.363-.38.553l-.092.148-.011.018a2.793,2.793,0,0,0-.578,2.74,3.967,3.967,0,0,0,.62-.574,1.868,1.868,0,0,1,1.363-.8c.044,0,.089,0,.135.006-.034-.088-.082-.18-.127-.27-.1-.187-.185-.362-.132-.444s.107-.168.161-.254a4.013,4.013,0,0,1,1.1-1.316,2.67,2.67,0,0,0,1.157-1.307c.139-.481.41-.533.753-.6a2.331,2.331,0,0,0,.521-.145l-2-1.039Z" transform="translate(0 0)" fill="#eaefff"/>
  </g>
</svg>
