<svg xmlns="http://www.w3.org/2000/svg" width="409" height="238.336" viewBox="0 0 409 238.336">
  <g id="_41" data-name="41" transform="translate(0 0)">
    <path id="Fill_229" data-name="Fill 229" d="M274.5,238.336a.728.728,0,0,1-.255-.046,8.761,8.761,0,0,0-3.073-.367h-.259a10.344,10.344,0,0,1-2.023-.145,18.278,18.278,0,0,0-2.769-.276c-.508-.024-1.031-.049-1.547-.1a4.688,4.688,0,0,1-.893-.209,3.993,3.993,0,0,0-1.171-.229c-.037,0-.075,0-.113,0-.1.005-.209.013-.314.022-.188.015-.377.029-.566.029a2.266,2.266,0,0,1-1.153-.277,1.549,1.549,0,0,0-.771-.154c-.145,0-.295.008-.44.016s-.3.016-.448.016a2.181,2.181,0,0,1-.6-.07,40.419,40.419,0,0,0-4.634-.948,28.681,28.681,0,0,1-6.478-1.59c-.09.005-.183.008-.273.008a9.5,9.5,0,0,1-2.662-.51c-.394-.115-.8-.234-1.2-.326-1.252-.289-2.507-.642-3.72-.984-.736-.207-1.49-.419-2.234-.615-.291-.077-.6-.134-.9-.189a5.122,5.122,0,0,1-1.958-.639,5.41,5.41,0,0,0-1.917-.706c-.3-.068-.608-.138-.9-.232a23.516,23.516,0,0,1-2.321-.928,18.023,18.023,0,0,0-3.028-1.126,6.125,6.125,0,0,1-.949-.345,5.256,5.256,0,0,0-1.093-.375,6.563,6.563,0,0,1-2.107-.921,8.313,8.313,0,0,0-1.667-.816,24.413,24.413,0,0,1-5.38-2.437c-1.049-.648-2.146-1.25-3.207-1.832-1.459-.8-2.966-1.628-4.372-2.586a35.345,35.345,0,0,0-3.213-1.872c-.818-.439-1.663-.892-2.464-1.387-.163-.1-.336-.189-.5-.274a3.728,3.728,0,0,1-1.043-.694,4.535,4.535,0,0,0-2.287-1.054,7.447,7.447,0,0,1-1.532-.5.282.282,0,0,0-.116-.02c-.04,0-.083.006-.088.02-.08.19-.185.278-.33.278a.908.908,0,0,1-.3-.074.872.872,0,0,0-.287-.075.238.238,0,0,0-.156.053,1.339,1.339,0,0,1-.885.278c-.158,0-.321-.016-.466-.029s-.3-.029-.45-.029h-.024a1.373,1.373,0,0,0-.519.145,1.4,1.4,0,0,1-.532.147.774.774,0,0,1-.539-.244.3.3,0,0,0-.21-.087.975.975,0,0,0-.443.179.961.961,0,0,1-.429.18.236.236,0,0,1-.134-.039.782.782,0,0,0-.435-.152,1.176,1.176,0,0,0-.362.077,2.728,2.728,0,0,1-.266.075,10.969,10.969,0,0,1-2.315.209c-.494,0-.992-.018-1.474-.036s-.981-.036-1.475-.036a1.046,1.046,0,0,0-.931-.466,3.622,3.622,0,0,0-.641.077l-.18.032a1,1,0,0,1-.16.013,1.543,1.543,0,0,1-.74-.246l-.015-.008a1.461,1.461,0,0,0-.69-.236.825.825,0,0,0-.145.013,1.769,1.769,0,0,1-.306.026,3.732,3.732,0,0,1-1.149-.248l-.009,0a3.692,3.692,0,0,0-1.153-.252,1.7,1.7,0,0,0-.407.048,1.361,1.361,0,0,0-1.14-.427c-.093,0-.188,0-.282.006s-.185.005-.277.005a1.361,1.361,0,0,1-1.15-.436,3.152,3.152,0,0,1-.6.057,6.378,6.378,0,0,1-2.1-.483,6.741,6.741,0,0,0-2.068-.491,5.089,5.089,0,0,1-2.085-.735c-.215-.111-.437-.227-.653-.328a24.5,24.5,0,0,0-3.339-1.178c-.693-.207-1.4-.419-2.087-.666a.931.931,0,0,0-.321-.048c-.108,0-.221.011-.32.021s-.219.021-.325.021a1,1,0,0,1-.3-.039.286.286,0,0,0-.086-.014.493.493,0,0,0-.324.194l-.007.007c-.1.1-.187.187-.3.187a.425.425,0,0,1-.293-.177.281.281,0,0,0-.194-.117c-.089,0-.16.087-.236.178l-.021.026a.435.435,0,0,1-.316.205.289.289,0,0,1-.051,0,2.345,2.345,0,0,0-.416-.037,2.39,2.39,0,0,0-.8.141,14.4,14.4,0,0,1-2.91.7,8.166,8.166,0,0,1-.893.05,3.848,3.848,0,0,0-1.925.379.484.484,0,0,1-.24.064.758.758,0,0,1-.636-.493c-.228.786-.86,1.013-1.472,1.233l-.11.04a.115.115,0,0,1-.039.007.97.97,0,0,1-.415-.241c-.1-.077-.215-.165-.336-.242a3.777,3.777,0,0,1-2.326.922,5.832,5.832,0,0,0-1.708.449,4.449,4.449,0,0,1-1.322.348,3.778,3.778,0,0,0-1.545.476.052.052,0,0,1-.029.008.883.883,0,0,1-.312-.162c-.078-.051-.166-.108-.253-.156a4.476,4.476,0,0,1-2.214,1.052l-.012,0c-.17.046-.341.092-.51.142a9.046,9.046,0,0,1-2.58.43,6.084,6.084,0,0,1-.641-.033c-.06.055-.119.111-.177.165a2.107,2.107,0,0,1-1.408.748,6.337,6.337,0,0,0-1.716.449,5.887,5.887,0,0,1-1.946.465c-.091.159-.19.236-.3.237a.709.709,0,0,1-.357-.164l-.016-.011a.76.76,0,0,0-.4-.175.388.388,0,0,0-.285.143,3.335,3.335,0,0,1-1.361.7l-.037.013a1.026,1.026,0,0,1-.317.044,3.183,3.183,0,0,1-.338-.024,3.28,3.28,0,0,0-.337-.024.8.8,0,0,0-.617.231.957.957,0,0,1-.682.208c-.3.014-.616.028-.784.387-.116-.009-.24-.014-.37-.014a9.742,9.742,0,0,0-2.814.557c-.374.113-.76.231-1.146.327-.765.191-1.55.355-2.31.513a31.541,31.541,0,0,0-4.47,1.164,1.6,1.6,0,0,1-.551.079c-.111,0-.224-.006-.351-.013l-.06,0c-.09,0-.175-.008-.258-.008h-.038c-.092,0-.185,0-.278,0h-.014c-.1,0-.193,0-.289,0a1.77,1.77,0,0,0-1.482.535l-.427-.387-.142-.13a2.935,2.935,0,0,1-2.347.856h-.077c-.209,0-.421-.009-.625-.015-.233-.008-.473-.016-.712-.016a3.745,3.745,0,0,0-2.619.808.607.607,0,0,1-.406.107c-.114,0-.245-.012-.35-.021s-.233-.019-.348-.019c-.046,0-.092,0-.135.006-.117.01-.241.015-.378.015-.211,0-.428-.012-.637-.023s-.429-.025-.641-.025a2.5,2.5,0,0,0-1.583.455,1.03,1.03,0,0,0-.783-.378,2.375,2.375,0,0,0-.846.223,3.206,3.206,0,0,1-.572.188c-.384.072-.775.151-1.152.227l-.019,0a22.844,22.844,0,0,1-4.482.6c-.355,0-.7-.017-1.04-.051a1.138,1.138,0,0,0-.115-.006,1.5,1.5,0,0,0-.764.255,1.472,1.472,0,0,1-.654.24h-.049a2.2,2.2,0,0,1-.676-.146l-.065-.022a1.8,1.8,0,0,0-.5-.124.256.256,0,0,0-.149.039,1.448,1.448,0,0,1-.856.244c-.132,0-.264-.011-.391-.021s-.254-.021-.381-.021a1.282,1.282,0,0,0-.672.248,1.336,1.336,0,0,1-.71.258,1,1,0,0,1-.156-.012,7.352,7.352,0,0,0-1.177-.08c-.277,0-.56.009-.834.018h-.035c-.311.01-.628.02-.935.02h-.052a17.824,17.824,0,0,0-2.5.236l-.037.005-.015,0a18.1,18.1,0,0,1-2.552.242c-.221,0-.438-.008-.646-.024-.535-.042-1.117-.062-1.833-.062-.407,0-.821.006-1.221.012-.441.007-.831.012-1.224.012-.566,0-1.036-.011-1.479-.036h-.029a1.175,1.175,0,0,0-.6.246,1.186,1.186,0,0,1-.593.247.787.787,0,0,1-.6-.4.35.35,0,0,0-.286-.168.972.972,0,0,0-.45.186l-.016.01a1.075,1.075,0,0,1-.506.2.461.461,0,0,1-.326-.142,2.136,2.136,0,0,1-1.146.32,5.318,5.318,0,0,1-1.329-.231,5.278,5.278,0,0,0-1.321-.23h-.064c-.308.007-.636.01-1.033.01l-.76,0h-.181c-.3,0-.609,0-.913,0-.538,0-.977.007-1.381.021h-.028a1.637,1.637,0,0,1-.756-.246,1.681,1.681,0,0,0-.778-.253,1.057,1.057,0,0,0-.19.017l-.1.018a3.6,3.6,0,0,1-.662.081,1.243,1.243,0,0,1-.847-.3.281.281,0,0,0-.186-.081.556.556,0,0,0-.326.186.566.566,0,0,1-.331.186.278.278,0,0,1-.171-.065l-.1-.081a1.231,1.231,0,0,0-.792-.352,17.744,17.744,0,0,1-5.681-1.208,7.3,7.3,0,0,0-2.5-.54h-.127a6.905,6.905,0,0,1-2.274-.554l-.027-.01-.33-.119a97.6,97.6,0,0,1-10.766-4.407,16.66,16.66,0,0,1-1.563-.923,12.178,12.178,0,0,0-2.246-1.225,2.722,2.722,0,0,1-1.373-1.655l-.333.333c-.589-.348-1.166-.736-1.724-1.112-.276-.186-.588-.4-.889-.592a16.48,16.48,0,0,1-2.905-2.332c-.2-.205-.395-.418-.586-.624l-.011-.012a11.3,11.3,0,0,0-2.643-2.31,3.3,3.3,0,0,1-1.024-1.175,6.132,6.132,0,0,0-.639-.883c-1.245-1.338-2.453-2.768-3.693-4.371A45.984,45.984,0,0,1,7.115,194.2a39.614,39.614,0,0,1-4.451-9.236,10.345,10.345,0,0,0-.373-1.017,5.31,5.31,0,0,1-.525-2.029,4.84,4.84,0,0,0-.447-1.806,7.678,7.678,0,0,1-.355-1.056,14.7,14.7,0,0,1-.271-2.145c-.033-.431-.067-.873-.123-1.3S.41,174.723.311,174.3a7.619,7.619,0,0,1-.285-2.56,20.543,20.543,0,0,0,.049-2.758c-.01-.355-.02-.72-.022-1.081a24.693,24.693,0,0,1,1.935-8.436l.114-.32c.291-.816.625-1.629.947-2.414.464-1.129.942-2.295,1.3-3.488a6.979,6.979,0,0,1,1.018-1.869,9.641,9.641,0,0,0,.851-1.409,38.959,38.959,0,0,1,4.394-6.862l.53-.714a6.8,6.8,0,0,1,.635-.706,3.221,3.221,0,0,0,1.092-1.737.617.617,0,0,1,.2-.286l.038-.037c.128-.13.258-.27.372-.394a7.408,7.408,0,0,1,1-.949c.062-.046.124-.09.186-.134.467-.33.908-.643.832-1.341h.045c.492,0,.65-.343.8-.674a1.471,1.471,0,0,1,.327-.516,13,13,0,0,0,1.361-1.356C21,130.8,24.3,127.547,27.487,124.4l.527-.52c.592-.585,1.239-1.133,1.864-1.663.513-.435,1.042-.883,1.537-1.348.458-.431.9-.9,1.327-1.349a20.432,20.432,0,0,1,2.175-2.085c.931-.73,1.821-1.535,2.682-2.314,1.005-.91,2.044-1.849,3.149-2.669,1.754-1.3,3.532-2.706,5.284-4.165.87-.722,1.78-1.425,2.66-2.1.786-.607,1.592-1.229,2.366-1.862l.347-.284a45.34,45.34,0,0,1,4.344-3.274A12.452,12.452,0,0,0,57.426,99.4c.275-.252.559-.512.848-.753.465-.389.929-.787,1.378-1.171.8-.684,1.625-1.392,2.451-2.05a69.207,69.207,0,0,0,6.616-6.305q.493-.513.983-1.022a78.919,78.919,0,0,0,8.508-10.756c1.449-2.138,2.747-4.412,4-6.611.785-1.375,1.595-2.793,2.433-4.165,1.892-3.095,3.535-6.379,5.125-9.555,1.083-2.165,2.2-4.4,3.391-6.56.511-.927,1-1.889,1.464-2.82A43.1,43.1,0,0,1,97.763,42.1a5.366,5.366,0,0,0,.484-.934,7.143,7.143,0,0,1,.407-.826,2.517,2.517,0,0,0,.325-.708,2.291,2.291,0,0,1,.776-1.159,1.781,1.781,0,0,0,.762-1.625,12.1,12.1,0,0,0,1.016-1.428c.224-.349.454-.708.7-1.04.075-.1.149-.192.221-.281a3.686,3.686,0,0,0,.567-.87c.074-.166.147-.346.212-.5a4.6,4.6,0,0,1,1.322-2.067c.32-.245.486-.452.509-.633a6.456,6.456,0,0,1,1.389-2.9,13.25,13.25,0,0,0,.844-1.3,31.2,31.2,0,0,1,2.5-3.895c.315-.419.621-.854.916-1.274.506-.72,1.028-1.464,1.615-2.15.418-.489.81-1.011,1.188-1.515a13.138,13.138,0,0,1,3.188-3.332,5.8,5.8,0,0,0,1.062-.994,8.219,8.219,0,0,1,.89-.884l.045-.036c2.838-2.3,6.369-5.159,10.859-6.578a9.5,9.5,0,0,1,2.612-1.315,8.168,8.168,0,0,0,2.991-1.651,8.927,8.927,0,0,0,1.98-.661,8.669,8.669,0,0,1,2.169-.7c.608-.085,1.223-.185,1.818-.281A33.223,33.223,0,0,1,146.223,0l.589,0a7.725,7.725,0,0,1,3.51.623c1.162.437,2.373.811,3.544,1.174.451.139.9.279,1.35.422a23.556,23.556,0,0,1,7.368,3.366,20.2,20.2,0,0,1,4.651,5.247c.447.641.909,1.3,1.45,2.041a30.052,30.052,0,0,1,2.558,4.272,26.65,26.65,0,0,1,1.057,2.491c.216.562.439,1.139.683,1.695l.252.572.018.042a37.62,37.62,0,0,1,1.575,3.966,4.147,4.147,0,0,1,.137.891,1.992,1.992,0,0,0,.589,1.56,1.255,1.255,0,0,1,.389,1.124c0,.435,0,.845.448,1.106a8.137,8.137,0,0,0,.43,3.277,9.028,9.028,0,0,1,.466,2.989,3.074,3.074,0,0,0,.352,1.34,6.547,6.547,0,0,1,.276.728,54.976,54.976,0,0,1,1.488,6.006,44.6,44.6,0,0,0,1.291,5.441,5.413,5.413,0,0,0,1.3,2.441,12.865,12.865,0,0,1,2.92,5.2,1.432,1.432,0,0,0,.561.624,1.182,1.182,0,0,1,.58.752A5.265,5.265,0,0,1,188.3,61.03c.141.166.3.353.507.581a16.1,16.1,0,0,1,2.327,3.777,20.911,20.911,0,0,0,1.644,2.919c.474.665.936,1.354,1.382,2.021.435.65.885,1.322,1.346,1.97.477.671.975,1.337,1.455,1.981.831,1.114,1.69,2.265,2.456,3.449a14.112,14.112,0,0,0,1.194,1.525c.282.328.574.667.839,1.019q.226.3.452.608l.016.022a17.88,17.88,0,0,0,4.022,4.335,17.439,17.439,0,0,1,2.422,2.137,11.723,11.723,0,0,0,3.813,2.882,21.944,21.944,0,0,0,5.572,3.752c.492.262,1,.533,1.5.813a2.2,2.2,0,0,0,1.206.88c.554.236,1.126.479,1.323,1.17a.7.7,0,0,1,.442-.205c.224,0,.394.187.543.351l.01.011c.16.176.31.343.509.343a.369.369,0,0,0,.063-.005,1.134,1.134,0,0,1,.2-.018,1.258,1.258,0,0,1,.9.5,2.028,2.028,0,0,0,.471.388c.129.067.257.137.385.208a5.8,5.8,0,0,0,1.4.617,1.127,1.127,0,0,1,.55.342,1.169,1.169,0,0,0,.431.3,1.038,1.038,0,0,1-.641.243,1.733,1.733,0,0,1-.769-.25,1.682,1.682,0,0,0-.739-.25.75.75,0,0,0-.278.053,13.077,13.077,0,0,0-2.306-1.257,9.925,9.925,0,0,1-3.035-1.876,1.965,1.965,0,0,0-1.4-.68,1.905,1.905,0,0,0-.8.192l.771.5c.535.348,1.038.676,1.54,1.006a33.681,33.681,0,0,0,4.588,2.39c.994.454,2.02.923,3,1.449a7.786,7.786,0,0,0,1.151.467,4.348,4.348,0,0,1,2.035,1.158.943.943,0,0,0,.753.238c.078,0,.158,0,.238,0l.01,0v0c.083,0,.165-.006.246-.006a1.874,1.874,0,0,1,.321.023,3.3,3.3,0,0,1,1.244.577,2.942,2.942,0,0,0,1.511.609,6.38,6.38,0,0,1,2.316.75c.155.072.309.144.462.213a19.243,19.243,0,0,0,2.56,1,18.74,18.74,0,0,1,1.926.7l.018.007c.219.089.438.177.658.262.745.289,1.5.6,2.224.9.773.318,1.564.643,2.35.945,1.237.478,2.45,1.061,3.623,1.625.925.445,1.881.9,2.845,1.311a29.589,29.589,0,0,1,4.358,2.357l.076.048a1.634,1.634,0,0,0,1.005.392,8.674,8.674,0,0,0,1.1-.122l-1.6-.964-1.924-1.156.408-.429.164-.172.031.016a54.832,54.832,0,0,1,5.871,3.633,16.9,16.9,0,0,0,6.734,2.25,1.478,1.478,0,0,1,.7.257,1.256,1.256,0,0,0,.612.228.652.652,0,0,0,.211-.036.914.914,0,0,1,.3-.051,1.614,1.614,0,0,1,.756.26,1.645,1.645,0,0,0,.77.263.92.92,0,0,0,.143-.011,2.912,2.912,0,0,1,.474-.034c.152,0,.308.008.458.015s.313.015.461.015a2.867,2.867,0,0,0,.52-.041,1.073,1.073,0,0,1,.2-.019,1.855,1.855,0,0,1,.809.249,1.87,1.87,0,0,0,.809.25,1.051,1.051,0,0,0,.147-.01,5.522,5.522,0,0,1,.8-.05c.242,0,.49.01.73.02.132.005.263.011.393.015.163,0,.325.007.482.007a11.45,11.45,0,0,0,4.515-.828.655.655,0,0,1,.254-.045,1.055,1.055,0,0,1,.157.012,4.325,4.325,0,0,0,.652.047,9.822,9.822,0,0,0,1.909-.251,9.812,9.812,0,0,1,1.9-.252,4.134,4.134,0,0,1,.7.056,1.164,1.164,0,0,0,.191.016,1.837,1.837,0,0,0,.824-.254,1.817,1.817,0,0,1,.807-.253,1.078,1.078,0,0,1,.144.01,9.247,9.247,0,0,0,1.234.093,4.97,4.97,0,0,0,1.1-.112c.223-.05.454-.079.677-.107a5.337,5.337,0,0,0,.97-.185,3.349,3.349,0,0,1,1.026-.146,4.9,4.9,0,0,1,.857.078.757.757,0,0,0,.132.011,1.85,1.85,0,0,0,.78-.258,1.84,1.84,0,0,1,.769-.256.921.921,0,0,1,.745.475,1.449,1.449,0,0,1,1.038-.482,2.05,2.05,0,0,1,1.149.436.922.922,0,0,1,.717-.416,1.86,1.86,0,0,1,.875.344c.07.041.139.083.209.121a.425.425,0,0,0,.21.056.962.962,0,0,0,.447-.165.958.958,0,0,1,.444-.168.453.453,0,0,1,.309.133.206.206,0,0,0,.141.062.455.455,0,0,0,.242-.116l.008-.006a.5.5,0,0,1,.272-.122.4.4,0,0,1,.3.19c.108.137.37.154.586.154.115,0,.238-.006.356-.011h.012v0c.114-.006.233-.012.341-.012l.11,0c.149.005.308.008.5.008l.391,0,.389,0c.131,0,.262,0,.392,0h.017c.13,0,.26,0,.389,0,.185,0,.338,0,.482-.014.168-.011.344-.017.522-.017a17.137,17.137,0,0,1,2.557.258l.023,0a17.061,17.061,0,0,0,2.6.264c.257,0,.507-.012.746-.035.037,0,.075-.005.113-.005a3.42,3.42,0,0,1,1.451.515c.094.049.187.1.277.143a1.464,1.464,0,0,0,.654.184,1.03,1.03,0,0,0,.812-.451,3.148,3.148,0,0,0,2.16.855l.255.033c.409.055.829.087,1.235.118a8.4,8.4,0,0,1,3.2.675.947.947,0,0,0,.432.083c.134,0,.278-.015.417-.029s.284-.029.418-.029l1.525,0,1.525,0c.891,0,1.618,0,2.286-.014h.06c.128,0,.262.009.391.018s.279.019.419.019a1.333,1.333,0,0,0,1.076-.422,1.172,1.172,0,0,0,.983.425c.141,0,.284-.012.422-.024s.28-.022.415-.022c.051,0,.1,0,.151.005.246.017.509.024.829.024.217,0,.435,0,.652-.007s.435-.007.653-.007.43,0,.646-.008.433-.008.645-.008c.325,0,.592.009.84.03.043,0,.085,0,.128,0,.13,0,.263-.012.392-.023s.26-.024.389-.024a1.084,1.084,0,0,1,.88.374.244.244,0,0,0,.191.091.847.847,0,0,0,.365-.138c.055-.03.111-.061.166-.086a2.8,2.8,0,0,1,1.137-.276,1.9,1.9,0,0,1,1.6.936,1.178,1.178,0,0,1,1.009-.547.744.744,0,0,1,.494.15.946.946,0,0,0,.679.283,2.253,2.253,0,0,0,.466-.065,2.215,2.215,0,0,1,.457-.065.946.946,0,0,1,.132.009.963.963,0,0,0,.126.008,2.374,2.374,0,0,0,.661-.134,2.326,2.326,0,0,1,.663-.135.864.864,0,0,1,.567.2,1.393,1.393,0,0,0,.946.286c.085,0,.171,0,.258-.005s.187-.006.281-.006a2.382,2.382,0,0,1,.733.1c.063.028.055.125.045.238-.017.2-.038.448.278.526l.271-.1a4.082,4.082,0,0,1,1.434-.361,1.969,1.969,0,0,1,1.137.369.924.924,0,0,0,.545.139c.117,0,.241-.011.361-.021s.257-.023.385-.023a.989.989,0,0,1,.852.381,1.79,1.79,0,0,1,.239-.016,3.28,3.28,0,0,1,1.413.435,3.232,3.232,0,0,0,1.185.4,5.146,5.146,0,0,1,1.2.26,4.486,4.486,0,0,0,1.284.255,2.155,2.155,0,0,0,.322-.024.892.892,0,0,1,.135-.01,1.451,1.451,0,0,1,.752.284,2.332,2.332,0,0,0,.41.215q1.068.388,2.137.77c2.462.884,5.007,1.8,7.476,2.813a83.043,83.043,0,0,1,11.53,6.177,14.19,14.19,0,0,1,2.073,1.624c.684.623,1.408,1.228,2.108,1.814a31.246,31.246,0,0,1,4.245,4.027,51.048,51.048,0,0,1,7.307,11.27q.179.394.361.789a30.651,30.651,0,0,1,1.465,3.568c.167.534.37,1.072.566,1.592a11.618,11.618,0,0,1,1.006,4.171c0,.035,0,.073-.006.111a.51.51,0,0,0,.033.3,6.366,6.366,0,0,1,.812,3.826c0,.454,0,.924.033,1.382.049.652.124,1.313.2,1.952a23.257,23.257,0,0,1,.213,4.489c.516.484.337.975.164,1.45a2.132,2.132,0,0,0-.178.757c.029,1.068.024,2.153.018,3.2v.028c0,.417,0,.834,0,1.251v2.988c-.489.329-.462.835-.435,1.323s.053.982-.418,1.311a6.047,6.047,0,0,1-.652,2.836,10.128,10.128,0,0,0-.544,1.562,16.83,16.83,0,0,1-.9,2.625c-.22.54-.447,1.1-.632,1.663a28.849,28.849,0,0,1-2.846,5.7c-.595,1-1.208,2.026-1.739,3.076a1.96,1.96,0,0,1-.572.581c-.265.206-.515.4-.558.647a2.084,2.084,0,0,1-.7,1.1,2.008,2.008,0,0,0-.751,1.33c-.036.586-.58,1.013-1.106,1.425a6.54,6.54,0,0,0-.675.58,1.48,1.48,0,0,0-.322.8,1.265,1.265,0,0,1-.557,1,3.2,3.2,0,0,0-.733.683,3.664,3.664,0,0,1-.652.633c-.961.66-1.915,1.361-2.838,2.04-1.214.892-2.465,1.812-3.746,2.65-.614.4-1.274.752-1.912,1.091a14.027,14.027,0,0,0-3.184,2.083,5.252,5.252,0,0,0-2.165,1,9.146,9.146,0,0,1-1.184.7c-.515.238-1.052.447-1.571.648-.629.244-1.274.494-1.89.8a25.347,25.347,0,0,1-3.835,1.561c-.609.187-1.216.411-1.8.627a22.125,22.125,0,0,1-2.9.92,11.744,11.744,0,0,0-1.588.515,14.4,14.4,0,0,1-1.4.475,6.923,6.923,0,0,0-.747.259,3.663,3.663,0,0,1-1.273.332h-.1a2.082,2.082,0,0,0-.687.157,2.065,2.065,0,0,1-.67.158.894.894,0,0,1-.443-.116.672.672,0,0,1-.124-.112.153.153,0,0,0-.022-.022,4.395,4.395,0,0,1-2.281.939,5.63,5.63,0,0,0-1.789.575,1.3,1.3,0,0,1-.658.214,1.07,1.07,0,0,1-.81-.443l-.433.4-.056.052-.37.346-.185-.123-.013-.009-.3-.2a1.953,1.953,0,0,1-1.774.895,3.3,3.3,0,0,0-1.165.269,5.436,5.436,0,0,1-1.8.391l-.14.015a3.106,3.106,0,0,0-.864.272,2.451,2.451,0,0,1-.942.265,1.1,1.1,0,0,1-.349-.056.718.718,0,0,0-.232-.038,1.569,1.569,0,0,0-.572.15,1.518,1.518,0,0,1-.558.152.681.681,0,0,1-.451-.177,3.492,3.492,0,0,1-2.52.8,5.441,5.441,0,0,0-1.688.256,19.956,19.956,0,0,1-3.985.9l-.092.014a10.719,10.719,0,0,0-1.154.27,7.012,7.012,0,0,1-1.831.33,3.149,3.149,0,0,1-.665-.068.752.752,0,0,0-.155-.016,1.365,1.365,0,0,0-.663.239l-.016.009a1.468,1.468,0,0,1-.725.25.955.955,0,0,1-.194-.02l-.067-.014a3.5,3.5,0,0,0-.722-.1,1.059,1.059,0,0,0-.951.5c-.126-.218-.261-.324-.416-.324a.886.886,0,0,0-.43.178.927.927,0,0,1-.451.184.36.36,0,0,1-.057,0,1.689,1.689,0,0,0-.262-.02,3.863,3.863,0,0,0-1.132.237c-.125.039-.245.077-.366.111a5.065,5.065,0,0,1-1.3.126,3.7,3.7,0,0,0-1.921.374,4.316,4.316,0,0,0-.622-.043,9.793,9.793,0,0,0-1.925.258l-.021,0a9.883,9.883,0,0,1-1.953.263,4.368,4.368,0,0,1-.639-.045,1.723,1.723,0,0,0-.25-.018,3.568,3.568,0,0,0-1.113.24,3.743,3.743,0,0,1-1.156.246,1.9,1.9,0,0,1-.3-.023,10.131,10.131,0,0,0-1.561-.149,3.921,3.921,0,0,0-1.2.163,8.857,8.857,0,0,1-2.676.345c-.38,0-.766-.012-1.14-.023h-.013c-.355-.011-.758-.024-1.148-.024a10.286,10.286,0,0,0-1.684.118,39.624,39.624,0,0,1-6.366.43c-.964,0-1.942-.017-2.887-.034-1.021-.018-1.941-.034-2.859-.034-.494,0-.945,0-1.378.013-1.606.033-3.369.049-5.39.049-1.773,0-3.575-.012-5.318-.024h-.078q-1.331-.009-2.661-.016h-.04c-.16,0-.322.009-.479.018s-.345.021-.515.021a2.21,2.21,0,0,1-1.025-.209.614.614,0,0,0-.28-.067,1.422,1.422,0,0,0-.534.147l-.011,0A1.513,1.513,0,0,1,274.5,238.336ZM111.382,208.348a.937.937,0,0,0-.663.214,3.373,3.373,0,0,1-2.49.684c-.126,0-.253,0-.378,0a3.449,3.449,0,0,1-2.166,1.15,8.08,8.08,0,0,0-1.086.328,1.608,1.608,0,0,0,.846.241,3.252,3.252,0,0,0,1.006-.214l.025-.008a3,3,0,0,1,.928-.206,1.26,1.26,0,0,1,.255.026,1.27,1.27,0,0,0,.255.025,2.87,2.87,0,0,0,.906-.2,2.825,2.825,0,0,1,.89-.2,1.184,1.184,0,0,1,.774.29c.242-.243.485-.486.76-.762l.029-.029c.164.011.333.016.505.016a15.64,15.64,0,0,0,4.349-.835c.841-.246,1.708-.5,2.579-.661a28.154,28.154,0,0,0,3.02-.8c.887-.27,1.8-.549,2.732-.742,1.105-.23,2.217-.536,3.291-.831.873-.24,1.771-.487,2.662-.693.787-.183,1.574-.414,2.335-.638a28.839,28.839,0,0,1,3.46-.863,20.127,20.127,0,0,0,2.074-.5c.633-.175,1.285-.354,2-.5a2.606,2.606,0,0,0-.986-.192,4.538,4.538,0,0,0-1.123.175l-.047.012a4.1,4.1,0,0,1-.984.165q-.058,0-.116,0-.079-.005-.156-.005a4.409,4.409,0,0,0-1.288.253l-.02.006a4.384,4.384,0,0,1-1.256.248,2.172,2.172,0,0,1-.3-.021,1.054,1.054,0,0,0-.15-.011,2.213,2.213,0,0,0-.933.292l-.028.013a2.394,2.394,0,0,1-1.016.3,1.411,1.411,0,0,1-.676-.179l-.4.516-.3.386c-.205,0-.41-.017-.608-.034s-.372-.032-.547-.032a1.491,1.491,0,0,0-.59.1,13.911,13.911,0,0,1-2.367.686c-.541.122-1.1.249-1.638.419a16.723,16.723,0,0,1-3.881.864,9.325,9.325,0,0,0-1.591.283,7.926,7.926,0,0,1-1.822.288,3.522,3.522,0,0,1-.666-.061.48.48,0,0,0-.091-.009.693.693,0,0,0-.41.181,1.15,1.15,0,0,1-.222.139,7.521,7.521,0,0,1-1.5.454,1.561,1.561,0,0,0-.416.182,1.376,1.376,0,0,1-.623.225.65.65,0,0,1-.518-.295,1,1,0,0,1-.873.4c-.129,0-.258-.011-.384-.022S111.5,208.348,111.382,208.348ZM74.453,167.429h0l-.357.149-.967.4a2.689,2.689,0,0,0-.088,1.1,2.444,2.444,0,0,1-.18,1.345c-.1.2-.215.4-.323.587a7.527,7.527,0,0,0-.789,1.723,1.123,1.123,0,0,1-.409.472c-.189.155-.367.3-.37.463a7.078,7.078,0,0,1-.743,2.66,7.566,7.566,0,0,0-.741,2.505,5.431,5.431,0,0,1-.338,1.383,4.734,4.734,0,0,0-.352,1.724,4.71,4.71,0,0,1-.251,1.476,3.593,3.593,0,0,0-.173,1.967.96.96,0,0,0,.119.24c.023.037.045.073.065.111l.027,0,.032,0,.608.039c0-.164-.009-.311-.018-.453a2.059,2.059,0,0,1,.032-.712c.062-.2.126-.407.19-.61a9.885,9.885,0,0,0,.651-3.512c.577-.307.572-.823.568-1.323a2.366,2.366,0,0,1,.072-.749c.5-1.535,1.05-3.09,1.577-4.594.724-2.066,1.473-4.2,2.16-6.4ZM59.859,162.7a.485.485,0,0,0-.445.216l.146.163.01.011.3.336a3.583,3.583,0,0,0-1.672,1.944,4.33,4.33,0,0,1-1.235,1.7,6.045,6.045,0,0,1-.781,2,9.1,9.1,0,0,0-.591,1.253c-.465,1.319-.823,2.7-1.169,4.042l-.083.321a8.561,8.561,0,0,0-.109,2.6c.023.416.047.845.047,1.278a5.568,5.568,0,0,0,1.467-2.572,8.281,8.281,0,0,1,.629-1.5,22.866,22.866,0,0,0,1.728-4.165,14.6,14.6,0,0,1,.948-2.072,14.91,14.91,0,0,0,.938-2.039c.1-.292.2-.592.292-.882a16.324,16.324,0,0,1,1.424-3.438,1.28,1.28,0,0,0-.915.506,1.673,1.673,0,0,1-.221.217.542.542,0,0,1-.345.1c-.058,0-.117,0-.175-.009S59.919,162.7,59.859,162.7ZM135.214,54.2c-.2.337-.385.677-.567,1.006a21.054,21.054,0,0,1-1.281,2.12,7.712,7.712,0,0,0-.88,1.836,7.3,7.3,0,0,1-.926,1.894,8.666,8.666,0,0,1-.859,3.472c-.2.486-.4.988-.551,1.491a43.534,43.534,0,0,1-1.811,4.994,6.729,6.729,0,0,0-.828,3.74c.044-.087.086-.178.127-.265a5.162,5.162,0,0,1,.32-.609c.171-.265.353-.532.529-.79l.136-.2a6.358,6.358,0,0,0,.727-1.686,7.283,7.283,0,0,1,.563-1.412,22.985,22.985,0,0,0,1.562-3.673c.169-.472.342-.956.525-1.428.417-1.079.765-2.2,1.1-3.287a35.685,35.685,0,0,1,1.708-4.711c.052-.111.113-.226.178-.347A2.038,2.038,0,0,0,135.214,54.2ZM132.433,41.88c-.473,0-.681.406-.865.764-.483.937-1.127,2.156-1.832,3.278-.412.655-.771,1.344-1.119,2.01-.286.548-.58,1.112-.9,1.652q-.356.6-.714,1.2c-.466.782-.949,1.59-1.419,2.4a54.511,54.511,0,0,0-2.913,6.118l0,.012c-.344.809-.7,1.645-1.067,2.46l-.423.941c-.948,2.11-1.928,4.292-2.958,6.408-.043.089-.088.179-.134.269a3.609,3.609,0,0,0-.523,2.549c.327-.629.671-1.232,1-1.816A20.554,20.554,0,0,0,120.4,66.34a44.718,44.718,0,0,1,2.211-5.263c.526-1.116,1.069-2.268,1.54-3.43a13.1,13.1,0,0,1,1.9-3.463,5.607,5.607,0,0,0,.834-1.623,4.148,4.148,0,0,1,1.258-2.008,55.054,55.054,0,0,1,4.446-7.329,1.042,1.042,0,0,0,.077-1.315,1.021,1.021,0,0,0-.233-.029Zm-5.966-7.934c-.3.3-.573.547-.842.791a6.748,6.748,0,0,0-1.267,1.364,111.667,111.667,0,0,0-5.611,9.809c-1.12,2.285-2.4,4.534-3.644,6.709l-.33.578q-.221.388-.446.777a42.545,42.545,0,0,0-2.257,4.293c-.427.991-.886,1.981-1.33,2.939-.613,1.323-1.247,2.691-1.8,4.067a.391.391,0,0,0,.037.254A.618.618,0,0,1,109,65.6a.333.333,0,0,0,.327.19c.045,0,.094,0,.145-.008h.012c.048,0,.106-.009.171-.009l.074,0a3.374,3.374,0,0,1,.512-1.866c.145-.284.273-.594.4-.894a5.173,5.173,0,0,1,.962-1.707,2.877,2.877,0,0,0,.628-1.189,2.018,2.018,0,0,1,.969-1.378c.26-.585.52-1.183.77-1.761l.006-.009h0c.569-1.313,1.158-2.671,1.8-3.976q.391-.792.776-1.589a68.208,68.208,0,0,1,3.526-6.628c.7-1.105,1.43-2.214,2.139-3.286,1.171-1.772,2.383-3.6,3.469-5.475.044-.076.09-.152.136-.228A3.622,3.622,0,0,0,126.466,33.946Zm-12.913.622c-.148,0-.3.007-.338.1s.052.285.3.574c.095.112-.053.253-.239.431a1.368,1.368,0,0,0-.531.851,1.643,1.643,0,0,1-1.424,1.527c-.059.013-.1.093-.142.163a.8.8,0,0,1-.047.078l.245.309.233.293a18.415,18.415,0,0,0-3,4.8c-.161.328-.318.65-.479.97-.318.63-.665,1.229-1.034,1.863a18.835,18.835,0,0,0-2.077,4.461,2.322,2.322,0,0,0,1.793-1.546l.083-.26a12.176,12.176,0,0,1,1.085-2.659l.052-.085a6.306,6.306,0,0,0,.948-2.079,1.806,1.806,0,0,1,.651-.9,1.979,1.979,0,0,0,.735-1.076c.009-.059.068-.106.131-.156a.352.352,0,0,0,.135-.155,11.892,11.892,0,0,1,1.618-3.3c.36-.574.732-1.168,1.038-1.783a6.512,6.512,0,0,1,1.73-2.284,3.354,3.354,0,0,0,.735-.908,2.335,2.335,0,0,1,1.29-1.192,14.582,14.582,0,0,1,1.773-2.324A10.831,10.831,0,0,0,121.034,27a10.808,10.808,0,0,0,1.675-2.139,9.088,9.088,0,0,1,2.1-2.484,1.8,1.8,0,0,1,.5-.908,1.52,1.52,0,0,0,.493-1.4,1.243,1.243,0,0,0-.452.427,1.672,1.672,0,0,1-.252.29,8.844,8.844,0,0,0-.863.876,3.927,3.927,0,0,1-2.388,1.585,1.283,1.283,0,0,0-.866.869,1.7,1.7,0,0,1-1.373,1.759,16.887,16.887,0,0,1-1.952,2.821,13.365,13.365,0,0,0-2.344,3.72,4.328,4.328,0,0,1-.632,1.054,4.678,4.678,0,0,0-.609.989c-.04.1-.19.11-.347.11h-.166Z" transform="translate(0 0.001)" fill="#ecfcfa"/>
  </g>
</svg>
