<svg xmlns="http://www.w3.org/2000/svg" width="407.453" height="243.042" viewBox="0 0 407.453 243.042">
  <g id="_11" data-name="11" transform="translate(0)">
    <path id="Fill_517" data-name="Fill 517" d="M152.136,243.041A94.469,94.469,0,0,1,135.1,241.2c-10.147-1.884-20.43-3.431-30.95-4.982a257.911,257.911,0,0,1-26.692-5.355,227.057,227.057,0,0,1-25.916-8.347A145.528,145.528,0,0,1,21.4,206.855C13.754,201.565,8.389,196.3,4.52,190.3A25.629,25.629,0,0,1,.026,175.064c.246-5.076,2.234-10.1,5.909-14.93,6-7.89,14.113-12.833,21.257-16.628a94.811,94.811,0,0,1,22.729-8.5A129.787,129.787,0,0,1,73.98,131.73c9.688-.476,19.542-.5,29.072-.532q2.282-.007,4.562-.015a43.723,43.723,0,0,0,9.893-1.561c1.047-.249,2.128-.506,3.2-.733,8.655-1.836,17.22-4,23.715-5.681a38.086,38.086,0,0,0,9.318-3.488,9.811,9.811,0,0,1,1.885-.747,6.218,6.218,0,0,0,2.985-1.617,1.108,1.108,0,0,1,.869-.387,3.759,3.759,0,0,1,1.647.58,2.823,2.823,0,0,0,1.282.431c.595,0,.908-.457.932-1.359A3.425,3.425,0,0,1,166.431,113c.943-.174,1.7-.379,2.107-1.287.052-.119.175-.293.249-.293a3.087,3.087,0,0,0,.322.018,3.487,3.487,0,0,0,2.554-1.468,6.532,6.532,0,0,1,1.162-1.052c1.349-.868,2.7-1.78,4.008-2.663l.01-.006c1.714-1.158,3.486-2.354,5.272-3.462,1.253-.778,2.457-1.672,3.62-2.536.794-.59,1.613-1.2,2.439-1.763.209-.143.424-.284.651-.434a12.975,12.975,0,0,0,2.246-1.719c.537-.557,1.123-1.068,1.691-1.563.431-.376.876-.764,1.293-1.167a28.1,28.1,0,0,1,3.864-2.954,30.844,30.844,0,0,0,3.587-2.689,60.88,60.88,0,0,0,4.845-5.175c.912-1.053,1.854-2.142,2.826-3.173,1.466-1.556,2.933-3.146,4.352-4.683,5.3-5.743,10.779-11.681,16.986-16.692A38.7,38.7,0,0,1,241.7,51.956a47.236,47.236,0,0,1,12.6-2.582,45.255,45.255,0,0,0,9.544-2.108c1.128-.336,2.294-.684,3.454-.994a60.571,60.571,0,0,0,12.324-5.122,16.453,16.453,0,0,0,4.734-4.419c.35-.425.713-.865,1.08-1.288,1.144-1.318,2.282-2.689,3.383-4.014,3.908-4.706,7.943-9.565,13.056-13.108.922-.638,1.856-1.295,2.759-1.929l.021-.015a104.155,104.155,0,0,1,14.321-8.939c7.48-3.612,13.818-5.7,19.944-6.584A80.451,80.451,0,0,1,350.279,0,57.981,57.981,0,0,1,371.73,3.891a57.334,57.334,0,0,1,13.635,7.476A56.842,56.842,0,0,1,398.8,26.074a48.106,48.106,0,0,1,6.408,14.7,75.438,75.438,0,0,1,2.142,15.9,66.034,66.034,0,0,1-.915,15.831c-.177.867-.405,1.759-.626,2.621A36.32,36.32,0,0,0,405,78.8c-.754,5.189-2.956,9.842-5.085,14.342l-.316.669c-2.146,4.546-4.688,9-7.146,13.3l-.858,1.5c-.844,1.48-1.825,2.9-2.773,4.276a41.6,41.6,0,0,0-3.786,6.243,10.146,10.146,0,0,1-1.961,2.575c-.316.336-.643.683-.94,1.035a10.668,10.668,0,0,0-1.428,2.484,12.748,12.748,0,0,1-1.177,2.172c-1.934,2.677-3.84,5.44-5.684,8.111-1.681,2.436-3.419,4.955-5.176,7.406-4.738,6.607-8.881,13.736-12.888,20.63-1.447,2.489-2.942,5.062-4.443,7.573-1.315,2.2-2.63,4.412-3.9,6.553-1.066,1.795-2.275,3.829-3.453,5.8a62.806,62.806,0,0,1-3.609,5.206c-.333.447-.71.954-1.066,1.44a18.376,18.376,0,0,1-2.079,2.231c-.473.456-.963.927-1.395,1.4a17.2,17.2,0,0,1-1.716,1.577,8.675,8.675,0,0,0-3.008,3.675,4.312,4.312,0,0,1-2.776,2.672,5.682,5.682,0,0,0-2.02,1.477,5.613,5.613,0,0,1-2.122,1.521l-8.227,5.918a23.831,23.831,0,0,1-8.286,4.544c-.507.181-1.026.345-1.529.5a12.514,12.514,0,0,0-5.082,2.52,1.62,1.62,0,0,1-.985.541.865.865,0,0,1-.581-.248.748.748,0,0,0-.489-.217.443.443,0,0,0-.443.383c-.154.762-.469,1.1-1.022,1.1a3.3,3.3,0,0,1-.988-.218,1.765,1.765,0,0,0-.532-.112c-.133,0-.217.036-.252.107-.062.127.035.355.289.68-.168.082-.336.17-.5.256a8.635,8.635,0,0,1-1.094.511,240.741,240.741,0,0,1-27.323,8.366,60.41,60.41,0,0,0-8.618,2.9c-1.8.71-3.668,1.443-5.546,2.046-7.67,2.466-16.235,3.924-26.953,4.589-2.44.15-4.925.205-7.328.259-3.057.068-6.212.138-9.286.4-5.629.487-11.36.832-16.9,1.167s-11.251.679-16.865,1.164c-6.981.6-14.063.9-21.31,1.164C153.625,243.028,152.881,243.041,152.136,243.041Zm63.95-15.687c-8.472,0-68.673,2.527-70.922,2.832a31.411,31.411,0,0,0,8.1.984l.093,0c2.063.061,4.2.092,6.366.092,13.941,0,28.031-1.288,41.658-2.533,5.09-.465,10.352-.946,15.533-1.353A6.745,6.745,0,0,0,216.086,227.354Zm-47.4-12.945a30.08,30.08,0,0,0-7.7,1.352c-.953.254-1.938.517-2.915.739.464.034.957.053,1.466.053A41.107,41.107,0,0,0,169.207,215c.569-.139,1.15-.28,1.723-.416A14.259,14.259,0,0,0,168.686,214.409Zm18.481-.866a10.782,10.782,0,0,0-5.482,1.189,29.4,29.4,0,0,1,4.763-.531,27.807,27.807,0,0,0,5.035-.595c-.232.008-.486.012-.771.012-.591,0-1.193-.019-1.776-.038l-.009,0v0c-.578-.018-1.176-.037-1.758-.037ZM313.548,202.59l-5.469,3.021-5.469,3.021c.063.11.124.218.185.328l.055.1a47,47,0,0,0,9.139-4.838l.024-.015c.6-.379,1.227-.77,1.843-1.149Zm-4.186-3.2a1.508,1.508,0,0,0-1.446.705.452.452,0,0,0,0,.415.847.847,0,0,0,.568.487,1.755,1.755,0,0,0,.346.037c.8,0,1.21-.67,1.657-1.546l-.071-.009A9,9,0,0,0,309.362,199.387ZM337.245,173.8c-2.305,2.347-4.671,4.712-6.958,7-6.409,6.407-13.03,13.027-19.068,19.995C321.884,194.868,330.4,186.039,337.245,173.8Zm-317.282,22.9a2.073,2.073,0,0,0-1.117.342c1.423,1.84,2.414,2.627,3.311,2.627.816,0,1.63-.654,2.64-2.12a2.368,2.368,0,0,1-1.213.351,4.075,4.075,0,0,1-1.839-.6l-.028-.014A3.93,3.93,0,0,0,19.964,196.694ZM8.713,182.8h0a3.667,3.667,0,0,0,.182,2.617l.045.124c1.378,3.8,3.987,6.512,7.254,9.666.724.7,1.121,1.028,1.63,1.028a4.885,4.885,0,0,0,1.932-.755c-2.93-.644-5-1.931-5.676-3.529a3.173,3.173,0,0,1,.327-3c-.224-.122-.5-.246-.792-.378-.728-.328-1.55-.7-1.68-1.1a.362.362,0,0,1,.036-.3,1.541,1.541,0,0,0,.294-1.218c-.126-.35-.516-.5-.894-.638a2.141,2.141,0,0,1-.588-.286c-.155-.125-.314-.238-.482-.357A3.678,3.678,0,0,1,8.713,182.8Zm121.054-5.75c-.451.041-.9.074-1.342.105a14.365,14.365,0,0,0-6.092,1.334l.731-.006h.144c2.2-.01,4.475-.02,6.558-1.432Zm3.848-2.48a12.727,12.727,0,0,0-5.862,1.192,6.3,6.3,0,0,1,2.411-.331,6.045,6.045,0,0,0,3.642-.86h-.191Zm27.244-1.478h0a9.7,9.7,0,0,0-5.275,2.131l.276-.024c1.682-.141,3.422-.287,5-2.107ZM33.4,143.05a61.25,61.25,0,0,0-17.441,10.185C22.277,149.227,27.982,145.9,33.4,143.05Zm36.249,4.368v0a3.588,3.588,0,0,0-1.433,1.282c-.036.093-.029.163.019.207a1.115,1.115,0,0,0,.788.3,3.536,3.536,0,0,0,.739-.111l.043-.009a4.039,4.039,0,0,1,.865-.12,2.038,2.038,0,0,1,.523.066,1.626,1.626,0,0,0-.852-.748c-.35-.173-.652-.322-.658-.836,0-.021-.011-.031-.034-.031Zm12.545-.213a.4.4,0,0,1,.284.137,3.318,3.318,0,0,0,1.509.755,3.835,3.835,0,0,1,1.953,1.079,3.354,3.354,0,0,0-.305-1.2c-.141-.358-.264-.667-.165-.878a.481.481,0,0,1,.312-.235.921.921,0,0,1,.283-.051c.393,0,.532.359.693.775a1.589,1.589,0,0,0,.757,1.017,1.526,1.526,0,0,1,1.641-1.439,3.391,3.391,0,0,1,.528.045,10.333,10.333,0,0,0,1.622.126,21.387,21.387,0,0,0,6.246-1.262c.769-.237,1.564-.482,2.351-.688a36.366,36.366,0,0,1,5.881-.962,65.752,65.752,0,0,0,6.874-1.132c1.044-.211,2.121-.428,3.179-.615,3.645-.645,7.5-1.482,11.779-2.56.62-.156,1.273-.262,1.9-.365a9.033,9.033,0,0,0,4.686-1.7l.072.011.022-.042c1.8-.012,2.92-.3,3.526-.917a2.248,2.248,0,0,0,.576-1.683h0a6.235,6.235,0,0,1-1.717.889,4.071,4.071,0,0,0-2.385,1.711h-.059l-.035.03-.35-.058a13.177,13.177,0,0,0-2.14-.239,4.338,4.338,0,0,0-2.5.712.883.883,0,0,1-.493.139,2.828,2.828,0,0,1-1.229-.413,2.231,2.231,0,0,0-1.057-.26,2.132,2.132,0,0,0-1.509.586,1.931,1.931,0,0,1-1.564.653c-.145,0-.293-.008-.436-.015l-.062,0c-.126-.006-.255-.012-.383-.012h-.145a4.512,4.512,0,0,1-.648-.063,4.536,4.536,0,0,0-.648-.063,1.863,1.863,0,0,0-.435.048,47.178,47.178,0,0,1-7.771.945c-1.917.125-3.9.255-5.828.564a9.517,9.517,0,0,1-1.468.091c-.157,0-.315,0-.473,0h-.03c-.181,0-.362,0-.544,0a5.772,5.772,0,0,0-3.069.664,2.929,2.929,0,0,0-.529.456c-.286.288-.582.585-.919.585a.653.653,0,0,1-.344-.1c-.33-.2-.194-.485-.036-.815.178-.371.379-.792-.017-1.211a6.854,6.854,0,0,1-5.475,3.007h-.181a8.78,8.78,0,0,0-1.5.181l-.009,0a8.763,8.763,0,0,1-1.529.185,2.693,2.693,0,0,1-2.538-1.593c.457.823.584,1.4.4,1.814-.166.377-.591.635-1.338.813-.93.221-1.891.35-2.82.474-.825.111-1.676.225-2.5.4a11.882,11.882,0,0,0-1.388.423,7.072,7.072,0,0,1-2.269.527,3.058,3.058,0,0,1-.508-.042,2.433,2.433,0,0,0-.4-.034,5.024,5.024,0,0,0-1.937.542l-.011,0a5.009,5.009,0,0,1-1.916.536,2.448,2.448,0,0,1-1.34-.408.274.274,0,0,0-.149-.04.581.581,0,0,0-.455.284.813.813,0,0,0,0,.815,2.123,2.123,0,0,0,1.894.993,1.886,1.886,0,0,0,1.22-.4,3.283,3.283,0,0,1,2.053-.59A3.1,3.1,0,0,0,79,147.455c.321.573.656.851,1.027.851a2.034,2.034,0,0,0,1.067-.515,3.811,3.811,0,0,1,.674-.426c.037-.016.074-.035.112-.055A.693.693,0,0,1,82.193,147.2Zm81.3-4.779a127.527,127.527,0,0,0-15.865,4.3c5.28-.34,10.857-1.093,15.865-4.3Z" transform="translate(0 0)" fill="rgba(251,93,100,0.2)"/>
  </g>
</svg>
