<svg xmlns="http://www.w3.org/2000/svg" width="206.67" height="40" viewBox="0 0 206.67 40">
  <g id="Facebook_Logo__2019_" data-name="Facebook_Logo_(2019)" transform="translate(-0.5 -0.5)">
    <path id="Path_544" data-name="Path 544" d="M13.593,39.884H5.805V20.47H.5V14.15H5.8v-4.5C5.8,4.322,8.151.5,15.918.5c1.643,0,4.221.331,4.221.331V6.7H17.43c-2.76,0-3.837.839-3.837,3.16V14.15h6.443l-.574,6.321H13.593ZM31.461,13.644c-.113,0-.23,0-.346.007-7.221,0-10.525,5.432-10.525,13.142,0,9.713,4.286,13.6,10.581,13.6,3.6,0,5.969-1.516,7.407-4.345v3.837h7.407V14.152H38.579V18.11A7.591,7.591,0,0,0,31.461,13.644Zm1.883,6.081c3.033,0,4.853,2.115,4.853,5.714l.007,3.675c0,2.425-1.5,5.263-4.86,5.263-5.161,0-5.023-5.572-5.023-7.428,0-6.243,2.75-7.224,5.023-7.224Zm15.633,7.3c0-3.127-.15-13.359,13.181-13.359,5.351,0,7.586,1.7,7.586,1.7l-1.8,5.57A11.722,11.722,0,0,0,62.809,19.7c-3.724,0-6.1,2.159-6.1,5.958l0,2.724a5.684,5.684,0,0,0,6.1,6.087,12.766,12.766,0,0,0,5.091-1.24L69.7,38.686S67.656,40.4,62.2,40.4c-12.693,0-13.219-9.18-13.219-13.378Zm64.2-13.369c7.221,0,10.577,5.432,10.577,13.142,0,9.713-4.286,13.6-10.582,13.6-3.6,0-6.265-1.516-7.7-4.345v3.837l-7.314,0V1.282l7.765-.677V17.761c1.121-3,4.8-4.11,7.256-4.11ZM111,19.725c-3.033,0-5.079,2.115-5.079,5.714l-.007,3.675c0,2.425,1.417,5.263,5.086,5.263,5.161,0,5.023-5.572,5.023-7.428,0-6.243-2.749-7.224-5.023-7.224Zm-27.78-6.053c-8.19,0-12.514,4.466-12.514,12.4v1.474c0,10.3,6.072,12.952,13.311,12.952,7.036,0,10.222-1.968,10.222-1.968l-1.453-5.241a22.658,22.658,0,0,1-7.837,1.594c-4.241,0-6.065-1.081-6.532-5.156H94.858v-4.2c0-8.608-4.853-11.851-11.64-11.851Zm.2,5.248c2.835,0,4.672,1.739,4.571,5.77H78.429c.166-4.244,2.147-5.77,4.987-5.77Zm55.82-5.284c-8.411,0-12.839,4.74-12.839,13.234,0,11.654,7.633,13.53,12.853,13.53,7.642,0,12.726-4.114,12.726-13.424,0-9.69-5.716-13.34-12.74-13.34Zm-.106,6.109c3.7,0,5.164,2.768,5.164,5.919v2.709c0,3.817-2.051,6.024-5.178,6.024-2.925,0-4.98-2.065-4.98-6.024V25.665C134.136,21.442,136.582,19.746,139.13,19.746Zm28.316-6.109c-8.411,0-12.839,4.74-12.839,13.234,0,11.654,7.633,13.53,12.853,13.53,7.642,0,12.726-4.114,12.726-13.424,0-9.69-5.717-13.34-12.74-13.34Zm-.106,6.109c3.7,0,5.164,2.768,5.164,5.919v2.709c0,3.817-2.051,6.024-5.178,6.024-2.925,0-4.98-2.065-4.98-6.024V25.665C162.346,21.442,164.792,19.746,167.34,19.746Zm15.78,20.137V1.282l7.788-.677V26.478l7.727-12.329h8.225L198.8,26.918l8.371,12.965h-8.248l-8.014-12.589V39.884Z" fill="#ccc"/>
  </g>
</svg>
