<svg xmlns="http://www.w3.org/2000/svg" width="260.887" height="40" viewBox="0 0 260.887 40">
  <g id="Samsung_wordmark" transform="translate(-2.013 -1.852)">
    <path id="S" d="M19.33,29.967a4.881,4.881,0,0,1,.07,2.758c-.306,1.243-1.147,2.513-3.633,2.513-2.329,0-3.747-1.348-3.747-3.379V28.242H2.013v2.872c0,8.317,6.54,10.829,13.552,10.829,6.741,0,12.291-2.294,13.176-8.518a18.219,18.219,0,0,0-.035-6.111C27.13,19.505,12.983,17.176,11.924,12.808a4.78,4.78,0,0,1-.035-1.961,3.073,3.073,0,0,1,3.406-2.5,3.171,3.171,0,0,1,3.458,3.379v2.311h9.306V11.407c0-8.124-7.293-9.394-12.563-9.394-6.636,0-12.055,2.2-13.044,8.282a13.006,13.006,0,0,0,.088,5.025C4.158,22.937,17.4,25.143,19.33,29.967" transform="translate(0 -0.091)" fill="#ccc"/>
    <path id="Path_545" data-name="Path 545" d="M84.835,4.74,77.919,42.026H88L93.1,8.19h.21l4.964,33.836H108.3L101.425,4.731Zm56.336,0-4.6,28.5h-.219l-4.587-28.5H116.561l-.823,37.286h9.332L125.3,8.5h.21l6.225,33.521H141.2L147.43,8.513h.2l.236,33.513h9.324l-.823-37.295Z" transform="translate(-42.9 -1.627)" fill="#ccc"/>
    <path id="Path_546" data-name="Path 546" d="M19.33,29.967a4.881,4.881,0,0,1,.07,2.758c-.306,1.243-1.147,2.513-3.633,2.513-2.329,0-3.747-1.348-3.747-3.379V28.242H2.013v2.872c0,8.317,6.54,10.829,13.552,10.829,6.741,0,12.291-2.294,13.176-8.518a18.219,18.219,0,0,0-.035-6.111C27.13,19.505,12.983,17.176,11.924,12.808a4.78,4.78,0,0,1-.035-1.961,3.073,3.073,0,0,1,3.406-2.5,3.171,3.171,0,0,1,3.458,3.379v2.311h9.306V11.407c0-8.124-7.293-9.394-12.563-9.394-6.636,0-12.055,2.2-13.044,8.282a13.006,13.006,0,0,0,.088,5.025C4.158,22.937,17.4,25.143,19.33,29.967" transform="translate(121.225 -0.161)" fill="#ccc"/>
    <path id="Path_547" data-name="Path 547" d="M375.577,35.132a3.352,3.352,0,0,0,3.572-2.7,8.163,8.163,0,0,0,.088-1.427V3.432h9.437V30.159q0,1.227-.088,2.451c-.657,6.96-6.154,9.219-13.009,9.219s-12.361-2.259-13.018-9.219c-.026-.368-.1-1.768-.088-2.451V3.423h9.437V31A7.444,7.444,0,0,0,372,32.436a3.349,3.349,0,0,0,3.581,2.7m45.594-31.7.508,29.267h-.2L412.9,3.432H399.066V40.323h9.166l-.508-30.282h.2l9.2,30.282h13.281V3.432Zm32.173,31.315c2.7,0,3.642-1.707,3.808-2.714a8.025,8.025,0,0,0,.088-1.4V25.2h-3.826V19.776h13.211v10a23.094,23.094,0,0,1-.131,2.451c-.613,6.794-6.5,9.219-13.114,9.219s-12.493-2.425-13.114-9.219c-.105-1.243-.131-1.751-.131-2.451V14.086c0-.665.088-1.838.158-2.451.832-6.977,6.478-9.219,13.088-9.219s12.405,2.224,13.088,9.21a21.742,21.742,0,0,1,.088,2.451v1.252h-9.4V13.237a8.842,8.842,0,0,0-.114-1.418c-.175-.823-.875-2.714-3.729-2.714a3.444,3.444,0,0,0-3.712,2.714,8.434,8.434,0,0,0-.158,1.76V30.623a9.206,9.206,0,0,0,.088,1.418c.175,1,1.121,2.705,3.817,2.705" transform="translate(-203.725 -0.319)" fill="#ccc"/>
  </g>
</svg>
