<svg xmlns="http://www.w3.org/2000/svg" width="585.391" height="559.311" viewBox="0 0 585.391 559.311">
  <g id="_44" data-name="44" transform="matrix(0.602, 0.799, -0.799, 0.602, 379.307, -0.003)">
    <path id="Fill_217" data-name="Fill 217" d="M108.154,474.944a128.587,128.587,0,0,1-15.186-.9c-11.376-1.356-23.375-3.487-34.054-9.849C41.8,453.989,28.45,440.6,19.237,424.4a13.947,13.947,0,0,0-.975-1.418c-.095-.126-.188-.251-.281-.377-3.718-5.057-7.413-10.659-9.268-17.35a55.843,55.843,0,0,0-3.667-9.333c-3.9-8.128-3.9-16.986,0-27.079,3.1-8.018,8.157-15.526,15.924-23.628a49.121,49.121,0,0,0,9.878-14.821,58.667,58.667,0,0,0,4.294-17.153c1.225-11.473-.827-22.666-2.812-33.49-.466-2.541-.919-5.12-1.358-7.614l0-.016c-.736-4.188-1.5-8.518-2.334-12.76-2.232-11.3-7.6-21.454-12.34-30.415A159.72,159.72,0,0,1,1.343,188.756c-2.452-11.149-1.543-22.765,2.7-34.525,2.859-7.907,6.008-13.427,10.208-17.9,4.8-5.113,9.573-10.035,15.2-14.05,12.734-9.084,27.3-16.111,44.535-21.483a246.126,246.126,0,0,0,26.683-9.726,129.275,129.275,0,0,0,24.7-14.035A394.1,394.1,0,0,0,158.33,49.823c8.258-7.579,15.308-13.532,22.185-18.737a173.085,173.085,0,0,1,24.442-15.67A157.28,157.28,0,0,1,230.486,4.462,89.457,89.457,0,0,1,257.762,0c.242,0,.482,0,.724,0,14.838.135,28.243,2.93,39.842,8.306A81.1,81.1,0,0,1,329.641,34.24,64.468,64.468,0,0,1,341.5,62.321a85.633,85.633,0,0,1-1.034,30.669c-.772,3.837-1.539,7.593-2.426,11.36a76.279,76.279,0,0,1-12,26.753c-1.766,2.491-3.632,4.965-5.437,7.358-1.643,2.178-3.337,4.423-4.944,6.667a165.445,165.445,0,0,1-12.932,15.526,169.859,169.859,0,0,0-14.405,18.2,17.221,17.221,0,0,1-2.59,2.738,15.923,15.923,0,0,0-2.911,3.2q-.93,1.477-1.864,2.95c-4.982,7.868-10.134,16-13.734,24.823l-.283.692c-2.131,5.207-4.144,10.124-4.556,15.887-.124,1.745-.14,3.513-.155,5.222-.017,1.91-.034,3.884-.2,5.822-.461,5.241.392,10.477,1.217,15.54l.122.748c.214,1.313-.727,2.474-1.29,3.168-.256.316-.441.544-.407.65a.092.092,0,0,0,.072.057,2.138,2.138,0,0,1,1.473.894,1.961,1.961,0,0,1-.233,1.573,2.77,2.77,0,0,0-.315,1.135,3.486,3.486,0,0,1-.145.964,2.478,2.478,0,0,0-.108,1.159c1.988,8.066,1.883,16.387,1.781,24.434-.037,2.9-.075,5.906-.014,8.848.034,1.6.085,3.242.134,4.826.269,8.619.547,17.531-1.8,26.048-.464,1.682-.878,3.414-1.278,5.089-.476,1.992-.968,4.051-1.549,6.046-.458,1.569-1.062,3.128-1.647,4.636a31.348,31.348,0,0,0-2.408,8.519c-.416,4.844-2.385,9.177-4.29,13.367-.644,1.416-1.309,2.879-1.906,4.344a1.32,1.32,0,0,1-.581.518c-.1.063-.208.128-.3.2l-.158.434c-2.093,5.731-4.258,11.657-8.6,16.487a44.3,44.3,0,0,0-6.629,10.253,5.07,5.07,0,0,1-1.329,1.584,5.317,5.317,0,0,0-1.174,1.318,28.3,28.3,0,0,0-1.615,3.553,20.929,20.929,0,0,1-2.553,5q-1.136,1.51-2.269,3.022c-3.715,4.952-7.553,10.068-11.5,14.983-1.233,1.532-2.453,3.119-3.633,4.654-1.822,2.37-3.706,4.82-5.68,7.125-5.557,6.492-12.879,11.468-22.383,15.21-2.463.97-4.949,1.971-7.353,2.94-7.33,2.953-14.909,6.007-22.543,8.446A139.518,139.518,0,0,1,108.154,474.944Zm5.641-13.665c.656,0,1.321.018,1.964.036s1.311.036,1.965.036a22.082,22.082,0,0,0,2.3-.1c8.161-.837,16.348-2.388,24.265-3.887l.792-.15c9.337-1.768,18.27-5.257,26.909-8.631l.014-.005c2.77-1.082,5.635-2.2,8.469-3.245,6.693-2.467,11.068-5.387,14.187-9.471A194.588,194.588,0,0,0,223.327,384.3c3.1-8.439,6.787-16.82,10.353-24.926,2.762-6.279,5.618-12.772,8.185-19.253a125.493,125.493,0,0,0,8.08-33.1A174.864,174.864,0,0,0,250.5,286.7c-.032-2.689-.065-5.467-.046-8.2.013-1.833.015-3.7.018-5.5.007-5.9.015-11.983.391-17.987a61.514,61.514,0,0,0-.742-11.4c-.232-1.822-.471-3.7-.626-5.545-1.005-12.009-.282-21.1,2.346-29.49a123.256,123.256,0,0,1,11.293-25.443c10.119-17.265,22.861-32.288,33.991-44.708,6.463-7.209,13.245-14.962,18.889-23.5a87.354,87.354,0,0,0,14.726-51.1c-.333-14.557-6.779-25.777-19.16-33.347A97.2,97.2,0,0,0,289.8,20.453a76.509,76.509,0,0,0-22.662-3.5,79.388,79.388,0,0,0-24.779,4.1c-18.169,5.968-35.025,15.4-51.532,28.836-4.905,3.993-9.671,8.3-14.279,12.46-4.486,4.052-9.125,8.242-13.888,12.14-12.684,10.389-26.374,21.15-41.981,28.53-12.41,5.866-25.731,9.99-37.242,13.4a140.82,140.82,0,0,0-30.866,13.182c-12.292,7.147-21.226,15.751-27.312,26.3-.769,1.34-.8,1.341-2.518,1.377h-.071c-.426.008-.537.288-.654.585-.031.078-.063.158-.1.234a23.622,23.622,0,0,0-2.762,10.416,25.093,25.093,0,0,0,.224,2.963c.208,1.833.405,3.562-.143,4.335-2.126,2.985-1.364,5.953-.691,8.572.207.8.4,1.564.518,2.31a89.809,89.809,0,0,0,2.93,12.3c2.557,8.367,6.2,19.284,11.754,29.523,4.972,9.173,9.194,17.532,10.493,26.944a10.3,10.3,0,0,0,.852,2.537c.923,2.147,1.878,4.366-.695,6.5h0a.3.3,0,0,1,.039.041,4.5,4.5,0,0,1,.325.407,19.126,19.126,0,0,1,3.04,9.744,30.285,30.285,0,0,0,.732,4.825,29.977,29.977,0,0,1,.724,4.769,48.254,48.254,0,0,0,.686,5.595c.532,3.275,1.082,6.661.362,10.111a30.221,30.221,0,0,0-.4,6.313c0,.421.005.842,0,1.26a49.143,49.143,0,0,1-1.121,8.957,58.155,58.155,0,0,0-1.092,7.678,13.676,13.676,0,0,1-1.81,4.811c-.41.8-.835,1.626-1.165,2.412-2.827,6.726-7.432,12.309-11.886,17.709-1.295,1.57-2.632,3.191-3.908,4.819q-.74.945-1.493,1.888c-4.866,6.128-9.9,12.464-10.409,20.938-.051.847-.148,1.717-.242,2.559-.328,2.939-.668,5.978.839,8.719,1.88,3.415,3.466,7.055,5,10.575,2.733,6.273,5.559,12.759,10.153,18.213,2.105,2.5,3.981,5.248,5.8,7.9,3,4.391,6.1,8.931,10.337,12.518,1.226,1.039,2.463,2.11,3.658,3.145,5.29,4.582,10.76,9.321,17.028,12.714l.167.09c3.684,2,7.494,4.059,11.858,5.02A136.736,136.736,0,0,0,111.4,461.3C112.19,461.3,113,461.29,113.795,461.279ZM238.81,356.052h0a103.33,103.33,0,0,1-6.307,15.316,103.913,103.913,0,0,0-6.036,14.517c2.052-1.446,5.615-8.4,8.233-14.654,2.441-5.83,4.983-13.3,4.109-15.18Zm12.922,7.353c-.617,1.311-1.282,2.623-1.925,3.893-1.888,3.724-3.84,7.575-4.776,11.806L246.8,376l.084-.147,1.64-2.883-.013.016a12.766,12.766,0,0,1,1.593-4.567A12,12,0,0,0,251.732,363.406ZM9.075,367.754a19.011,19.011,0,0,0-3.08,10.6c.8-2.237,1.421-4.56,2.026-6.805C8.356,370.3,8.7,369.013,9.075,367.754Zm2.263-218.334a1.412,1.412,0,0,0-.266.027,2.274,2.274,0,0,0-2.025,2.306.789.789,0,0,0,.158.6.643.643,0,0,0,.493.171,1.843,1.843,0,0,0,.319-.031,3.5,3.5,0,0,0,2.207-1.754c.059-.083.118-.165.177-.246C12.208,149.772,11.861,149.419,11.338,149.419ZM31.186,127.1a51.5,51.5,0,0,0-16.022,16.177C19.676,138.415,24.768,133.275,31.186,127.1ZM144.9,68.359l-.349.262c-8.563,6.434-17.418,13.087-26.718,18.792a4.219,4.219,0,0,0-.621.506c-.1.091-.2.181-.3.266C128.06,83.145,137.314,75.335,144.9,68.359Zm29.682-6.54c-1.1,1-2.292,1.939-3.447,2.843a30.7,30.7,0,0,0-6.191,5.854l-.2.126-.1.125a15.057,15.057,0,0,0-5.352,4.117c-.331.346-.671.7-1.012,1.043a20.373,20.373,0,0,0,6.363-5.16c.052-.02.1-.036.139-.051l.026-.009q.068-.1.137-.191c3.73-2.367,6.734-5.585,9.639-8.7Zm72.4-56.55h0c-.313.045-.62.087-.922.128l-.015,0c-.662.09-1.286.175-1.915.284-10.58,1.84-21.209,5.628-34.462,12.28-.5.253-1.028.5-1.533.74-2.206,1.043-4.484,2.12-6.139,4.087l-.144.042-.026.037-.025.035a10.143,10.143,0,0,0-4.925,2.283,15.407,15.407,0,0,1-3.071,1.834,1.131,1.131,0,0,0-.273,1.865.808.808,0,0,0,.507.281.268.268,0,0,0,.247-.16,8.789,8.789,0,0,1,3.96-3.376,10.054,10.054,0,0,0,3.555-2.725l.017,0c.028,0,.055,0,.082,0l.064-.068.033-.039c.145-.04.284-.075.422-.11a5.313,5.313,0,0,0,1.189-.4A171.511,171.511,0,0,1,245.4,6.191c.087-.021.18-.037.275-.054a1.43,1.43,0,0,0,1.3-.868Z" transform="translate(0.003 0.002)" fill="#fb5d64"/>
    <path id="Fill_219" data-name="Fill 219" d="M63.461,397.986A86.522,86.522,0,0,1,42.9,395.153a56.791,56.791,0,0,1-20.533-9.809,42.616,42.616,0,0,1-6.228-6.073l-.025-.027A66.134,66.134,0,0,1,.792,350.508a26.941,26.941,0,0,1,2.86-20c.1-.186.2-.379.306-.574.746-1.428,1.515-2.9,3.728-2.9a5.651,5.651,0,0,1,.675.043,1.054,1.054,0,0,0,.126.008c1.108,0,2.181-1.7,3.127-3.2.168-.266.324-.513.474-.741A188.853,188.853,0,0,0,30.3,287.441c4.552-11.807,9.446-25.876,11.24-40.7,1.091-9.031.249-18.586-2.652-30.072-2.1-8.3-6.474-15.029-10.892-21.062-1.887-2.579-3.7-5.279-5.449-7.89-1.542-2.3-3.135-4.675-4.776-6.962-.8-1.118-.436-1.968.03-3.043a8.394,8.394,0,0,0,.662-2.014c-.919,1.249-1.459,1.757-1.859,1.757-.465,0-.76-.688-1.191-1.82a25.464,25.464,0,0,0-2.295-4.242c-.4-.647-.822-1.316-1.2-1.984a29.321,29.321,0,0,1-4.02-14.3,9.938,9.938,0,0,0-.41-2.4,7.205,7.205,0,0,1-.344-2.874c.081-.572.153-1.155.222-1.719a31.74,31.74,0,0,1,.9-5.04c.139-.473.272-.951.4-1.413.933-3.349,1.9-6.813,5.2-9.108.512-.356.625-1.093.744-1.873a4.266,4.266,0,0,1,.86-2.355c.823-.884,1.653-1.793,2.454-2.671,4.13-4.526,8.393-9.2,13.68-12.564a310.5,310.5,0,0,1,47.286-24.6c13.537-5.638,23.55-11.9,31.51-19.721C122.715,56.682,136.374,44.5,152.16,31.526s30.118-21.519,45.111-26.9A80.891,80.891,0,0,1,219.027.073c.7-.048,1.41-.073,2.1-.073a25.75,25.75,0,0,1,12.818,3.306,33.556,33.556,0,0,1,9.936,8.95,57.576,57.576,0,0,1,11.237,24.609,64.073,64.073,0,0,1-1.122,27.051,141.282,141.282,0,0,1-14.007,36.006l-.5.89-.025.045c-2.767,4.911-5.627,9.988-10.287,13.791a17.936,17.936,0,0,0-3.768,5.072c-.53.917-1.077,1.864-1.676,2.727-3.061,4.409-6.571,8.579-9.965,12.611-3.492,4.149-7.1,8.436-10.234,13-1.677,2.443-3.221,5.007-4.713,7.487-.956,1.588-1.944,3.23-2.958,4.824-4.611,7.251-8.084,15.236-11.442,22.958-.763,1.754-1.551,3.566-2.342,5.347-3.723,8.379-5.094,17.648-6.419,26.611l-.012.079c-1.574,10.66-3.1,20.269-4.651,29.377-.177,1.036-.347,2.1-.512,3.121l0,.016a69.355,69.355,0,0,1-3.132,13.624,33.359,33.359,0,0,0-1.34,5.068,27.16,27.16,0,0,1-1.776,6.082,7.539,7.539,0,0,0-.519,2.473c-.142,1.47-.289,2.989-1.8,4.051-.026-.158-.041-.312-.056-.46-.057-.57-.106-1.062-.711-1.367a5.354,5.354,0,0,1-.2.871c-.253.867-.491,1.685.676,2.459.689.455.357,1.138.064,1.74a4.481,4.481,0,0,0-.242.556c-2.156,6.736-4.295,13.639-6.13,19.581-.576,1.868-1.2,3.759-1.8,5.589-1.4,4.265-2.842,8.666-3.847,13.112a35.581,35.581,0,0,1-2.272,6.292c-.4.911-.8,1.85-1.169,2.788a11.315,11.315,0,0,0-.995,4.208c0,1.786-.067,2.568-.711,2.568a6.367,6.367,0,0,1-2.332-1.037.887.887,0,0,0-.436-.08l-.148,0h-.026c-.065,0-.131,0-.2,0s-.111,0-.168,0a3.236,3.236,0,0,1-.023.333.931.931,0,0,0,.038.546,8.441,8.441,0,0,1-.7,9.468,17.556,17.556,0,0,0-3.276,6.328c-.79,3.277-2.85,6.2-6.483,9.2a1.011,1.011,0,0,1-.371.155c-.261.073-.531.148-.549.489-.135,2.49-1.787,3.955-3.385,5.371-.391.347-.793.7-1.164,1.067a30.26,30.26,0,0,1-2.486,2.108,23.344,23.344,0,0,0-3.22,2.879,37.336,37.336,0,0,1-10.1,8.273A20.359,20.359,0,0,0,107.2,383.8a15.27,15.27,0,0,1-3.438,2.169c-2.917,1.143-5.86,2.359-8.706,3.535-4.5,1.861-9.153,3.782-13.822,5.467A51.508,51.508,0,0,1,63.461,397.986Zm-30.9-213.551c.188,0,.329.187.478.385.054.071.108.143.163.2a2.9,2.9,0,0,1,.591,1.334,2.77,2.77,0,0,0,.89,1.663,13.863,13.863,0,0,1,4.3,6.06,11.6,11.6,0,0,0,2.9,3.712,24.882,24.882,0,0,1,1.764,1.852c.389.471.763,1.152.333,1.722-.325.432-.44.773-.35,1.041.122.362.6.544,1.1.686a3.185,3.185,0,0,1,2.113,2.16c.337.861.706,1.725,1.063,2.561a28.939,28.939,0,0,1,2.583,8.278c.277,2.632.685,5.567,1.609,7.383,2.7,5.328,2.683,10.891,2.451,15.686-.084,1.748-.266,3.545-.441,5.282a60.864,60.864,0,0,0-.463,8.805,18.923,18.923,0,0,1-1.273,6.742,27.74,27.74,0,0,0-1.133,4.323,25.52,25.52,0,0,1-2.177,6.383,25.284,25.284,0,0,0-2.274,6.842,9.544,9.544,0,0,1-1.862,3.926,6.737,6.737,0,0,0-1.557,3.475c.033,2.938-1.414,5.158-2.813,7.305a15.318,15.318,0,0,0-2.66,5.649,11,11,0,0,1-2.21,5.25,21.113,21.113,0,0,0-3.079,4.924,20.557,20.557,0,0,1-3.257,5.126,37.29,37.29,0,0,0-4.3,5.911,34.867,34.867,0,0,1-4.872,6.517,40.07,40.07,0,0,0-4.208,5.186c-.593.819-1.206,1.666-1.829,2.468-1.3,1.668-1.58,4.03-1.853,6.314-.106.884-.215,1.8-.382,2.655-.61,3.136.505,5.831,1.583,8.438a34.079,34.079,0,0,1,1.246,3.341c2.463,8.356,7.56,16.161,15.15,23.2,9.122,8.459,19.245,12.748,30.088,12.748a46.879,46.879,0,0,0,16.038-2.989l.312-.114c1.633-.6,3.322-1.211,5-1.776,9.475-3.181,18.59-8.554,27.864-16.425,9.448-8.022,14.686-18.915,19.75-29.45.818-1.7,1.657-3.447,2.5-5.15a48.6,48.6,0,0,0,2.994-8.929c.478-1.8.972-3.655,1.565-5.419q.268-.8.541-1.6a82.134,82.134,0,0,0,2.5-8.291c.7-3.1,1.646-6.18,2.561-9.153l.25-.814c.4-1.314.881-2.632,1.343-3.906a55.624,55.624,0,0,0,1.893-5.9,34.058,34.058,0,0,1,1.312-3.988,30.261,30.261,0,0,0,1.475-4.7c.573-2.864,1.411-5.768,2.222-8.576.353-1.222.718-2.486,1.056-3.732a312.1,312.1,0,0,0,8.824-44.9c.212-1.782.416-3.6.613-5.355l0-.018c.733-6.541,1.49-13.3,2.864-19.821a159.225,159.225,0,0,1,13.207-37.88,188.752,188.752,0,0,1,21.709-33.749c6.207-7.77,12.832-15.421,19.238-22.819q2.167-2.5,4.33-5.007a90.974,90.974,0,0,0,13.612-21.434,157.339,157.339,0,0,0,8.573-23.89,47.2,47.2,0,0,0-1.366-30.214c-3.4-8.935-8.234-10.806-12.065-11.438a27.058,27.058,0,0,0-4.452-.35,62.252,62.252,0,0,0-11.7,1.488q-1.084.209-2.151.409a45.818,45.818,0,0,0-10.9,4.037q-1.223.592-2.449,1.18c-7.546,3.627-15.347,7.377-22.014,12.777a10.9,10.9,0,0,1-2.849,1.516,10.882,10.882,0,0,0-2.85,1.517,26.6,26.6,0,0,0-2.685,2.62,20.832,20.832,0,0,1-3.583,3.282,9.219,9.219,0,0,1-1.919.893,7.065,7.065,0,0,0-2.472,1.332c-2.985,2.757-6.163,5.4-9.236,7.953-5.4,4.49-10.987,9.132-15.72,14.563A58.118,58.118,0,0,1,130.5,70.8c-1.122,1-2.281,2.034-3.366,3.1A101.984,101.984,0,0,1,90.5,97.142a214.191,214.191,0,0,0-47.56,24.771q-1.019.7-2.051,1.4c-4.993,3.386-10.155,6.887-13.723,12.1-.4.592-.838,1.2-1.257,1.783-2.06,2.879-4.182,5.844-4.487,9.1l-.015.158c-.542,5.8-1.1,11.8.862,17.556a5.514,5.514,0,0,1-.026,2.595,2.371,2.371,0,0,0-.052,1.235,27.237,27.237,0,0,1,1.36,2.567,21.924,21.924,0,0,0,1.723,3.112c.632.9,1.331,1.775,2.007,2.626,2.206,2.775,4.487,5.643,4.832,9.561a3.864,3.864,0,0,0,.022-.4c.006-.311.013-.632.171-.76A.414.414,0,0,1,32.561,184.435ZM148.741,290.142c-3.206,6.4-5.232,13.315-7.193,20.425-1.3,4.718-2.933,9.4-4.51,13.933-.8,2.3-1.627,4.672-2.4,7.018a143.8,143.8,0,0,1-5.447,13.417c-.857,1.922-1.743,3.909-2.575,5.881,9.256-14.926,13.963-31.768,18.514-48.054C146.291,298.612,147.488,294.329,148.741,290.142ZM6.088,332.346c-2.408,2.391-3.87,8.206-3.844,12.224.013,2.01.392,3.477,1.067,4.129.152-1.273.272-2.578.388-3.841C4.079,340.706,4.473,336.413,6.088,332.346Zm35.382-69.56h0a126.144,126.144,0,0,1-4.69,13.818c-1.162,3.031-2.363,6.164-3.377,9.3a45.985,45.985,0,0,1-1.87,4.615,29.036,29.036,0,0,0-2.565,7.5c-.027.013-.053.024-.079.034l-.04.152-.02.074a51.253,51.253,0,0,0-5.11,9.287c-.929,2.007-1.89,4.082-3,6.035.626-1.024,1.286-2.053,1.924-3.049,2.443-3.812,4.968-7.75,6.188-12.272l.117-.155.009-.011.014-.092a2.493,2.493,0,0,0,1.206-1.58c.045-.113.09-.225.136-.333.478-1.106.97-2.229,1.446-3.315l.006-.013a127.794,127.794,0,0,0,6.613-17.325c.337-1.232.755-2.467,1.16-3.662a26.936,26.936,0,0,0,1.935-9.014ZM32.395,116.831C25.1,121.774,17.148,128.2,13.443,138.344A130.461,130.461,0,0,1,32.395,116.831Zm88.28-52.813c-1.57,1.39-3.159,2.811-4.7,4.185-4.116,3.681-8.37,7.485-12.692,11.07C110.528,75.022,116.14,69.176,120.675,64.018Zm21.052-19.453c-1.656,1.514-3.38,3.009-5.046,4.454a102.157,102.157,0,0,0-12.454,12.119L142.4,45.284l-.335-.356ZM197.459,8.574C186.9,9.97,157.889,29.2,153.536,35.458,169.358,23.062,183.316,14.521,197.459,8.574Z" transform="translate(38.886 41.778)" fill="#fb5d64"/>
    <path id="Fill_221" data-name="Fill 221" d="M11.456,313.381a16.806,16.806,0,0,1-9.91-2.972c-1.552-1.076-1.923-2.471-1.168-4.391a22.17,22.17,0,0,1,8.528-10.97c.23-.151.462-.3.695-.446l.013-.009a10.574,10.574,0,0,0,3.59-3.144.985.985,0,0,1,.931-.5c.143,0,.293.015.451.03l.022,0a5.2,5.2,0,0,0,.522.034A1.955,1.955,0,0,0,16.6,290.4c4.75-4.673,7.831-10.449,10.811-16.035l.3-.556c6.6-12.374,11.543-25.616,16.039-38.119a94.73,94.73,0,0,0,3.992-17.37c.56-3.583.959-7.244,1.221-11.193.075-1.128.424-2.472,1.661-2.472a2.994,2.994,0,0,1,1.289.362,1.739,1.739,0,0,0,.767.211c.55,0,.871-.4,1.211-.821.091-.114.186-.231.286-.34a.93.93,0,0,0-.07-1.391.943.943,0,0,0-.66-.3,1.83,1.83,0,0,0-.932.388,3.978,3.978,0,0,1-.383.228,4.38,4.38,0,0,1-1.787.544,1.05,1.05,0,0,1-.8-.31,3.312,3.312,0,0,1-.459-2.379c.342-7.332.5-14.492-1.351-21.485a47.022,47.022,0,0,0-3.942-10.11A195.9,195.9,0,0,0,32.65,151.525c-1.984-2.92-4.033-5.937-5.963-8.959l-.338-.529c-4-6.253-8.126-12.718-8.977-20.455a9.917,9.917,0,0,0-.28-1.343c-.391-1.531-.8-3.114,1.168-4.268a.65.65,0,0,0,.256-.514c-.493-7.229-.3-7.426,4.581-12.46l.093-.1A35.749,35.749,0,0,1,34.3,95.455C49.158,88.624,61.89,78.411,73.435,68.391c5.97-5.183,11.82-10.7,17.478-16.032,8.3-7.823,16.878-15.912,25.982-23.087A154.854,154.854,0,0,1,143.7,12.4,194.774,194.774,0,0,1,173.2.749,16.216,16.216,0,0,1,177.952,0a11.569,11.569,0,0,1,9.2,4.206c2.575,3.172,3.435,7.581,2.42,12.415A108.736,108.736,0,0,1,177.4,48.093c-5.158,9.118-11.015,18-16.679,26.584-1.4,2.126-2.85,4.321-4.277,6.5-.6.916-1.18,1.874-1.742,2.8a45.25,45.25,0,0,1-4.266,6.215l-.165.191c-.753.876-1.4,1.633-2.322,1.633a3.05,3.05,0,0,1-1.8-.784c1.127,1.905.729,3.11-.013,4.917a32.884,32.884,0,0,1-2.707,4.918c-1.544,2.461-3.141,5.005-3.573,8.057a7.78,7.78,0,0,1-1.588,3.254c-.31.444-.631.9-.893,1.37a30.318,30.318,0,0,0-2.433,6.339,31.952,31.952,0,0,1-2.076,5.626,42.432,42.432,0,0,0-2.184,5.294,39.4,39.4,0,0,1-2.322,5.538,9.026,9.026,0,0,0-.8,2.659,7.643,7.643,0,0,1-1.143,3.223c-.86,1.176-3.024,8.542-3.291,10.065-.588,3.356-1.275,6.748-1.94,10.029l-.153.753c-.1.487-.313,1.136-1.025,1.136a1.382,1.382,0,0,1-.215-.018,2.035,2.035,0,0,0-.319-.027.745.745,0,0,0-.661.269.828.828,0,0,0,.03.783c1.154,2.671-.047,5.092-1.106,7.228l-.007.015q-.119.24-.235.476c-2.961,6.05-5.607,12.355-8.165,18.453l-.669,1.593a2.329,2.329,0,0,1-1.146,1.006c-.824.457-1.676.929-1.087,2.623.435,1.243-.834,3.332-1.853,5.011l-.235.387a30.714,30.714,0,0,0-1.562,3.118c-.335.737-.68,1.5-1.059,2.22-6.293,11.994-12.488,24.917-18.937,39.5-1.9,4.293-4.045,8.561-6.12,12.689-1.511,3.006-3.071,6.107-4.524,9.2A36.6,36.6,0,0,0,70.3,274.2l-.017.059q-.089.3-.178.6c-.521,1.762-1.309,4.426-3.556,5.581a1.329,1.329,0,0,0-.8.822c-2.366,7.452-8.263,11.859-13.966,16.122l-.012.009c-.849.635-1.727,1.291-2.577,1.945-3.654,2.812-7.98,4.745-12.163,6.615-1.156.516-2.347,1.049-3.5,1.588-1.014.475-2.022,1.048-3,1.6a20.311,20.311,0,0,1-7.116,2.919c-.755.107-1.51.219-2.264.332a72.775,72.775,0,0,1-9.247.978C11.757,313.38,11.606,313.381,11.456,313.381ZM138.036,30.628a1.04,1.04,0,0,0-.788.46.441.441,0,0,0-.039.445,1.4,1.4,0,0,1,.186,1.127c-.158.4-.634.569-1.055.721a2.85,2.85,0,0,0-.579.255c-4.127,2.727-8.15,5.491-11.957,8.215a31.793,31.793,0,0,0-4.2,3.831,32.355,32.355,0,0,1-4.043,3.712c-2.562,1.147-4.252,3.251-5.887,5.285-.724.9-1.471,1.83-2.283,2.665a20.746,20.746,0,0,0-4.96,4.539,27.79,27.79,0,0,1-3.543,3.573c-1.132.893-2.29,1.795-3.41,2.667-4.17,3.248-8.475,6.6-12.412,10.225a141.973,141.973,0,0,1-34.42,23.415,42.183,42.183,0,0,1-5.016,1.919c-3.217,1.076-6.542,2.188-9.181,4.773-.437.427-.9.845-1.341,1.25-2.132,1.939-4.142,3.767-4.325,6.863a29.239,29.239,0,0,0,3.23,15.979,158.762,158.762,0,0,0,11.568,17.624c1.978,2.739,4.024,5.572,5.945,8.42a108.828,108.828,0,0,1,8.21,13.875A50.134,50.134,0,0,1,62.423,188c1.226,9.966.619,20.02.032,29.742l-.011.181q-.064,1.056-.127,2.113a11.136,11.136,0,0,1-.784,3.04,12,12,0,0,0-.885,3.679l-.012.4c-.1,3.321-.217,7.086-2.351,9.84-2.694,3.476-4.2,7.531-5.655,11.453-.706,1.9-1.436,3.869-2.292,5.742a9.241,9.241,0,0,0-.583,2.472c-.193,1.347-.393,2.74-1.4,3.618a12.326,12.326,0,0,0-3.216,5.3c-.2.514-.409,1.044-.634,1.56a8.6,8.6,0,0,1-1.707,2.609,29.108,29.108,0,0,0-4.385,6.239c-.4.686-.772,1.333-1.166,1.974A63.459,63.459,0,0,1,25.77,292.152a5.909,5.909,0,0,1-1.794,1,3.748,3.748,0,0,0-2.407,1.932,12.689,12.689,0,0,1-3.782,4.546,10.206,10.206,0,0,0-2.98,5.06,2.767,2.767,0,0,0,.77.113,3.783,3.783,0,0,0,1.483-.374c.13-.053.258-.106.386-.152a50.894,50.894,0,0,0,7.705-3.861c1.83-1.051,3.722-2.138,5.68-3.029A51.992,51.992,0,0,0,51.02,281.335c3.6-4.76,6.212-10.169,8.734-15.4l.009-.019q.437-.906.875-1.811,1.413-2.911,2.832-5.819l.018-.037c4.684-9.615,9.527-19.558,13.982-29.478,3.274-7.285,6.356-13.749,9.421-19.761,5.647-11.076,10.637-22.4,15.187-32.984a150.993,150.993,0,0,0,9.07-27.593c1.723-7.91,4.711-15.55,7.6-22.938l.443-1.134c5.424-13.881,11.573-29.614,21.518-43.114q1.382-1.876,2.767-3.75c7.653-10.368,15.567-21.087,22.591-32.173,9.206-14.524,12.025-23.444,13.453-29.593.06-.262.149-.537.243-.828.323-1,.657-2.033-.1-2.691a1.088,1.088,0,0,0-.744-.262,4.64,4.64,0,0,0-1.789.587c-.249.118-.482.229-.706.317a241,241,0,0,0-31.886,15.491,12.265,12.265,0,0,0-1.372.98,5.8,5.8,0,0,1-3.476,1.651,3.807,3.807,0,0,1-1.487-.319A.428.428,0,0,0,138.036,30.628ZM93.858,200.812c-7.345,13.46-13.685,27.573-19.817,41.222-5.68,12.643-11.552,25.714-18.174,38.141.777-1.267,1.627-2.5,2.449-3.7a46.77,46.77,0,0,0,4.228-6.993c1.76-3.845,3.675-7.7,5.526-11.424,2.431-4.893,4.944-9.95,7.143-15.057C84.3,221.9,90.123,210.843,94.181,203.574a1.915,1.915,0,0,0-.323-2.762ZM49.936,226.659c-.628,0-.933.581-1.009,1.124a24.59,24.59,0,0,1-1.87,5.966c-.334.814-.679,1.655-.979,2.5-.585,1.642-1.16,3.314-1.716,4.93a136.654,136.654,0,0,1-6.517,16.562l-.269.541a30.371,30.371,0,0,0-3.252,8.631.719.719,0,0,1-.086.01c0,.046-.011.094-.017.141l-.008.059a41.517,41.517,0,0,0-5.692,10.97,28.91,28.91,0,0,1,2.35-3.867c1.46-2.141,2.969-4.354,3.341-7.1l.1-.13.008-.051,0-.027c.736-.094,1.017-.665,1.288-1.218.036-.073.066-.135.1-.2,2.511-4.926,4.662-10.11,6.742-15.124,1.342-3.235,2.73-6.579,4.2-9.82a22.444,22.444,0,0,0,1.382-4.993c.494-2.53,1-5.145,2.821-7.268a.983.983,0,0,0,.283-.854,1.008,1.008,0,0,0-.649-.655A1.415,1.415,0,0,0,49.936,226.659ZM97.712,191.97h0l-1.748,3.867L94.216,199.7l.471.248.471.248a12.5,12.5,0,0,1,1.279-2.319c1.076-1.662,2.188-3.38,1.275-5.912ZM34.148,99.114c-6.553,1.23-13.248,7.389-12.566,11.561C24.858,105.327,29.786,101.9,34.148,99.114ZM89,58.82l-.374.324Q75.736,70.312,62.851,81.483c.116.133.232.269.348.4l.209.245L89.572,59.582q-.182-.244-.365-.485ZM168.181,5.456c-9.084,3.71-18.733,7.746-28.045,12.679a122.876,122.876,0,0,0-25.4,17.41,194.7,194.7,0,0,1,25.661-16.488C149.895,14.081,159.243,9.5,168.181,5.456Z" transform="translate(71.836 81.02)" fill="#fb5d64"/>
    <path id="Fill_223" data-name="Fill 223" d="M8.17,0A19.871,19.871,0,0,1,0,7.95C2.651,5.225,4.476,1.653,8.17,0" transform="translate(179.227 130.414)" fill="#fb5d64"/>
  </g>
</svg>
