<svg xmlns="http://www.w3.org/2000/svg" width="529" height="301" viewBox="0 0 529 301">
  <g id="_84" data-name="84" transform="translate(0 -1.5)">
    <path id="Fill_1" data-name="Fill 1" d="M21.255,301c-2.2,0-4.415-.046-6.6-.137a44.728,44.728,0,0,1-10.978-1.941A6.074,6.074,0,0,1,1.092,296.5,17.034,17.034,0,0,0,0,295.124c.414-.277.827-.614,1.226-.941A6.152,6.152,0,0,1,4,292.584a13.744,13.744,0,0,1,1.774-.106,36.331,36.331,0,0,1,3.759.265c.633.066,1.273.134,1.9.183s1.252.152,1.863.252a16.225,16.225,0,0,0,2.573.281c.2,0,.387-.008.567-.023A223.575,223.575,0,0,0,68.26,282.659a383.246,383.246,0,0,0,62.854-27.129,341.126,341.126,0,0,0,56.543-38.657c.854-.722,1.684-1.476,2.645-2.349l.026-.024c.5-.453,1.035-.939,1.628-1.471a67.762,67.762,0,0,1-30.389-41.287c-8.979-33.871-3.154-64.509,17.314-91.064a59.957,59.957,0,0,1,39.592-23.184,43.266,43.266,0,0,1,6.289-.469c10.613,0,20.5,4.119,29.374,12.242A57.326,57.326,0,0,1,266.289,84.71a48.081,48.081,0,0,1,5.443,18.7c1.026,12.779-.5,24.334-4.527,34.345-3.415,8.472-7.118,17.461-11.533,26.04a72.632,72.632,0,0,1-8.2,11.741c-.614.766-1.248,1.558-1.861,2.337-1.745,2.218-3.53,4.47-5.255,6.648l-.057.072c-6.576,8.3-13.376,16.885-19.97,25.966.974-.278,1.977-.531,2.946-.776a43.32,43.32,0,0,0,6.409-1.973c8.316-3.556,15.974-9.439,24.1-18.514,16.743-18.706,27.921-41.1,37.936-62.442,9.671-20.619,18.653-39.063,30.665-55.989a164.571,164.571,0,0,1,42.608-41.983,162.528,162.528,0,0,1,55.142-23.2C438.526,1.571,457.271,1,474.787,1c4.158,0,8.388.033,12.479.065h.029c2.886.023,5.86.046,8.786.058h.706c6.233,0,12.57-.34,18.7-.669C518.544.3,521.695.127,524.794,0l.1,0a6.31,6.31,0,0,1,1.045.129c.286.05.611.106,1.023.163L525.4,1.762l-.147.138-.379.357,2.364,1.928.019.015L529,5.623c-.369.439-.717.935-1.053,1.414a7.973,7.973,0,0,1-2.573,2.7,20.775,20.775,0,0,1-7.4,2.009c-4.067.368-8.213.6-12.223.833-2.824.161-5.744.327-8.618.539-3.87.286-7.8.621-11.6.945l-.016,0v0c-3.983.339-8.1.69-12.157.986-.227.017-.461.025-.714.025-.7,0-1.414-.064-2.105-.126s-1.4-.126-2.1-.126c-.324,0-.621.013-.906.041-2.149.21-4.333.407-6.445.6-6.918.626-14.071,1.273-21.023,2.432-4.176.7-8.357,1.782-12.4,2.83-3.846,1-7.822,2.028-11.791,2.726a77.093,77.093,0,0,0-17.562,5.754c-12.055,5.263-25.984,12.1-37.882,22.916C346.3,64.963,333.455,81.039,321.145,101.27c-4.044,6.644-7.247,13.951-10.345,21.018-1.9,4.334-3.862,8.809-6,13.093-5.627,11.272-11.586,22.327-18.233,34.573q-.575,1.06-1.148,2.125a107.058,107.058,0,0,1-9,14.747,211.327,211.327,0,0,1-16.74,18.593,72.455,72.455,0,0,1-12.319,10.6,41.852,41.852,0,0,1-22.771,6.972,42.561,42.561,0,0,1-11.424-1.607,12.878,12.878,0,0,0-3.435-.538,8.575,8.575,0,0,0-5.906,2.485,291.359,291.359,0,0,1-73.869,47.08l-1.589.708C113.059,277.946,97.231,285,81.162,290.465A206.614,206.614,0,0,1,51.643,298.2,170.977,170.977,0,0,1,21.255,301ZM228.8,69.464v0a43.172,43.172,0,0,0-11.59,1.635c-6.169,1.718-11.306,5.111-15.939,8.522A64.111,64.111,0,0,0,189.31,90.479c-7.7,9.58-12.813,21.2-15.638,35.53a123.058,123.058,0,0,0-2.613,26.959,77.851,77.851,0,0,0,5.154,26.616,58.513,58.513,0,0,0,7.633,14.142,42.293,42.293,0,0,0,11.9,10.887,5.9,5.9,0,0,0,3.029,1.033,5.372,5.372,0,0,0,3.692-1.888c19.07-18.378,31.715-34.015,41-50.7,10.282-18.468,15.134-34.53,15.269-50.548,0-.5.013-1.015.026-1.509a27.007,27.007,0,0,0-.046-3.237c-.883-9.425-4.3-16.713-10.163-21.663-5.139-4.341-11.968-6.635-19.749-6.636Zm9.459,98.355q-6.981,8.661-13.962,17.317l-.349.433-7.156,8.874c1.168-1.152,2.371-2.311,3.535-3.431l.015-.014c6.981-6.721,14.2-13.672,17.917-23.179ZM402.841,14.777c-5.289,0-9.521,2.837-13.614,5.581q-.687.461-1.376.918c5.215-2.254,10.483-4.535,15.013-6.5l-.01,0Zm38.993-9.061c-9.638,1.429-19.8,3.341-30.205,5.683a30.109,30.109,0,0,0-5.8,2.193c-.7.322-1.42.651-2.132.953C414.991,11.932,427.109,9.128,441.834,5.716Zm12.607-1.448h0c.039.158.079.316.121.474h24.368c-.006-.078-.01-.156-.015-.234s-.01-.16-.016-.24H454.441Z" transform="translate(0 1.5)" fill="#8088dc"/>
  </g>
</svg>
