<svg xmlns="http://www.w3.org/2000/svg" width="565" height="428.219" viewBox="0 0 565 428.219">
  <g id="_59" data-name="59" transform="translate(0 0)">
    <path id="Fill_131" data-name="Fill 131" d="M354.283,0a115.624,115.624,0,0,0-17.594,1.321,138.766,138.766,0,0,0-38.565,12.1,282.171,282.171,0,0,0-34.43,19.863c-14.7,9.753-31.866,20.93-49.61,30.143A127.535,127.535,0,0,1,192,72.439a118.779,118.779,0,0,1-23.413,4.514c-5.547.5-12.159,1.022-19.154,1.122a1.251,1.251,0,0,0,1.234.649c.083,0,.167,0,.253-.005.1,0,.188,0,.275,0a2.192,2.192,0,0,1,1.147.269c-.619,0-1.228.059-1.818.116-.527.051-1.021.1-1.469.1a2.434,2.434,0,0,1-1.461-.35,4.534,4.534,0,0,0-2.6-.936,2.446,2.446,0,0,0-1.146.261,10.067,10.067,0,0,1-4.9,1.111,32.878,32.878,0,0,1-3.4-.238,33.132,33.132,0,0,0-3.409-.239q-.188,0-.375,0-.132,0-.265,0a20.353,20.353,0,0,1-4.3-.625l-.03-.007a20.677,20.677,0,0,0-4.4-.636c-.181,0-.362,0-.539.014-.575.031-1.2.046-1.9.046-.722,0-1.451-.015-2.156-.03s-1.456-.032-2.192-.032a21.437,21.437,0,0,0-6.3.77,5.857,5.857,0,0,1-1.716.23,19.087,19.087,0,0,1-4.755-.85,13.364,13.364,0,0,0-3.365-.459,7.072,7.072,0,0,0-3.075.6,10.536,10.536,0,0,1-4.756.863c-.274,0-.547,0-.82-.006s-.521,0-.781,0a15.25,15.25,0,0,0-2.668.188,189.089,189.089,0,0,0-21.708,5.036A150.759,150.759,0,0,0,37.007,96.6c-14.226,7.9-24.68,20.2-31.96,37.593A61.419,61.419,0,0,0,0,158.062a56.682,56.682,0,0,0,5.468,23.827l.178.384c3.751,8.084,7.631,16.443,12.16,24.3a67.972,67.972,0,0,0,10.6,14.067c3.438,3.451,5.67,7.735,7.827,11.879l.025.047.5.965c7.179,13.729,14.628,24.088,23.445,32.6,9.211,8.9,20.365,15.968,34.1,21.613a142.614,142.614,0,0,0,25.766,7.691,251.9,251.9,0,0,0,26.647,3.826l1.06.1c25.074,2.433,51,4.949,75.753,12.092,20.74,5.987,36.721,12.9,50.291,21.763,7.1,4.64,12.752,10.648,17.8,16.449,3.38,3.888,6.727,7.912,9.964,11.8,5.8,6.969,11.789,14.172,18.165,20.835,7.982,8.34,14.967,15.02,23.11,20.514,16.945,11.434,32.982,18.694,49.028,22.2a127.608,127.608,0,0,0,27.353,3.2,88,88,0,0,0,29.831-4.952c19.89-7.034,33.272-18.308,40.911-34.468,4.076-8.628,6-18.378,6.068-30.686.049-9.555-.382-19.255-.8-28.636-.431-9.712-.876-19.754-.791-29.647.02-2.282.024-4.6.028-6.846.02-10.714.041-21.791,1.759-32.608,2.381-14.99,8.85-28.823,19.777-42.288,4.28-5.276,8.782-10.506,13.137-15.565,2.564-2.978,5.215-6.058,7.793-9.115,4.8-5.686,8.56-10.545,11.844-15.29a116.073,116.073,0,0,0,9.748-16.715,63.9,63.9,0,0,0,6.373-30.723c-.511-9.872-3.512-19.987-8.918-30.065a129.127,129.127,0,0,0-23.65-31.1c-3.384-3.337-7.023-6.482-10.542-9.524q-.941-.813-1.874-1.622A76.655,76.655,0,0,0,507.527,49.6a58.1,58.1,0,0,1-5.266-3.519c-1.567-1.132-3.188-2.3-4.89-3.307A332.835,332.835,0,0,0,457.56,22.564c-8.338-3.523-16.986-6.448-25.129-9.143-6.417-2.124-13.177-3.974-20.664-5.656-1.7-.381-3.434-.784-5.109-1.174l-.029-.007c-4.006-.931-8.144-1.894-12.241-2.655a23.506,23.506,0,0,0-4.23-.288l-.739,0h-.667a26.568,26.568,0,0,1-4-.228,132.3,132.3,0,0,0-19.387-1.834c-.673,0-1.306-.062-1.644-.761l.729-.168.018,0,.087-.02.7-.161C361.526.156,357.835,0,354.283,0Zm4.86,1.2c-1.49,0-3-.093-4.465-.182h-.016c-1.082-.066-2.2-.134-3.3-.164C353.979.616,356.144.5,358.173.5a43.731,43.731,0,0,1,5.49.323A24.713,24.713,0,0,1,359.143,1.2ZM318.181,16.287v0a87.784,87.784,0,0,1,28.991-5.063c2.366,0,4.767.1,7.137.305-.787-.021-1.481-.029-2.122-.029-10.332,0-20.562,2.071-30.455,4.074Q319.956,15.931,318.181,16.287ZM144.734,91.068c5.123,0,9.693-.088,13.972-.269a141.733,141.733,0,0,0,26.513-3.586,130.972,130.972,0,0,0,25.235-8.757c19.328-9.016,36.852-20.095,56.123-32.592,11.1-7.2,24.412-15.376,38.936-21.435a123.419,123.419,0,0,1,24.027-7.252,130.961,130.961,0,0,1,24.788-2.325c3.766,0,7.635.155,11.5.459a276.479,276.479,0,0,1,37.419,5.475,343.638,343.638,0,0,1,49.327,14.684,312.909,312.909,0,0,1,46.4,22.308c15.746,9.259,27.354,18.609,36.531,29.423,10.945,12.893,15.037,21.086,17.379,26.784,2.906,7.068,3.836,12.721,3.015,18.329a66.268,66.268,0,0,1-7.52,22.42c-6.947,12.629-16.474,23.6-25.688,34.207-1.129,1.3-2.3,2.643-3.442,3.971-5.19,6.012-10.224,11.937-14.747,18.3a94.8,94.8,0,0,0-17.786,47.335c-1.929,22.589-.537,45.527.808,67.71l.164,2.7c.185,3.056.449,6.157.7,9.155.651,7.644,1.324,15.548.74,23.38-.845,11.345-3.357,17.449-5.173,21.054a56.1,56.1,0,0,1-28.021,25.806l-.155.061a2.336,2.336,0,0,0-.813.446c-2.706,2.682-6.242,3.189-9.663,3.679-.347.05-.694.1-1.041.151-.238.035-.489.059-.754.084a3.552,3.552,0,0,0-2.136.615,4.658,4.658,0,0,1-3.685,1.18h-.629a5.9,5.9,0,0,0-3.126.622,2.593,2.593,0,0,1-1.3.248c-.433,0-.911-.04-1.417-.083l-.059,0c-.569-.049-1.082-.089-1.591-.089a6.338,6.338,0,0,0-1.025.073q1.386.1,2.773.2l.065,0,.1.007c-.018.064-.035.128-.052.193s-.034.129-.052.193c-.838.041-1.683.1-2.5.157-1.511.1-3.068.213-4.6.213-.3,0-.593,0-.875-.012q-1.005-.029-2.01-.055c-7.824-.206-15.909-.419-23.525-3.663a14.011,14.011,0,0,0-3.2-.784,13.1,13.1,0,0,1-4.058-1.133,23.994,23.994,0,0,0-4.951-1.76,24.806,24.806,0,0,1-5.124-1.826c-5.586-2.946-10.669-5.393-15.539-7.481a41.9,41.9,0,0,1-6.513-3.764c-1.012-.669-2.056-1.36-3.112-1.993a42.436,42.436,0,0,1-4.832-3.573c-.722-.588-1.467-1.2-2.21-1.763a96.542,96.542,0,0,1-12.209-10.91c-4.144-4.45-8.015-9.023-10.924-12.511-1.374-1.648-2.745-3.349-4.07-4.993l-.014-.018c-2.045-2.538-4.16-5.162-6.339-7.658a148.132,148.132,0,0,1-11.785-15.182,23.1,23.1,0,0,0-3.244-3.646,25.327,25.327,0,0,1-2.994-3.284l-.423-.59a31.2,31.2,0,0,0-4.862-5.74,99.758,99.758,0,0,0-11.946-8.9c-12.767-7.973-27.588-14.358-45.31-19.52-.753-.22-1.512-.45-2.246-.673-3.909-1.186-7.951-2.412-12.188-2.412q-.289,0-.58.008c-.331.009-.62.013-.882.013a10.669,10.669,0,0,1-3.964-.6,29.723,29.723,0,0,0-9.021-2.059c-3.587-.287-7.194-.843-10.683-1.381-2.846-.439-5.784-.892-8.7-1.2-10.116-1.06-20.946-2.107-31.6-2.592-2.945-.133-5.919-.461-8.794-.779-3.4-.375-6.909-.762-10.4-.833a37.918,37.918,0,0,1-8.826-1.627c-1.159-.309-2.348-.626-3.517-.892-21.583-4.9-38.376-13.577-51.338-26.513a8.341,8.341,0,0,0-2.8-1.67,6.71,6.71,0,0,1-3.1-2.093c-5.638-7.66-13.151-17.714-21.272-27.549-5.085-6.16-8.694-13.34-12.184-20.284-1.842-3.666-3.748-7.457-5.848-11.054l-.2-.346c-1.027-1.768-1.089-1.874-3.479-2.929-.186-.082-.291-.367-.392-.642-.039-.105-.075-.2-.115-.293-.983-2.135-2.043-4.275-3.067-6.344a123.08,123.08,0,0,1-5.912-13.235c-.248-.7-.508-1.4-.759-2.077C11.042,162,9.7,158.383,9.645,154.531a47.58,47.58,0,0,1,4.623-21.718,52.4,52.4,0,0,1,13.92-17.271c7.078-5.883,15.157-9.907,22.835-13.379A128.867,128.867,0,0,1,103.758,90.55c.969-.007,1.985-.011,3.019-.011,6.261,0,12.614.132,18.758.259l.24,0,.1,0C132.052,90.935,138.441,91.068,144.734,91.068ZM113.9,78.417h0V78.07h10.844c.022.115.044.231.064.346Zm22,2.652a3.634,3.634,0,0,1-1.905-.483,22.458,22.458,0,0,1,3.849-.415c2.329,0,3.624.7,4.2,2.282a3.167,3.167,0,0,0-2.879-1.736,10,10,0,0,0-1.574.171l-.033.005A10.427,10.427,0,0,1,135.893,81.068Zm8.29,6.3c2.816,0,5.413-.026,7.94-.08a190.608,190.608,0,0,0,34.225-3.425,126.674,126.674,0,0,1-30.141,4.357c-4.276.133-8.672.2-13.441.2-8.524,0-16.88-.215-23.207-.4-3.2-.094-6.445-.125-9.587-.155-3.355-.032-6.813-.065-10.213-.174h-.091a7.022,7.022,0,0,0-1.533.235,7.172,7.172,0,0,1-1.565.234,2.887,2.887,0,0,1-1.847-.636,71.743,71.743,0,0,1,11.681-.8c.687,0,1.408.005,2.205.015,4.771.063,9.608.179,14.286.292C129.869,87.195,137.079,87.368,144.183,87.368ZM84.054,278.49c-9.143-4.9-19.5-11.293-26.987-21.516A151.648,151.648,0,0,0,84.054,278.49Zm179.884,43.736c-10.484-4.84-22.028-9.41-36.328-14.382A132.343,132.343,0,0,1,263.938,322.226Zm14.563-6q-4.914-2.657-9.829-5.311l-3.332-1.8A48.228,48.228,0,0,1,278.5,316.229ZM424.933,425.011l-.642,0a120.59,120.59,0,0,0,32.945-8.047A68.573,68.573,0,0,1,424.933,425.011Zm-3.343.859-.088,0c-3.293-.169-6.591-.36-10.082-.561l-.032,0-3.325-.191c.234-.287.393-.5.509-.655.166-.223.235-.315.292-.315a78.218,78.218,0,0,0,8.716.6c1.393,0,2.684-.061,3.948-.185q.059-.006.117-.006a.641.641,0,0,1,.712.541.65.65,0,0,1-.121.543A.835.835,0,0,1,421.59,425.871Z" transform="translate(565 428.22) rotate(180)" fill="#46dbc9"/>
  </g>
</svg>
