<svg xmlns="http://www.w3.org/2000/svg" xmlns:xlink="http://www.w3.org/1999/xlink" width="838.913" height="659.512" viewBox="0 0 838.913 659.512">
  <defs>
    <clipPath id="clip-path">
      <path id="Clip_452" data-name="Clip 452" d="M0,762.293H351.78V0H0Z" fill="none"/>
    </clipPath>
  </defs>
  <g id="_21" data-name="21" transform="matrix(-0.454, 0.891, -0.891, -0.454, 838.913, 346.074)">
    <path id="Clip_452-2" data-name="Clip 452" d="M0,762.293H351.78V0H0Z" transform="translate(0)" fill="none"/>
    <g id="_21-2" data-name="21" transform="translate(0)" clip-path="url(#clip-path)">
      <path id="Fill_451" data-name="Fill 451" d="M183.633,0A152.414,152.414,0,0,0,139.89,6.771C104.725,17.2,77.181,28.044,53.206,40.912A118.285,118.285,0,0,0,32.342,55.038a100.25,100.25,0,0,0-17,18.651,24.363,24.363,0,0,1-2.776,3.122,21.142,21.142,0,0,0-3.352,3.972c-5.511,9.206-7.243,19.677-5.3,32.013,1.686,10.681,5.019,21,8.243,30.983,4.383,13.581,10.562,26.628,16.538,39.246C34.139,194.5,39.758,206.363,44,218.579c5.856,16.855,10.1,31.008,13.357,44.539a90.75,90.75,0,0,1,2.193,27.828,133.187,133.187,0,0,1-5.068,27.483c-4.627,16.248-10.747,32.26-16.666,47.745-1.585,4.146-3.222,8.428-4.808,12.658-10.874,29-22.786,63.517-28.692,99.586A308.68,308.68,0,0,0,.043,522.924a218.185,218.185,0,0,0,3.547,44.609,262.992,262.992,0,0,0,18.619,59.313,294.818,294.818,0,0,0,31.507,53.573c15.187,20.649,31,36.735,48.347,49.178a190.047,190.047,0,0,0,35.257,20.211A152.312,152.312,0,0,0,176.4,760.865a139.81,139.81,0,0,0,19.633,1.426c.947,0,1.906-.011,2.851-.032,2.044-.045,4.123-.058,6.134-.072h.016A148.374,148.374,0,0,0,222,761.423c16.336-1.989,29.812-6.9,41.2-15q1.018-.725,2.049-1.444c3.944-2.765,8.022-5.624,11.121-9.268,1.231-1.449,2.526-2.893,3.777-4.29,4.058-4.528,8.252-9.207,11.044-14.87a83.372,83.372,0,0,1,4.966-8.358,64.691,64.691,0,0,0,6.2-11.1c7.756-19.512,11.4-40.5,11.143-64.154-.147-13.618-1.47-27.3-4.425-45.76-2.1-15.005-6.106-31.759-10.349-49.5-1.746-7.3-3.55-14.841-5.236-22.344A162.021,162.021,0,0,1,302.227,414.9c6.521-15.623,14.378-30.894,21.975-45.662l.135-.263L325.872,366c11.342-22.06,18.708-43.264,22.519-64.825a224.678,224.678,0,0,0,2.853-54.4,510.846,510.846,0,0,0-17.3-100.389c-4.718-17.149-11.644-39.505-23.415-60.34A260.62,260.62,0,0,0,288.4,52.5a162.867,162.867,0,0,0-28.372-28.436C246.775,13.823,230.555,6.99,208.98,2.557A126.173,126.173,0,0,0,183.633,0ZM193.4,750.893v0c-4.617,0-9.508-.223-14.537-.662a132.88,132.88,0,0,1-45.079-12.138A158.629,158.629,0,0,1,95.2,711.969,200.355,200.355,0,0,1,68.77,682.622a320.067,320.067,0,0,1-21.434-33.238,249.658,249.658,0,0,1-30.295-88.4,222.958,222.958,0,0,1-1.405-50.135,316.008,316.008,0,0,1,8.182-49.467A605.942,605.942,0,0,1,49.136,381.6c7.83-19.864,14.729-37.838,19.858-56.657,4.9-17.982,6.288-33.028,4.371-47.349-1.31-9.784-4.155-19.335-6.907-28.572-.87-2.921-1.769-5.938-2.607-8.92-6.262-22.287-16.388-43.384-26.181-63.786-1.77-3.687-3.6-7.5-5.381-11.265-2.587-5.475-4.733-11.274-6.809-16.882-.765-2.068-1.556-4.206-2.361-6.3a56.471,56.471,0,0,1-2.208-8.045c-.379-1.71-.771-3.476-1.259-5.174a38.483,38.483,0,0,1-1.018-5.474,35.612,35.612,0,0,0-1.088-5.672c-1.309-4.249-.769-8.543-.247-12.695.213-1.691.432-3.438.523-5.155C17.97,96.84,18.171,93,21.38,90.6c1.1-.821,1.835-3.234,1.97-5.087a3.036,3.036,0,0,0-.336-2.088c-2.126-2.137-2.469-5.191-.817-7.262l.608-.765a49.952,49.952,0,0,1,5.839-6.532A131.013,131.013,0,0,1,54.024,50.907c25.022-13.2,51.471-22.26,74.044-29.377,12.366-3.9,25.706-7.8,39.473-9.917a127.585,127.585,0,0,1,19.337-1.482,137.883,137.883,0,0,1,43.269,7.222c13.621,4.5,23.794,10.125,32.016,17.706a193.931,193.931,0,0,1,27.185,30.848,177.262,177.262,0,0,1,19.6,36.134,411.487,411.487,0,0,1,20.41,68.033,510.254,510.254,0,0,1,9.476,70.406,211.8,211.8,0,0,1-4.078,58.373A219.818,219.818,0,0,1,314.84,353.9c-8.884,17.174-16.805,32.731-23.772,49.211a182.335,182.335,0,0,0-13.637,51.66A170.378,170.378,0,0,0,280.3,508.12c.983,4.639,2,9.339,2.988,13.883l0,.021c3.91,18.02,7.6,35.037,9.636,50.7,3.48,20.626,5.769,37.94,5.63,55.4a176.089,176.089,0,0,1-4.507,40.037,123.153,123.153,0,0,1-15.4,37.176,104.5,104.5,0,0,1-20.243,24.02,83.158,83.158,0,0,1-27.273,15.645,114.46,114.46,0,0,1-37.732,5.9ZM9.894,469.657h0a29.663,29.663,0,0,1,2.038-10.362c0-.06-.01-.12-.016-.179.019-.006.038-.014.057-.022l.021-.009c.043-.328.078-.664.112-.989a17.991,17.991,0,0,1,.334-2.258c4.4-18.649,10.371-37.23,16.169-54.532.714-2.131,1.417-4.308,2.1-6.414,2.015-6.244,4.1-12.7,6.741-18.8,5.808-13.392,10.82-27.136,14.537-37.613.845-2.382,1.674-4.817,2.475-7.172l.006-.018.029-.085q.553-1.625,1.109-3.248a197.211,197.211,0,0,1-9.091,28.717A790.825,790.825,0,0,0,13.079,456.9c-.045.174-.076.362-.106.544-.108.654-.219,1.331-.982,1.645l-.011.082-.052.128a19.769,19.769,0,0,1-1.189,7.233C10.436,467.549,10.124,468.6,9.894,469.657ZM282.8,705.431l0,0a153.1,153.1,0,0,0,12.472-26.767C293.891,687.493,286.786,702.752,282.8,705.431Z" transform="translate(-0.001 0.001)" fill="#46dbc9"/>
    </g>
  </g>
</svg>
