<svg xmlns="http://www.w3.org/2000/svg" width="437.445" height="196.972" viewBox="0 0 437.445 196.972">
  <g id="_50" data-name="50" transform="translate(0)">
    <path id="Fill_149" data-name="Fill 149" d="M76.147,0A169.757,169.757,0,0,0,42.756,3.136C29.393,5.787,15.445,9.284,4.689,20.142.4,24.475-.068,27.768.007,30.153.07,32.166.8,33.364,2.376,34.038a2.82,2.82,0,0,0,1.082.267c.809,0,1.16-.6,1.6-1.367.156-.269.318-.547.515-.823C11.48,23.81,20.663,22,29.543,20.257c.96-.189,1.919-.377,2.873-.574a161.138,161.138,0,0,1,32.873-3.2c14.092,0,29.529,1.551,48.58,4.881a293.438,293.438,0,0,1,60.345,17.192c.274.112.569.2.854.291.788.244,1.531.473,1.815,1.1a2.672,2.672,0,0,1-.278,2.112c-4.141,9.39-4.178,19.433-.113,30.7,3.089,8.56,6.895,15.3,11.634,20.616a41.391,41.391,0,0,0,20.061,12.526,21.951,21.951,0,0,0,6,.924c5.622,0,10.208-2.858,14.43-8.994,6.321-9.175,8.469-19.341,6.211-29.4-2.021-9.005-7.542-17.583-15.546-24.153l-1.871-1.533-2.279-1.867c.113-.451.23-.9.347-1.347.645-.032,1.333-.05,2.039-.05,7.016,0,13.911,1.772,20.578,3.485q1.051.27,2.1.538a189.139,189.139,0,0,1,48.8,20.1,260.2,260.2,0,0,1,42.58,31.279c15.68,13.948,31,29.808,49.68,51.426l.277.321c1.31,1.521,2.664,3.093,4.669,3.8a6.386,6.386,0,0,0,1.994.428,1.288,1.288,0,0,0,1.124-.458c.334-.472.288-1.323-.138-2.53a3.115,3.115,0,0,0-.323-.6c-.2-.322-.4-.626-.3-.89.075-.2.32-.366.748-.5,4.858-1.5,3.928-4.882,3.028-8.157-.059-.213-.117-.426-.173-.637-1.418-5.3-4.62-9.721-7.717-14-.668-.922-1.352-1.867-2-2.8-16.3-23.353-26.695-34.766-33.93-42.1C336.473,66,322.729,55.714,309.67,46.418,302,40.958,292.449,34.163,281.8,31.257a54.537,54.537,0,0,1-9.713-4.031,55.362,55.362,0,0,0-9.221-3.875c-13.572-3.863-25.853-7.119-38.73-7.832-1.181-.065-2.368-.1-3.529-.1a54.215,54.215,0,0,0-27.27,7.107,10.222,10.222,0,0,1-5.163,1.488,10.68,10.68,0,0,1-4.111-.877c-7.587-3.124-15.851-6.277-26.007-9.924-14.982-5.384-30.622-8.141-43.945-10.127A256.408,256.408,0,0,0,76.147,0ZM177.974,35.814,144.85,23.946A104.079,104.079,0,0,1,177.974,35.814Zm76.874,5.726c-2.522-.589-5.077-1.2-7.546-1.8-10.38-2.5-21.1-5.078-31.876-6.362,1.487-.122,3.045-.189,4.631-.189C232.349,33.191,244.043,37.2,254.849,41.541ZM218.656,86.533v0a18.117,18.117,0,0,1-2.535-.253l-.275-.04c-10.535-1.511-16-9.872-20.818-17.249-3.153-4.829-6.785-11.358-6.879-19.055-.018-1.616.239-2.67.785-3.223a1.563,1.563,0,0,1,1.157-.453,4.961,4.961,0,0,1,2.255.743c11.179,6.171,18.934,12.806,24.4,20.883a30.215,30.215,0,0,1,5.462,14.251,4.8,4.8,0,0,1-1,3.542,3.374,3.374,0,0,1-2.556.853Z" transform="translate(437.445 196.972) rotate(180)" fill="#46dbc9"/>
    <path id="Fill_151" data-name="Fill 151" d="M99.319,0A5.185,5.185,0,0,0,96.6,1.1c-6.719,4.6-7.3,6.211-6.926,19.181.2,9.184,1.7,18.358,3.157,27.229.331,2.023.672,4.1.992,6.151a10.35,10.35,0,0,0,.257,1.1c.357,1.317.726,2.678-.9,3.808a2.907,2.907,0,0,1-1.688.583,5.081,5.081,0,0,1-2.738-1.186c-.159-.11-.315-.218-.469-.319-5.374-3.529-11.388-5.807-17.2-8.009-2.176-.824-4.425-1.676-6.611-2.582-2.334-.967-4.637-2.163-6.864-3.32a78.326,78.326,0,0,0-8.223-3.871c-7.51-2.842-14.942-6.263-22.13-9.572l-1.837-.845a28.108,28.108,0,0,0-4.406-1.462c-2.722-.739-5.536-1.5-7.8-3.784a5.757,5.757,0,0,0-4.046-1.975c-2.292,0-4.68,1.737-7.3,5.31-1.011,1.377-3.953,6.14.628,9.621a58.259,58.259,0,0,0,9.642,6.03C24.219,49.08,36.516,55,48.409,60.729l.039.019c10.217,4.92,20.783,10.008,31.157,15.047,3.927,1.9,7.817,4.051,11.578,6.126q1.637.9,3.275,1.8c3.551,1.941,6.095,2.807,8.249,2.807,3.529,0,6.131-2.323,9.277-8.286,3.627-6.866,4.108-13.689,1.512-21.472-4.622-13.884-9.18-28.839-11.215-44.131-.233-1.756-.324-3.56-.412-5.306-.064-1.272-.13-2.584-.251-3.869C101.4,1.165,100.631,0,99.319,0ZM97.183,79.589,82.46,72.231l-.614-.307-14.11-7.051A96.6,96.6,0,0,1,97.183,79.589Z" transform="translate(115.134 86.528) rotate(180)" fill="#46dbc9"/>
  </g>
</svg>
