<svg xmlns="http://www.w3.org/2000/svg" width="2142.653" height="1185.359" viewBox="0 0 2142.653 1185.359">
  <g id="_80" data-name="80" transform="translate(-0.002)">
    <path id="Fill_1" data-name="Fill 1" d="M1640.507,1185.359a436.7,436.7,0,0,1-79.95-7.579,530.524,530.524,0,0,1-77.754-21.028c-27.712-9.721-55.451-20.855-82.277-31.622l-.056-.022c-13.638-5.474-27.74-11.135-41.667-16.541-9.135-3.543-18.473-7.023-27.5-10.389l-.142-.053c-11.962-4.458-24.331-9.067-36.394-13.881a137.993,137.993,0,0,1-13.53-6.578,137.152,137.152,0,0,0-13.607-6.608c-7.794-3.087-15.9-5.753-23.741-8.331-4.848-1.594-9.85-3.238-14.752-4.974-2.7-.955-5.5-1.849-8.213-2.714-8.1-2.585-16.464-5.253-23.287-9.912a16.433,16.433,0,0,0-7.34-2.742c-.88-.156-1.791-.318-2.758-.571-1.3-.337-2.288-1.658-3.336-3.057a16.523,16.523,0,0,0-1.959-2.312,7.386,7.386,0,0,0-3.216-1.527.245.245,0,0,0-.19.057c-1.564,1.833-3.153,2.687-5,2.687a13.422,13.422,0,0,1-5.142-1.492,29.865,29.865,0,0,0-2.909-1.143c-17.887-5.6-39.151-12.157-61.238-18.315q-4.9-1.364-9.794-2.736l-.163-.045c-21.942-6.137-44.632-12.484-67.208-17.563-25.691-5.777-53.654-11.178-88-17-26.889-4.566-54.364-8.324-80.934-11.957l-5.671-.776c-11.32-1.548-22.856-2.941-34.012-4.288l-.1-.012c-12.136-1.464-24.685-2.979-37.07-4.708-5.136-.714-10.287-1.927-15.269-3.1-4.312-1.016-8.756-2.063-13.185-2.787a9.252,9.252,0,0,0-1.521-.117,25.19,25.19,0,0,0-4.185.482l-.083.015a25.2,25.2,0,0,1-4.047.466,7.316,7.316,0,0,1-2.431-.366,44.564,44.564,0,0,0-11.548-1.891c-5.672-.423-11.535-.86-16.818-4.5a4.9,4.9,0,0,0-2.846-.724,25.908,25.908,0,0,0-4.738.653l-.154.03a27.9,27.9,0,0,1-5.166.683,9.657,9.657,0,0,1-1.367-.091,42.536,42.536,0,0,1-9.884-3.183c-1.5-.62-3.042-1.259-4.572-1.8a5.681,5.681,0,0,0-1.741-.422,1.127,1.127,0,0,0-.541.116,15.056,15.056,0,0,1-7.262,2.248c-3.7,0-6.419-2.264-7.461-6.213-1.522.1-2.976.217-4.382.329l-.087.007c-3.094.248-6,.48-8.877.489h-.081a38.8,38.8,0,0,1-4.656-.372,38,38,0,0,0-4.557-.37,13.946,13.946,0,0,0-2.361.184,16.062,16.062,0,0,1-2.644.253c-1.719,0-2.894-.413-3.59-1.264-1.309-1.6-.71-4.58-.13-7.463l-.062.009-.06.009q-1.464-.154-2.926-.3l-.062-.006q-2.283-.237-4.564-.481c-.739-.08-1.49-.182-2.216-.281l-.05-.007a37.049,37.049,0,0,0-4.964-.451c-1.826,0-5.451.281-5.555.931-.777,4.636-1.553,7.675-5.122,7.675a13.345,13.345,0,0,1-4.857-1.215,6.071,6.071,0,0,0-2.32-.412c-2.808,0-6.25,1.389-9.287,2.614l-.037.015c-.542.219-1.071.432-1.582.631a10.13,10.13,0,0,1-3.449.839,2.155,2.155,0,0,1-1.685-.625c-.811-.882-.844-2.611-.634-5.117.087-1.014-.742-2.123-1.543-3.2a16.51,16.51,0,0,1-1.031-1.488,12.039,12.039,0,0,0-.631,1.061,4.446,4.446,0,0,1-1.564,1.946c-1.162.58-2.359,1.276-3.518,1.95-3.147,1.83-6.4,3.719-9.566,3.719h-.109c-7.381-.092-14.884-.648-22.14-1.185-7.946-.589-16.161-1.2-24.227-1.2-1.11,0-2.208.011-3.262.034-11.846.257-23.878,1.139-35.513,1.992-12.72.932-25.848,1.893-38.771,2.046-17.361.205-34.986,1.69-52.031,3.125-18.39,1.548-37.392,3.148-56.1,3.148a247.892,247.892,0,0,1-40.5-3.04c-3.532-.581-7.142-1.145-10.633-1.69l-.086-.013c-16.46-2.571-33.48-5.23-49.262-10.631-15.379-5.256-30-13.567-44.144-21.605-2.869-1.63-5.836-3.317-8.765-4.952-26.548-14.815-54.257-31.8-77.045-55.577-28.051-29.273-56.116-62.216-71.4-104.686-2.4-6.672-5.107-13.356-7.722-19.82-3.893-9.623-7.918-19.571-11.005-29.623-3.462-11.252-6.849-24.371-5.721-36.357,1.594-17-1.214-33.525-3.93-49.507-.5-2.93-1.062-6.248-1.572-9.443a335.573,335.573,0,0,1-1.618-94.11A384.018,384.018,0,0,1,25.975,412.5,658.345,658.345,0,0,1,76.5,309.119c27.336-45.105,60.938-83.915,99.87-115.351,20.182-16.3,42.068-33.1,68.15-43.6,12.075-4.867,24.122-10.413,35.772-15.776,15.071-6.939,30.626-14.1,46.4-19.869C370.828,98.366,418.657,83.379,469.337,83.1q2.176-.011,4.355-.012c20.558,0,41.461.767,61.676,1.508l.049,0,.044,0c13.733.5,27.933,1.025,41.9,1.3,4.41.088,9.113.13,14.38.13,6.977,0,14.063-.076,20.916-.15l1.064-.011h.094c6.457-.067,13.133-.137,19.7-.137q3.052,0,6.1.022c.512,0,1.027.005,1.539.005,36.975,0,72.939-9.21,107.718-18.116,5.78-1.48,11.757-3.011,17.65-4.475,97.114-24.137,185.164-39.639,269.181-47.394,17.689-1.632,35.665-3.511,53.049-5.328l.183-.019C1125.551,6.6,1163.41,2.642,1200.755.753c9.891-.5,19.716-.753,29.2-.753,70.482,0,131.05,13.6,185.167,41.587,31.208,16.138,61.15,39.072,94.229,72.175,9.965,9.972,20.345,19.82,30.383,29.344,15.764,14.956,32.052,30.41,47.008,46.6,15.355,16.633,33.5,29.964,51.056,42.855,3.364,2.47,7.176,5.27,10.821,7.992,13.247,9.882,27.682,18.64,41.642,27.109l.13.079q2.719,1.65,5.435,3.3c31.45,19.161,66.6,30.675,100.6,41.81,10.214,3.346,20.776,6.8,31.081,10.42,25.786,9.049,51.6,19.344,76.574,29.3,7.382,2.944,15.75,6.281,23.782,9.445,1.276.5,2.175,2.022,3.045,3.492a19.177,19.177,0,0,0,1.459,2.23,2.625,2.625,0,0,0,1.67,1.078h.124c9.26,0,15.347,4.87,20.546,10.132,2.109,2.137,5.186,3.356,8.161,4.536a28.139,28.139,0,0,1,7.453,3.833c4.818,3.917,9.765,7.844,14.55,11.642,15.732,12.487,32,25.4,46.143,39.916,13.812,14.19,27.091,31.78,41.792,55.357a443.969,443.969,0,0,1,32.2,62.782c9.594,22.842,16.891,46.969,22.979,67.79A367.467,367.467,0,0,1,2140.9,763.771c-4.375,45.385-17.29,91.615-38.386,137.4-6.87,14.917-15.327,30.977-26.617,50.54a123.4,123.4,0,0,1-10.716,14.908c-2.45,3.075-4.982,6.251-7.259,9.507-1.959,2.805-3.7,5.831-5.382,8.758-1.746,3.037-3.552,6.177-5.609,9.078-19.9,28.134-46.577,54.114-83.95,81.761-3.456,2.556-6.815,5.364-10.062,8.08-2.09,1.747-4.244,3.548-6.4,5.265a29.735,29.735,0,0,1-5.509,3.486c-5.857,2.834-11.864,5.715-17.164,8.258l-.081.039c-11.394,5.467-23.175,11.12-34.685,16.837a10.784,10.784,0,0,0-3.191,3.018c-1.095,1.346-2.129,2.618-3.5,3.083-1.486.5-3.013.967-4.489,1.418l-.048.014c-6.812,2.079-13.856,4.228-18.768,10.4-1.1-1.361-2.167-2.051-3.2-2.051a3.7,3.7,0,0,0-2.856,1.932,13.932,13.932,0,0,0-.886,1.489c-.158.3-.24.447-.275.447a13.19,13.19,0,0,0-3.778-.591c-4.738,0-8.057,3.055-11.266,6.01-2.5,2.3-5.093,4.686-8.31,5.538a26.976,26.976,0,0,0-3.641,1.366,15.2,15.2,0,0,1-5.673,1.638c-.118,0-.235,0-.353-.01-.043,0-.087,0-.13,0a7.467,7.467,0,0,0-3.506,1.561c-1.222.787-2.485,1.6-3.624,1.6-1.475,0-2.533-1.33-3.331-4.188q-1.238.763-2.473,1.532l-.04.025c-2.046,1.271-4.161,2.585-6.282,3.832-3.724,2.2-7.161,4.048-11.509,4.4l1.5-1.1.309-.226q1.4-1.026,2.8-2.046c-52.326,12.706-103.66,24.1-156.32,24.1-11.221,0-22.347-.529-33.069-1.572.067,1.211.133,2.414.206,3.625l103.21-2.934c.04.076.077.151.112.223l.054.11c-4.36.457-8.79.975-13.074,1.476l-.1.012-.047.006c-9.435,1.1-19.191,2.243-28.824,2.817C1656.706,1185.117,1648.564,1185.359,1640.507,1185.359Zm101.1-24.356-1.947.527-.115.031q-2.588.7-5.182,1.391a2.209,2.209,0,0,1-.544.053,3.462,3.462,0,0,0-.381.02q-39.876,5.778-79.739,11.563c-.044.406-.083.813-.121,1.218l-.005.059q8.742-1.179,17.487-2.347l1.11-.149c20.067-2.687,40.818-5.466,61.222-8.382a15.752,15.752,0,0,0,5.632-2.507C1739.869,1161.966,1740.738,1161.438,1741.605,1161ZM1587.354,963.964a8.006,8.006,0,0,0-1.682.159c-.221.046-.355.526-.484.99-.057.206-.116.418-.182.587.334.084.675.193,1.005.3a7.755,7.755,0,0,0,2.188.474c2.768.03,5.738.044,9.628.044q2.625,0,5.25-.005t5.252-.006l-.106-.592q-3.337-.321-6.669-.648c-3.941-.385-8.407-.82-12.776-1.228C1588.238,963.988,1587.772,963.964,1587.354,963.964ZM1708,936.77c-4.562,0-9.206.392-13.7.771l-.689.058c-11.186.936-22.556,1.952-33.552,2.935l-.109.01c-23.265,2.079-47.321,4.229-71.025,5.75-24.831,1.592-50.117,2.6-74.57,3.565-10.548.418-21.451.85-32.332,1.332l-.1,1.337c2.17.414,4.371.913,6.5,1.4l.075.017a90.287,90.287,0,0,0,14.3,2.446c7.931.485,16.059.72,24.847.72,22.222,0,44.775-1.565,66.584-3.079q5.436-.378,10.873-.748c3.42-.233,7.032-.342,11.368-.342,3.548,0,7.16.075,10.653.147h.06c3.567.075,7.257.153,10.88.153,2.22,0,4.221-.028,6.118-.086.909-.031,1.912-.044,3.252-.044q.822,0,1.657,0h.068l1.271,0c6.652,0,12.936-.255,16.7-3.335,4.82-3.936,8.977-4.5,13.525-4.8.288-.019.586-.029.888-.029a30.873,30.873,0,0,1,5.477.674l.078.014a30.716,30.716,0,0,0,5.391.66,12.105,12.105,0,0,0,1.558-.095,49.775,49.775,0,0,0,10.676-3.079c1.455-.539,2.959-1.1,4.453-1.585.92-.3,1.844-.644,2.738-.977l.041-.015q.527-.2,1.053-.391a15.53,15.53,0,0,1-1.153-1.3c-.845-1.022-1.711-2.069-2.579-2.082Q1708.64,936.77,1708,936.77Zm-315.255-8.884c0,.9.006,1.8.013,2.708,8.113,3.9,36.741,6.053,80.608,6.054,40.319,0,89.153-1.874,130.648-5.012,45.745-3.459,77.135-7.974,88.388-12.711-15.536.93-31.1,1.975-46.157,2.986-33.909,2.275-68.96,4.626-103.35,5.65-17.383.516-36.01.756-58.622.756-15.279,0-30.778-.109-45.767-.215h-.043c-14.985-.106-30.481-.215-45.719-.215Zm-742.086-1.164a1.067,1.067,0,0,0-.116.006c-3.82.418-7.689,1.026-11.431,1.614-1.253.2-2.471.388-3.69.574.494.649,1.011,1.5,1.511,2.329,1.031,1.7,2,3.3,2.8,3.3a.586.586,0,0,0,.068,0,46.431,46.431,0,0,0,10.4-2.93l.056-.021c.761-.28,1.521-.559,2.281-.827.306-.109.636-.771.792-1.338.115-.419.125-.74.027-.857C652.639,927.718,651.507,926.722,650.659,926.722Zm16.966-26.46a9.1,9.1,0,0,0-1.1.055c-1.4.169-2.809.4-4.176.622l-.124.02c-.589.1-1.178.191-1.767.283a18.966,18.966,0,0,1,1.353,1.615c.963,1.238,1.953,2.51,3.111,2.715,4.868.857,9.8,1.352,15.015,1.875l.188.019c1.917.192,3.9.392,5.919.614-2.051-5.091-8.2-8.645-12.446-8.645a6.04,6.04,0,0,0-2.535.5,5.165,5.165,0,0,1-2.138.341c-.223,0-.449,0-.676-.009C668.043,900.266,667.833,900.262,667.625,900.262Zm996.35-23.455c-107.308,2.382-220.277,4.89-319.9,7.105,41.318,3.649,84.267,5.508,127.652,5.508A1431.2,1431.2,0,0,0,1663.975,876.807Zm-310.614-1.677h0l-.008.332c-.006.218-.012.435-.012.646h84.722c0-.164.005-.331.007-.5v-.068l.006-.412Zm298.273-52.084h0c-2.719.182-5.525.4-8,.589-5.706.44-11.581.892-17.366,1.06-17.63.5-35.556.971-52.891,1.429h-.048c-35.449.936-72.1,1.9-108.209,3.134-4.108.141-8.23,1.8-12.217,3.414-1.852.748-3.763,1.518-5.646,2.127q.489,1.747.991,3.48c6.886.135,14.023.206,21.2.206,56.19,0,115.823-4.272,182.308-13.059-.02-.4-.042-.794-.063-1.189S1651.654,823.445,1651.634,823.046Zm-351.907,2.768h0q-10.808,1.117-21.617,2.246l-.94.1-11.232,1.169.138,1.477.082.871q9.089-.84,18.179-1.675l4.109-.378,11.647-1.073-.034-.256c-.109-.827-.218-1.658-.332-2.478Zm310.461-7.991v.007l-145.361,4.144.008.184c.064,1.435.127,2.864.185,4.3q34.825-1.565,69.657-3.128l2.937-.132q36.3-1.629,72.594-3.26l-.01-1.054-.01-1.055Zm-114.513-30.515c-.007,1.011-.02,2.029-.033,3.04l26.392,1.544c.033-1.1.06-2.189.086-3.286Zm9.531-11.263c-2.413,0-5.016.846-8.031,1.825-1.821.591-3.873,1.258-6.151,1.827,9.511,2.53,29.18,3.931,55.384,3.932a1091.384,1091.384,0,0,0,118.442-7.034c31.043-3.609,72.091-10.023,91.357-20.083-1.255.142-2.338.26-3.314.366-1.622.176-2.893.314-4.19.479-12.658,1.613-25.519,3.363-37.956,5.056l-.1.014c-28.62,3.9-58.2,7.921-87.409,10.57l-2.541.231c-25.4,2.309-51.672,4.7-77.613,4.7a347.329,347.329,0,0,1-36.847-1.828A9.945,9.945,0,0,0,1505.207,776.045Zm285.137-43.5c-77.262,16.114-155.923,21.862-231.995,27.422,5.593.07,11.491.114,17.518.114C1660.877,760.079,1729.028,751.33,1790.343,732.543Zm-42.8-31.653-61.223,7.314c-28.179,3.366-55.788,6.664-83.393,9.963,2.092.013,4.163.017,5.734.017,55.413,0,98.246-5.334,138.882-17.294Zm-137.9-24c-42.415.263-75.149.594-106.137,1.071-1.648.023-3.311,1-4.918,1.945-.764.449-1.531.9-2.286,1.248.727.322,1.462.725,2.172,1.116a12.208,12.208,0,0,0,4.786,1.845c10.088.666,20.456,1,30.815,1a559.9,559.9,0,0,0,84.463-6.712c-.951-.168-1.918-.39-2.853-.605a27.093,27.093,0,0,0-5.955-.912h-.087Zm-232.537.314c2.535,0,4.631.074,6.6.232,9.231.75,18.492,1.84,27.447,2.894l.04,0c3.688.434,7.5.883,11.191,1.292.661-.124,1.263-.216,1.844-.306a16.731,16.731,0,0,0,3.125-.672c1.539-.56,3.058-1.262,4.526-1.941.652-.3,1.281-.592,1.913-.873-.689-.41-1.384-.926-2.055-1.425-1.458-1.085-2.957-2.2-4.511-2.327-25.319-2-52.007-3.912-83.99-6-.044,0-.089,0-.135,0-1.418,0-3.786,1.255-4.116,2.426a5.05,5.05,0,0,0,.9,3.244c.411.656.845,1.068,1.191,1.127a171.621,171.621,0,0,0,20.151,2.381c1.413.072,2.939.106,4.665.106,1.891,0,3.862-.042,5.6-.08S1375.227,677.2,1377.112,677.2Zm328.862-15.129h0l-5.942.632-61.836,6.573.04.514.119,1.515q34.118-2.345,68.23-4.7-.153-1.119-.3-2.242l-.053-.4q-.127-.95-.256-1.9ZM225.889,597.553h0l-5.277,2.454-5.753,2.675.576,1.274.576,1.274,6.2-2.575,5.028-2.082-.035-.078q-.661-1.467-1.315-2.942Zm1122.582-29.817h0q-14.13,1.387-28.26,2.781l.2,1.465.275,1.975q7.075-.894,14.15-1.783t14.15-1.783l-.259-1.328Zm-198.483-12.561q-.046.519-.088,1.04-.042.5-.085,1h43.768c-.013-.339-.028-.68-.043-1.021s-.03-.682-.043-1.021Zm-231.567-9.786-11.649,1.271-1.734.189-9.915,1.081c.044.428.093.858.143,1.29l.077.68,9.729-1.025,13.575-1.43C918.574,546.76,918.5,546.074,918.421,545.389Zm155.261-29.864v.007c12.142.7,24.472,1.92,36.4,3.1,18.529,1.837,37.688,3.737,56.6,3.737,3.111,0,6.2-.052,9.17-.154.015-.518.034-1.037.052-1.556l0-.107q.03-.847.057-1.7l-51.143-1.667Zm-784.7-26.533c-6.334,0-16.832,2.944-27.4,7.683s-17.733,9.719-18.705,13l18.1-7.746,2.092-.9c8.942-3.826,18.053-7.725,27.867-11.929A16.419,16.419,0,0,0,288.982,488.992ZM246.14,471.557h0q-.206.461-.407.924c-.339.775-.687,1.57-1.064,2.342l-.08.164a3.333,3.333,0,0,1-.9,1.307,12.411,12.411,0,0,1-1.634.852c-.636.3-1.186.55-1.154.678.379,1.489.985,3.493,1.863,3.7.356.082.718.167,1.083.254a27.4,27.4,0,0,0,6.1.978,8.436,8.436,0,0,0,2.5-.341c9.953-3.039,11.39-5.952,9.607-19.479-2.6.578-3.986,3.007-5.329,5.357-1.472,2.576-2.863,5.008-5.7,5.008a9.7,9.7,0,0,1-4.882-1.743Zm769.432-57.073c-3.709,0-6.943.039-9.887.119-13.129.353-25.245,1.008-37.042,2-9.427.791-18.977,1.9-28.211,2.975-3.967.462-8.069.939-12.157,1.389l.3,3.034.184,1.9q5.866-.459,11.731-.931l.088-.007c10.064-.8,20.471-1.633,30.712-2.349,5.122-.359,10.582-.709,16.086-.709,1.123,0,2.229.015,3.287.044,3.545.1,7.149.427,10.635.745,4.195.383,8.507.777,12.74.777.886,0,1.75-.017,2.571-.051,7.462-.3,15.032-.977,22.353-1.628,7.5-.669,15.25-1.359,22.885-1.652.478-.019.975-.029,1.478-.029a82.43,82.43,0,0,1,11.525,1.1c2.943.42,5.967.852,8.944,1.025.046,0,.092,0,.138,0,1.164,0,2.4-.885,3.591-1.741a19.206,19.206,0,0,1,1.72-1.144,11.9,11.9,0,0,1-.754-1.119c-.531-.853-1.079-1.734-1.754-1.861q-1.146-.213-2.3-.433l-.235-.045a92.449,92.449,0,0,0-15.119-2.024c-1.016-.021-2.079-.032-3.161-.032-4.545,0-9.17.187-13.643.368l-.049,0c-3.886.157-7.885.319-11.82.361-1.479.016-3.052.023-4.808.023-3.1,0-6.341-.026-9.2-.049l-.936-.008C1022.226,414.515,1018.892,414.484,1015.572,414.484Zm91,3.316c-2.329,0-5.088.011-7.9.1a.541.541,0,0,0-.335.224,2.894,2.894,0,0,0-.676,1.739c.083.783.83,2.215,1.246,2.215,3.753-.236,7.542-.626,11.206-1q1.341-.138,2.675-.273l-.146-2.185-.053-.8h-.14q-1.433,0-2.868,0h-.273Q1107.937,417.8,1106.568,417.8ZM147.513,317.913h0c-.267.164-.573.312-.868.455a3.6,3.6,0,0,0-1.64,1.182,9.8,9.8,0,0,0-.722,3.449c1.984.466,3.075,1.085,3.33,1.888.313.984-.65,2.07-1.582,3.121a10.078,10.078,0,0,0-1.1,1.381c-9.073,15.335-18.362,30.884-27.345,45.921l-.032.054-6.824,11.424q.737.486,1.473.966l.064.042q.759.5,1.517.995l56.568-91.076a195.014,195.014,0,0,0-13.558,15.194l-.04.048q-1.6,1.919-3.2,3.832a9.96,9.96,0,0,0-.982,1.616c-.673,1.265-1.369,2.572-2.321,2.572-.824,0-1.72-1-2.737-3.064Zm969.164,60.1c-.441,0-.907.02-1.383.058-13.937,1.13-27.959,2.2-41.52,3.24l-.173.013q-7.842.6-15.686,1.2l-.018.75-.042,1.772,1.811.164.393.037c1.661.156,3.36.315,5.034.4q5.62.258,11.239.53c12.667.605,25.765,1.231,38.71,1.572l.2,0c3.078,0,8.285-1.577,8.431-2.823a6.054,6.054,0,0,0-1.2-4.917c-1.182-1.328-3.13-2-5.791-2Zm-18.624-14.491c-3.364,0-6.973.163-11.033.5-43.012,3.565-86.156,10.868-131.9,22.326,1.735.21,3.146.463,4.279.666a19.8,19.8,0,0,0,3.238.426,4.582,4.582,0,0,0,1.151-.134c7.228-1.855,14.725-1.86,21.976-1.865,9.6-.006,19.533-.013,29.3-4.209,9.353-4.021,20.461-4.4,31.2-4.775,4.032-.139,8.167-.282,12.131-.613q.283-.023.569-.023a17.486,17.486,0,0,1,5.913,1.518c1.011.385,2.037.775,3.038,1.06.769-3.314,2.227-4.86,4.58-4.86a15.723,15.723,0,0,1,4.709,1.107l.117.04a16.61,16.61,0,0,0,5.024,1.147,5.154,5.154,0,0,0,4.763-3.1c.222-.417.858-.62,1.945-.62a39.588,39.588,0,0,1,5.558.689l.587.1a46.333,46.333,0,0,0,7.047.791c.349,0,.681-.011.989-.032,2.134-.151,4.214-1.548,6.225-2.9.919-.617,1.861-1.249,2.8-1.758a24.362,24.362,0,0,1-1.881-1.952c-1.333-1.488-2.712-3.027-4.2-3.164C1103.634,363.639,1100.9,363.518,1098.053,363.518Zm5.506-18.969-.08,0c-3.807.211-7.691.367-11.446.517l-.076,0c-10.761.429-21.888.873-32.605,2.68-27.724,4.668-55.76,10.353-82.873,15.851l-.038.008q-5.306,1.077-10.613,2.15c-7.2,1.453-14.418,3.394-21.4,5.271l-.041,0,0,.007c-3.235.87-6.581,1.77-9.881,2.609l.5,3.306c.8-.036,1.611-.037,2.4-.038a25.066,25.066,0,0,0,5.189-.367c4.093-.885,8.209-1.9,12.19-2.88,6.965-1.715,14.137-3.482,21.287-4.591,25.955-4.015,52.306-7.9,77.79-11.654,16.311-2.4,33.177-4.889,49.915-7.406a5.646,5.646,0,0,0,2.659-1.763,15.046,15.046,0,0,1,1.2-1.064,15.141,15.141,0,0,1-1.312-1.043C1105.4,345.361,1104.448,344.549,1103.559,344.549ZM404.128,336h0l-47.094,17.037.345.947c.193.528.386,1.057.573,1.581l47.52-17.343-.365-.607C404.776,337.062,404.453,336.527,404.128,336Zm-105.552-3.439q-6.166,3.3-12.333,6.6l-5.6,2.993q.3.541.593,1.085l.023.041q.517.948,1.04,1.894l8.925-5.01,8.6-4.829-.513-1.131Zm776.668-25.574a24.087,24.087,0,0,0-3.405.26q-6.654.951-13.308,1.9l-.063.009c-20.023,2.85-40.728,5.8-61.059,8.918l-1.406.216c-12.962,1.986-26.364,4.04-39.288,7.129-11.81,2.83-23.259,6.151-35.38,9.667-5.135,1.489-10.446,3.03-15.765,4.524,1.266.183,2.58.486,3.851.778a29.021,29.021,0,0,0,6.3.978,10.533,10.533,0,0,0,1.961-.173c16.779-3.168,33.764-6.532,50.19-9.785l.168-.034c19.192-3.8,39.038-7.73,58.6-11.357,10.8-2.005,21.89-3.472,32.615-4.889,6.2-.82,12.586-1.664,18.844-2.6a5.633,5.633,0,0,0,2.6-1.7,14.685,14.685,0,0,1,1.195-1.036c-.359-.27-.714-.588-1.057-.9a5.967,5.967,0,0,0-2.516-1.625A15.973,15.973,0,0,0,1075.244,306.983Zm2.476-6.313-19.313,2.029c.035.387.064.779.094,1.171q.04.533.079,1.064l6.455-.505,12.9-1.011c-.044-.607-.094-1.212-.144-1.818l-.076-.93Zm-100.735-31.4q-17.473,3.543-34.94,7.105l.218.961.009.038c.149.658.3,1.316.452,1.974l4.936-1.188,29.718-7.154-.1-.443Q977.128,269.91,976.985,269.269Zm585.131-53.448a11.8,11.8,0,0,1-.055,1.343,4.074,4.074,0,0,0,.294,2.589c2.122,2.83,4.2,5.76,6.213,8.594,9.975,14.048,20.288,28.573,38.234,34.842,1.41.494,2.888.856,4.319,1.206l.047.011c.644.158,1.288.315,1.928.486.133-.673.266-1.351.393-2.029-2.081-1.827-4.365-3.577-6.573-5.268-4.921-3.77-10.009-7.668-13.172-12.668-7.212-11.383-16.864-19.282-27.083-27.645l-1.191-.975a3.7,3.7,0,0,0-2.207-.434A10.539,10.539,0,0,1,1562.116,215.821ZM538.937,193.6c-42.574,0-87.281,8.419-140.7,26.5q82.347-12.793,164.708-25.573C555.116,193.919,547.037,193.6,538.937,193.6Zm993.807-8.784,0,0c3.338,2.65,6.679,5.307,10.907,8.671l2.461,1.957c-1.753-4.851-3.08-8.512-4.252-11.742l-1.436-3.959c-2.519,1.664-5.1,3.366-7.684,5.069l-.139-.185c1.674-4.61,1.824-7.751.484-10.194-1.5-2.726-4.946-4.607-10.857-5.92l.657,1.035c3.341,5.264,6.5,10.234,9.716,15.079l-.134.365.268-.177ZM1005.462,71.93a.5.5,0,0,0-.15.021c-3.708,1.133-7.42,2.472-11.01,3.766l-.088.032q-1.688.609-3.379,1.212l.622,1.46.682,1.6c1.231-.259,2.466-.507,3.7-.754,3.342-.671,6.792-1.363,10.117-2.28.964-.268,1.707-2.2,1.949-3.353.014-.073-.038-.183-.156-.327A4.387,4.387,0,0,0,1005.462,71.93ZM1236.326,11.3c-86.73,3.874-163.087,10.161-233.435,19.222C919.984,41.2,844.715,55.716,772.78,74.9c69.815-17.292,145.2-30.919,230.466-41.675C1084.33,23,1166.571,16.4,1236.326,11.3ZM1084.14,66.748h0q-2.467.2-4.935.39l-.272.021-.047,0c-5.194.4-10.565.815-15.82,1.475-.7.087-1.283,1.18-1.846,2.237a14.733,14.733,0,0,1-.8,1.375,12.062,12.062,0,0,1,1.184.494,5.711,5.711,0,0,0,2.172.687,1.806,1.806,0,0,0,.336-.03c4.9-.936,9.839-2.033,14.619-3.094l.345-.077q2.51-.557,5.021-1.107Zm126.207-8.886c-.68,0-1.358.01-2.015.031-7.067.224-14.227,1-21.152,1.753l-.375.041c-1.864.2-3.727.4-5.589.595-7.656.786-15.572,1.6-23.484,2.788a67.612,67.612,0,0,0-11.265,3.043c-1.24.414-2.917,1.835-2.852,2.618a4.385,4.385,0,0,0,2.615,3.093,12.836,12.836,0,0,0,3.225.338c.644,0,1.3-.025,1.94-.049.453-.017.879-.034,1.3-.043,4.412-.1,8.886-.218,13.213-.336,8.514-.232,17.318-.471,26.032-.529q.437,0,.873,0c3.769,0,7.405.142,11.767.328,3.863.165,7.857.336,11.808.336q.42,0,.839,0c8.777-.048,17.693-.308,26.314-.561l.2-.006q5.083-.148,10.165-.285,11.161-.291,22.325-.589l3.361-.089,1.971-.052q11.774-.312,23.549-.621c0-.407,0-.813,0-1.217s0-.8,0-1.2q-2.82-.784-5.639-1.574l-.439-.123c-6.751-1.887-13.724-3.836-20.6-5.674a.775.775,0,0,0-.2-.025,2.667,2.667,0,0,0-1.106.4l-.047.025a2.909,2.909,0,0,1-1.213.426c-12.644-.317-25.338-.718-34.984-1.031-3.45-.114-7.113-.291-11.529-.559-2.272-.138-4.565-.339-6.783-.533C1218.57,58.226,1214.419,57.862,1210.347,57.862Zm-84.055,6.9c-7.072,0-14.2.106-21.1.208l-.687.01q-3.486.051-6.973.1l.119,4,6.535.432,1.091.073c8.467.567,17.221,1.154,25.884,1.53h.049c.811,0,1.675-.887,2.51-1.745a14.318,14.318,0,0,1,1.206-1.15,15.134,15.134,0,0,1-.98-1.337c-.7-1.031-1.421-2.091-2.14-2.1Q1129.049,64.761,1126.292,64.762Z" transform="translate(0.002 0)" fill="#ecfcfa"/>
  </g>
</svg>
