<svg xmlns="http://www.w3.org/2000/svg" xmlns:xlink="http://www.w3.org/1999/xlink" width="123.868" height="40" viewBox="0 0 123.868 40">
  <defs>
    <clipPath id="clip-path">
      <path id="path10273" d="M1868.884-489.415c-.071,5.572,4.966,8.681,8.76,10.53,3.9,1.9,5.208,3.113,5.192,4.809-.03,2.6-3.109,3.742-5.992,3.786a20.91,20.91,0,0,1-10.277-2.444l-1.812,8.477a30.137,30.137,0,0,0,11.129,2.053c10.511,0,17.389-5.189,17.426-13.234.041-10.21-14.123-10.776-14.027-15.339.033-1.384,1.354-2.86,4.248-3.236a18.84,18.84,0,0,1,9.868,1.73l1.759-8.2a26.824,26.824,0,0,0-9.366-1.718c-9.894,0-16.853,5.259-16.909,12.788m43.18-12.081a4.562,4.562,0,0,0-4.259,2.838l-15.016,35.853h10.5l2.09-5.776h12.836l1.213,5.776h9.258l-8.079-38.691h-8.547m1.469,10.452,3.031,14.529h-8.3l5.271-14.529M1856.148-501.5l-8.28,38.691h10.009l8.276-38.691h-10.006m-14.808,0-10.418,26.334-4.214-22.392a4.666,4.666,0,0,0-4.616-3.943H1805.06l-.238,1.123a41.67,41.67,0,0,1,9.875,3.292c1.473.8,1.893,1.5,2.377,3.4l7.982,30.876h10.579l16.217-38.691H1841.34" transform="translate(-1804.822 502.203)" fill="#ccc"/>
    </clipPath>
  </defs>
  <g id="layer1" transform="translate(-334.703 -537.424)">
    <g id="g10267" transform="translate(334.703 537.424)">
      <g id="g10269" transform="translate(0 0)" clip-path="url(#clip-path)">
        <g id="g10275" transform="translate(-12.971 -40.17)">
          <path id="path10283" d="M0-135.758,122.047-180.7l27.765,75.394L27.766-60.364" transform="translate(0 180.705)" fill="#ccc"/>
        </g>
      </g>
    </g>
  </g>
</svg>
