<svg id="Layer_2" data-name="Layer 2" xmlns="http://www.w3.org/2000/svg" width="113.93" height="113.93" viewBox="0 0 113.93 113.93">
  <g id="Layer_1" data-name="Layer 1">
    <circle id="Ellipse_9" data-name="Ellipse 9" cx="3.85" cy="3.85" r="3.85" transform="translate(0 0)" fill="#de2e8d"/>
    <circle id="Ellipse_10" data-name="Ellipse 10" cx="3.85" cy="3.85" r="3.85" transform="translate(26.56 0)" fill="#de2e8d"/>
    <circle id="Ellipse_11" data-name="Ellipse 11" cx="3.85" cy="3.85" r="3.85" transform="translate(79.67 0)" fill="#de2e8d"/>
    <circle id="Ellipse_12" data-name="Ellipse 12" cx="3.85" cy="3.85" r="3.85" transform="translate(106.23 0)" fill="#de2e8d"/>
    <circle id="Ellipse_13" data-name="Ellipse 13" cx="3.85" cy="3.85" r="3.85" transform="translate(53.11 0)" fill="#de2e8d"/>
    <circle id="Ellipse_14" data-name="Ellipse 14" cx="3.85" cy="3.85" r="3.85" transform="translate(0 26.56)" fill="#de2e8d"/>
    <circle id="Ellipse_15" data-name="Ellipse 15" cx="3.85" cy="3.85" r="3.85" transform="translate(26.56 26.56)" fill="#de2e8d"/>
    <circle id="Ellipse_16" data-name="Ellipse 16" cx="3.85" cy="3.85" r="3.85" transform="translate(79.67 26.56)" fill="#de2e8d"/>
    <circle id="Ellipse_17" data-name="Ellipse 17" cx="3.85" cy="3.85" r="3.85" transform="translate(106.23 26.56)" fill="#de2e8d"/>
    <circle id="Ellipse_18" data-name="Ellipse 18" cx="3.85" cy="3.85" r="3.85" transform="translate(53.11 26.56)" fill="#de2e8d"/>
    <circle id="Ellipse_19" data-name="Ellipse 19" cx="3.85" cy="3.85" r="3.85" transform="translate(0 53.11)" fill="#de2e8d"/>
    <circle id="Ellipse_20" data-name="Ellipse 20" cx="3.85" cy="3.85" r="3.85" transform="translate(26.56 53.11)" fill="#de2e8d"/>
    <circle id="Ellipse_21" data-name="Ellipse 21" cx="3.85" cy="3.85" r="3.85" transform="translate(79.67 53.11)" fill="#de2e8d"/>
    <circle id="Ellipse_22" data-name="Ellipse 22" cx="3.85" cy="3.85" r="3.85" transform="translate(106.23 53.11)" fill="#de2e8d"/>
    <circle id="Ellipse_23" data-name="Ellipse 23" cx="3.85" cy="3.85" r="3.85" transform="translate(53.11 53.11)" fill="#de2e8d"/>
    <circle id="Ellipse_24" data-name="Ellipse 24" cx="3.85" cy="3.85" r="3.85" transform="translate(0 79.67)" fill="#de2e8d"/>
    <circle id="Ellipse_25" data-name="Ellipse 25" cx="3.85" cy="3.85" r="3.85" transform="translate(26.56 79.67)" fill="#de2e8d"/>
    <circle id="Ellipse_26" data-name="Ellipse 26" cx="3.85" cy="3.85" r="3.85" transform="translate(79.67 79.67)" fill="#de2e8d"/>
    <circle id="Ellipse_27" data-name="Ellipse 27" cx="3.85" cy="3.85" r="3.85" transform="translate(106.23 79.67)" fill="#de2e8d"/>
    <circle id="Ellipse_28" data-name="Ellipse 28" cx="3.85" cy="3.85" r="3.85" transform="translate(53.11 79.67)" fill="#de2e8d"/>
    <circle id="Ellipse_29" data-name="Ellipse 29" cx="3.85" cy="3.85" r="3.85" transform="translate(0 106.23)" fill="#de2e8d"/>
    <circle id="Ellipse_30" data-name="Ellipse 30" cx="3.85" cy="3.85" r="3.85" transform="translate(26.56 106.23)" fill="#de2e8d"/>
    <circle id="Ellipse_31" data-name="Ellipse 31" cx="3.85" cy="3.85" r="3.85" transform="translate(79.67 106.23)" fill="#de2e8d"/>
    <circle id="Ellipse_32" data-name="Ellipse 32" cx="3.85" cy="3.85" r="3.85" transform="translate(106.23 106.23)" fill="#de2e8d"/>
    <circle id="Ellipse_33" data-name="Ellipse 33" cx="3.85" cy="3.85" r="3.85" transform="translate(53.11 106.23)" fill="#de2e8d"/>
  </g>
</svg>
