<svg id="github" xmlns="http://www.w3.org/2000/svg" width="40.002" height="40.002" viewBox="0 0 40.002 40.002">
  <path id="Path_31" data-name="Path 31" d="M20,0A20,20,0,1,0,40,20,20,20,0,0,0,20,0Z"/>
  <path id="Path_32" data-name="Path 32" d="M27.131,15.59a12.08,12.08,0,0,0-3.837,23.533c.605.111.826-.263.826-.584V36.486c-3.358.732-4.069-1.616-4.069-1.616A3.205,3.205,0,0,0,18.709,33.1c-1.1-.747.079-.732.079-.732a2.532,2.532,0,0,1,1.853,1.242,2.572,2.572,0,0,0,3.511,1.005A2.563,2.563,0,0,1,24.92,33c-2.679-.305-5.5-1.342-5.5-5.969A4.653,4.653,0,0,1,20.662,23.8a4.363,4.363,0,0,1,.121-3.195s1.011-.326,3.316,1.237a11.485,11.485,0,0,1,6.048,0c2.305-1.579,3.316-1.237,3.316-1.237a4.363,4.363,0,0,1,.121,3.195,4.653,4.653,0,0,1,1.242,3.237c0,4.637-2.826,5.658-5.516,5.958a2.874,2.874,0,0,1,.821,2.237v3.311c0,.395.221.7.832.579A12.074,12.074,0,0,0,27.131,15.59Z" transform="translate(-7.13 -7.384)" fill="#fff"/>
</svg>
