<svg xmlns="http://www.w3.org/2000/svg" width="122.347" height="48.043" viewBox="0 0 122.347 48.043">
  <g id="Logo" transform="translate(-244.416 -9.991)">
    <g id="pris" transform="translate(290.219 13.618)">
      <path id="Path_2" data-name="Path 2" d="M123.419,46.5A2.078,2.078,0,0,1,122.4,44.61a2.228,2.228,0,0,1,2.2-2.251h.051a2.377,2.377,0,0,1,1.177.307,12.96,12.96,0,0,0,6.907,2.3c2.354,0,3.735-1.023,3.735-2.609v-.1c0-1.893-2.558-2.507-5.372-3.377-3.53-1.023-7.521-2.456-7.521-7.061v-.1c0-4.554,3.786-7.317,8.544-7.317a16.98,16.98,0,0,1,7.572,1.944,2.312,2.312,0,0,1,1.33,2.1,2.271,2.271,0,0,1-2.251,2.251h-.051a2.75,2.75,0,0,1-1.074-.256,12.8,12.8,0,0,0-5.628-1.637c-2.149,0-3.377,1.023-3.377,2.354v.1c0,1.791,2.609,2.507,5.423,3.428,3.53,1.074,7.47,2.712,7.47,7.01v.1c0,5.065-3.94,7.572-8.9,7.572A16.872,16.872,0,0,1,123.419,46.5Z" transform="translate(-71.946 -15.086)" fill="#ff1d97"/>
      <path id="Path_3" data-name="Path 3" d="M163.8,27.165a2.73,2.73,0,0,1,2.661-2.763h.051a2.751,2.751,0,0,1,2.763,2.763h0V28.8a9.652,9.652,0,0,1,8.186-4.5c5.628,0,11.154,4.451,11.154,12.484v.1c0,7.982-5.475,12.484-11.154,12.484a9.788,9.788,0,0,1-8.186-4.247v8.493a2.751,2.751,0,0,1-2.763,2.763h0a2.73,2.73,0,0,1-2.712-2.712v-26.5Zm19.289,9.721v-.1c0-4.656-3.121-7.675-6.856-7.675s-7.01,3.121-7.01,7.675v.1c0,4.6,3.275,7.675,7.01,7.675S183.088,41.645,183.088,36.886Z" transform="translate(-163.797 -15.038)" fill="#ff1d97"/>
      <path id="Path_4" data-name="Path 4" d="M216.451,27.256a2.73,2.73,0,0,1,2.661-2.763h.051a2.751,2.751,0,0,1,2.763,2.763h0v1.33c.256-2.047,3.633-4.093,6.037-4.093a2.521,2.521,0,0,1,2.712,2.3V27.2a2.652,2.652,0,0,1-2.2,2.661c-3.94.665-6.6,4.093-6.6,8.851v7.931a2.738,2.738,0,0,1-5.475.051v-.051l.051-19.391Z" transform="translate(-189.486 -15.129)" fill="#ff1d97"/>
      <path id="Path_5" data-name="Path 5" d="M248.6,27.363a2.73,2.73,0,0,1,2.661-2.763h.051a2.751,2.751,0,0,1,2.763,2.763h0V46.754a2.737,2.737,0,0,1-5.475,0Z" transform="translate(-205.209 -15.184)" fill="#ff1d97"/>
      <path id="Path_8" data-name="Path 8" d="M254.126,8.961A2.763,2.763,0,1,1,251.363,6.2h0a2.73,2.73,0,0,1,2.763,2.661Z" transform="translate(-205.211 -6.197)" fill="#ff1d97"/>
      <path id="Path_13" data-name="Path 13" d="M254.126,8.961A2.763,2.763,0,1,1,251.363,6.2h0a2.73,2.73,0,0,1,2.763,2.661Z" transform="translate(-177.582 22.455)" fill="#ff1d97"/>
    </g>
    <g id="Group_7" data-name="Group 7" transform="translate(244.416 9.991)">
      <path id="Path_33" data-name="Path 33" d="M293.9,325.7s2.715,1.374,15.636-1.679c2.889-.683,4.8-1.089,6.609-.817,0,0,1.6,1.673-1.971,3.209a56.479,56.479,0,0,0-8.566,5.215s-7.213,1.849-7.888,1.8-3.634.311-5.274-2.327S293.9,325.7,293.9,325.7Z" transform="translate(-288.959 -301.865)" fill="#ff1d97"/>
      <path id="Path_35" data-name="Path 35" d="M301.96,353.39c-7.662,1.93-7.434.123-7.434.123s-.873-1.38-1.707-2.864a3.7,3.7,0,0,0-.37,4.11c1.64,2.637,4.6,2.275,5.274,2.327s7.888-1.8,7.888-1.8A63.734,63.734,0,0,1,313,350.627C310.235,351.209,306.32,352.293,301.96,353.39Z" transform="translate(-288.96 -325.528)" fill="#ff1d97" opacity="0.43"/>
      <path id="Path_36" data-name="Path 36" d="M296.653,171.173s6.211,7.011-6.108,16.153c-13.21,9.8-16.633,15.513-11.2,15.4,0,0-7.613,1.872-8.795-5.416-.7-4.295,2.124-6.873,5.647-9.786A252.278,252.278,0,0,0,296.653,171.173Z" transform="translate(-270.441 -171.173)" fill="#ff1d97"/>
      <path id="Path_39" data-name="Path 39" d="M375.9,327.194c-.262-3.349-4.82-3.771-4.82-3.771,2.741,1.5-5.71,3.3-11.888,10.218a10.443,10.443,0,0,0-2.638,9.928l.012.007c1.37,4.592,6.087,6.6,6.087,6.6C355.089,339.267,376.36,333.368,375.9,327.194Z" transform="translate(-344.22 -302.129)" fill="#ff1d97"/>
    </g>
  </g>
</svg>
