<svg id="Group_8" data-name="Group 8" xmlns="http://www.w3.org/2000/svg" width="31.692" height="48.043" viewBox="0 0 31.692 48.043">
  <path id="Path_33" data-name="Path 33" d="M293.9,325.7s2.715,1.374,15.636-1.679c2.889-.683,4.8-1.089,6.609-.817,0,0,1.6,1.673-1.971,3.209a56.479,56.479,0,0,0-8.566,5.215s-7.213,1.849-7.888,1.8-3.634.311-5.274-2.327S293.9,325.7,293.9,325.7Z" transform="translate(-288.959 -301.865)" fill="#ff1d97"/>
  <path id="Path_35" data-name="Path 35" d="M301.96,353.39c-7.662,1.93-7.434.123-7.434.123s-.873-1.38-1.707-2.864a3.7,3.7,0,0,0-.37,4.11c1.64,2.637,4.6,2.275,5.274,2.327s7.888-1.8,7.888-1.8A63.734,63.734,0,0,1,313,350.627C310.235,351.209,306.32,352.293,301.96,353.39Z" transform="translate(-288.96 -325.528)" fill="#ff1d97" opacity="0.43"/>
  <path id="Path_36" data-name="Path 36" d="M296.653,171.173s6.211,7.011-6.108,16.153c-13.21,9.8-16.633,15.513-11.2,15.4,0,0-7.613,1.872-8.795-5.416-.7-4.295,2.124-6.873,5.647-9.786A252.278,252.278,0,0,0,296.653,171.173Z" transform="translate(-270.441 -171.173)" fill="#ff1d97"/>
  <path id="Path_39" data-name="Path 39" d="M375.9,327.194c-.262-3.349-4.82-3.771-4.82-3.771,2.741,1.5-5.71,3.3-11.888,10.218a10.443,10.443,0,0,0-2.638,9.928l.012.007c1.37,4.592,6.087,6.6,6.087,6.6C355.089,339.267,376.36,333.368,375.9,327.194Z" transform="translate(-344.22 -302.129)" fill="#ff1d97"/>
</svg>
