<svg xmlns="http://www.w3.org/2000/svg" width="40.044" height="40.044" viewBox="0 0 40.044 40.044">
  <g id="twitter" transform="translate(0 -0.104)">
    <circle id="Ellipse_35" data-name="Ellipse 35" cx="20.022" cy="20.022" r="20.022" transform="translate(0 0.104)"/>
    <path id="Twitter-2" data-name="Twitter" d="M37.994,22.456a8.136,8.136,0,0,1-2.573,1.007,3.986,3.986,0,0,0-2.958-1.313A4.1,4.1,0,0,0,28.4,26.289a3.986,3.986,0,0,0,.105.944,11.406,11.406,0,0,1-8.353-4.34,4.218,4.218,0,0,0,1.25,5.547,4.039,4.039,0,0,1-1.835-.527v.047a4.134,4.134,0,0,0,3.269,4.129,3.976,3.976,0,0,1-1.055.148,4.029,4.029,0,0,1-.765-.1A4.066,4.066,0,0,0,24.8,35.022,8.02,8.02,0,0,1,19.765,36.8a8.32,8.32,0,0,1-.965-.058,11.29,11.29,0,0,0,6.212,1.867c7.451,0,11.527-6.328,11.527-11.822v-.527a8.263,8.263,0,0,0,2.02-2.151,7.857,7.857,0,0,1-2.325.654,4.113,4.113,0,0,0,1.761-2.3Z" transform="translate(-8.8 -10.046)" fill="#fff"/>
  </g>
</svg>
