<svg xmlns="http://www.w3.org/2000/svg" width="40" height="40" viewBox="0 0 40 40">
  <g id="youtube" transform="translate(0 -0.221)">
    <circle id="Ellipse_34" data-name="Ellipse 34" cx="20" cy="20" r="20" transform="translate(0 0.221)"/>
    <path id="Path_30" data-name="Path 30" d="M31.07,14.548a2.911,2.911,0,0,0-2.014-2.014C27.253,12,20.082,12,20.082,12s-7.171,0-8.964.473A2.921,2.921,0,0,0,9.1,14.488a30.78,30.78,0,0,0-.473,5.57,30.659,30.659,0,0,0,.463,5.509,2.911,2.911,0,0,0,2.014,2.014c1.823.534,8.974.534,8.974.534s7.171,0,8.964-.473a2.891,2.891,0,0,0,2.014-2.014,30.779,30.779,0,0,0,.473-5.57,29.087,29.087,0,0,0-.463-5.509ZM17.8,23.492V16.623l5.962,3.434Z" transform="translate(0.062 0.021)" fill="#fff"/>
  </g>
</svg>
