<svg width="193" height="60" viewBox="0 0 193 60" fill="none" xmlns="http://www.w3.org/2000/svg">
<g clip-path="url(#clip0)">
<path d="M101.321 15.0751C101.321 17.2372 99.5796 18.979 97.4174 18.979C95.2553 18.979 93.5135 17.2372 93.5135 15.0751C93.5135 12.9129 95.1952 11.1712 97.4174 11.1712C99.6396 11.2312 101.321 12.973 101.321 15.0751ZM85.2252 22.9429C85.2252 23.3033 85.2252 23.9039 85.2252 23.9039C85.2252 23.9039 83.3634 21.5015 79.3994 21.5015C72.8529 21.5015 67.7478 26.4865 67.7478 33.3934C67.7478 40.2402 72.7928 45.2853 79.3994 45.2853C83.4234 45.2853 85.2252 42.8228 85.2252 42.8228V43.8438C85.2252 44.3243 85.5856 44.6847 86.0661 44.6847H90.9309V22.1021C90.9309 22.1021 86.4865 22.1021 86.0661 22.1021C85.5856 22.1021 85.2252 22.5225 85.2252 22.9429ZM85.2252 37.4174C84.3243 38.7387 82.5225 39.8799 80.3604 39.8799C76.5165 39.8799 73.5736 37.4775 73.5736 33.3934C73.5736 29.3093 76.5165 26.9069 80.3604 26.9069C82.4625 26.9069 84.3844 28.1081 85.2252 29.3694V37.4174ZM94.5345 22.1021H100.3V44.6847H94.5345V22.1021ZM180.661 21.5015C176.697 21.5015 174.835 23.9039 174.835 23.9039V11.2312H169.069V44.6847C169.069 44.6847 173.514 44.6847 173.934 44.6847C174.414 44.6847 174.775 44.2643 174.775 43.8438V42.8228C174.775 42.8228 176.637 45.2853 180.601 45.2853C187.147 45.2853 192.252 40.2402 192.252 33.3934C192.252 26.5465 187.147 21.5015 180.661 21.5015ZM179.7 39.8198C177.477 39.8198 175.736 38.6787 174.835 37.3574V29.3093C175.736 28.1081 177.658 26.8468 179.7 26.8468C183.544 26.8468 186.487 29.2492 186.487 33.3333C186.487 37.4174 183.544 39.8198 179.7 39.8198ZM166.066 31.2913V44.7447H160.3V31.952C160.3 28.2282 159.099 26.7267 155.856 26.7267C154.114 26.7267 152.312 27.6276 151.171 28.9489V44.6847H145.405V22.1021H149.97C150.45 22.1021 150.811 22.5225 150.811 22.9429V23.9039C152.493 22.1622 154.715 21.5015 156.937 21.5015C159.459 21.5015 161.562 22.2222 163.243 23.6637C165.285 25.3453 166.066 27.5075 166.066 31.2913ZM131.411 21.5015C127.447 21.5015 125.586 23.9039 125.586 23.9039V11.2312H119.82V44.6847C119.82 44.6847 124.264 44.6847 124.685 44.6847C125.165 44.6847 125.526 44.2643 125.526 43.8438V42.8228C125.526 42.8228 127.387 45.2853 131.351 45.2853C137.898 45.2853 143.003 40.2402 143.003 33.3934C143.063 26.5465 137.958 21.5015 131.411 21.5015ZM130.45 39.8198C128.228 39.8198 126.487 38.6787 125.586 37.3574V29.3093C126.487 28.1081 128.408 26.8468 130.45 26.8468C134.294 26.8468 137.237 29.2492 137.237 33.3333C137.237 37.4174 134.294 39.8198 130.45 39.8198ZM114.835 21.5015C116.577 21.5015 117.477 21.8018 117.477 21.8018V27.1471C117.477 27.1471 112.673 25.5255 109.67 28.9489V44.7447H103.904V22.1021C103.904 22.1021 108.348 22.1021 108.769 22.1021C109.249 22.1021 109.61 22.5225 109.61 22.9429V23.9039C110.691 22.6426 113.033 21.5015 114.835 21.5015ZM54.955 42.6426C54.6547 41.9219 54.3544 41.1411 54.0541 40.4805C53.5736 39.3994 53.0931 38.3784 52.6727 37.4174L52.6126 37.3574C48.4685 28.3483 44.024 19.2192 39.3393 10.2102L39.1592 9.84985C38.6787 8.94895 38.1982 7.98799 37.7177 7.02703C37.1171 5.94595 36.5165 4.8048 35.5556 3.72372C33.6336 1.32132 30.8709 0 27.9279 0C24.9249 0 22.2222 1.32132 20.2402 3.6036C19.3393 4.68468 18.6787 5.82583 18.0781 6.90691C17.5976 7.86787 17.1171 8.82883 16.6366 9.72973L16.4565 10.0901C11.8318 19.0991 7.32733 28.2282 3.18318 37.2372L3.12312 37.3574C2.7027 38.3183 2.22222 39.3393 1.74174 40.4204C1.44144 41.0811 1.14114 41.8018 0.840841 42.5826C0.0600602 44.8048 -0.18018 46.9069 0.12012 49.0691C0.780781 53.5736 3.78378 57.3574 7.92793 59.039C9.48949 59.6997 11.1111 60 12.7928 60C13.2733 60 13.8739 59.9399 14.3544 59.8799C16.3363 59.6396 18.3784 58.979 20.3604 57.8378C22.8228 56.4565 25.1652 54.4745 27.8078 51.5916C30.4505 54.4745 32.8529 56.4565 35.2553 57.8378C37.2372 58.979 39.2793 59.6396 41.2613 59.8799C41.7417 59.9399 42.3423 60 42.8228 60C44.5045 60 46.1862 59.6997 47.6877 59.039C51.8919 57.3574 54.8348 53.5135 55.4955 49.0691C55.976 46.967 55.7357 44.8649 54.955 42.6426ZM27.8679 45.7658C24.6246 41.6817 22.5225 37.8378 21.8018 34.5946C21.5015 33.2132 21.4414 32.012 21.6216 30.9309C21.7417 29.97 22.1021 29.1291 22.5826 28.4084C23.7237 26.7868 25.6456 25.7658 27.8679 25.7658C30.0901 25.7658 32.0721 26.7267 33.1532 28.4084C33.6336 29.1291 33.994 29.97 34.1141 30.9309C34.2943 32.012 34.2342 33.2733 33.9339 34.5946C33.2132 37.7778 31.1111 41.6216 27.8679 45.7658ZM51.8318 48.5886C51.4114 51.7117 49.3093 54.4144 46.3664 55.6156C44.9249 56.2162 43.3634 56.3964 41.8018 56.2162C40.3003 56.036 38.7988 55.5556 37.2372 54.6547C35.0751 53.4535 32.9129 51.5916 30.3904 48.8288C34.3544 43.964 36.7568 39.5195 37.6577 35.5556C38.0781 33.6937 38.1381 32.012 37.958 30.4505C37.7177 28.9489 37.1772 27.5676 36.3363 26.3664C34.4745 23.6637 31.3514 22.1021 27.8679 22.1021C24.3844 22.1021 21.2613 23.7237 19.3994 26.3664C18.5586 27.5676 18.018 28.9489 17.7778 30.4505C17.5375 32.012 17.5976 33.7538 18.0781 35.5556C18.979 39.5195 21.4414 44.024 25.3454 48.8889C22.8829 51.6517 20.6607 53.5135 18.4985 54.7147C16.9369 55.6156 15.4354 56.0961 13.9339 56.2763C12.3123 56.4565 10.7508 56.2162 9.36937 55.6757C6.42643 54.4745 4.32432 51.7718 3.9039 48.6486C3.72372 47.1471 3.84384 45.6456 4.44445 43.964C4.62463 43.3634 4.92493 42.7628 5.22523 42.042C5.64565 41.0811 6.12613 40.0601 6.60661 39.039L6.66667 38.9189C10.8108 29.97 15.2553 20.8408 19.8799 11.952L20.0601 11.5916C20.5405 10.6907 21.021 9.72973 21.5015 8.82883C21.982 7.86787 22.5225 6.96697 23.1832 6.18619C24.4444 4.74474 26.1261 3.96396 27.988 3.96396C29.8499 3.96396 31.5315 4.74474 32.7928 6.18619C33.4535 6.96697 33.994 7.86787 34.4745 8.82883C34.955 9.72973 35.4354 10.6907 35.9159 11.5916L36.0961 11.952C40.6607 20.9009 45.1051 30.03 49.2493 38.979V39.039C49.7297 40 50.1502 41.0811 50.6306 42.042C50.9309 42.7628 51.2312 43.3634 51.4114 43.964C51.8919 45.5255 52.0721 47.027 51.8318 48.5886Z" fill="#FF5A5F"/>
</g>
<defs>
<clipPath id="clip0">
<rect width="192.252" height="60" fill="white"/>
</clipPath>
</defs>
</svg>
