<svg width="149" height="60" viewBox="0 0 149 60" fill="none" xmlns="http://www.w3.org/2000/svg">
<g clip-path="url(#clip0)">
<path d="M0.0741577 0.0742188L12.03 4.28017V46.3646L28.8702 36.6431L20.6138 32.7692L15.405 19.8046L41.9389 29.1264V42.6789L12.0368 59.9259L0.0741577 53.2717V0.0742188Z" fill="#008373"/>
<path d="M59.8857 47.9576V12.0203H70.1106C73.2181 12.0204 75.6824 12.7804 77.5035 14.3008C79.3246 15.8212 80.2351 17.801 80.2351 20.2402C80.2351 22.2785 79.6838 24.0496 78.5811 25.5531C77.4784 27.0568 75.9581 28.126 74.0201 28.7609V28.861C76.4426 29.1451 78.3806 30.0598 79.8342 31.6052C81.2877 33.1506 82.0144 35.1596 82.0145 37.6323C82.0144 40.7064 80.9118 43.1958 78.7064 45.1005C76.5011 47.0051 73.7193 47.9574 70.3612 47.9574L59.8857 47.9576ZM64.096 15.8295V27.4327H68.4064C70.712 27.4327 72.5247 26.8772 73.8446 25.7662C75.1645 24.6552 75.8244 23.0889 75.8244 21.0672C75.8244 17.5755 73.5272 15.8295 68.9327 15.8295H64.096ZM64.096 31.2169V44.1483H69.8098C72.2825 44.1483 74.1996 43.5636 75.5613 42.394C76.9229 41.2246 77.6037 39.6207 77.6038 37.5824C77.6037 33.3387 74.7134 31.2169 68.9327 31.2169H64.096Z" fill="#008373"/>
<path d="M89.4801 16.5887C88.7449 16.5887 88.1184 16.3381 87.6005 15.8369C87.0826 15.3357 86.8236 14.7008 86.8236 13.9322C86.8236 13.1638 87.0826 12.5246 87.6005 12.0151C88.1184 11.5056 88.7449 11.2507 89.4801 11.2507C90.2319 11.2507 90.8709 11.5056 91.3972 12.0151C91.9235 12.5246 92.1866 13.1638 92.1866 13.9322C92.1866 14.6675 91.9235 15.2938 91.3972 15.8118C90.8709 16.3297 90.2319 16.5887 89.4801 16.5887ZM91.4849 47.9576H87.3749V22.491H91.4849V47.9576Z" fill="#008373"/>
<path d="M119.409 47.9574H115.299V33.5093C115.299 28.0628 113.464 25.3395 109.488 25.3395C107.433 25.3395 105.733 26.1122 104.388 27.6576C103.043 29.2031 102.371 31.1537 102.371 33.5093V47.9574H98.2607V22.491H102.371V26.664H102.471C104.409 23.4227 107.171 21.8811 110.738 21.8811C113.545 21.8811 115.692 22.7875 117.179 24.6002C118.666 26.413 119.409 29.0318 119.409 32.4568L119.409 47.9574Z" fill="#008373"/>
<path d="M148.211 45.788C148.211 55.2108 143.7 59.9223 134.678 59.9223C131.503 59.9223 128.886 59.3572 126.514 58.1543L127.592 54.6303C127.592 54.6303 130.378 56.4819 134.628 56.4819C140.943 56.4819 144.101 53.184 144.101 46.4678V43.6893H144C142.046 46.9639 139.293 48.5589 135.366 48.5589C132.175 48.5589 129.607 47.5975 127.66 45.317C125.714 43.0364 124.741 39.9749 124.741 36.1322C124.741 31.7717 125.789 28.3048 127.886 25.7319C129.982 23.159 132.852 21.8726 136.494 21.8726C139.952 21.8726 142.33 23.2592 144 26.0327H144.101V22.4911H148.211V45.788ZM144.101 36.3543V32.7745C144.101 30.7361 143.411 28.9904 142.033 27.5368C140.655 26.0833 139.057 25.3565 137.002 25.3565C134.463 25.3565 132.475 26.2796 131.038 28.1257C129.601 29.9719 128.883 32.5574 128.883 35.8821C128.883 38.739 129.572 40.8194 130.95 42.5318C132.328 44.2444 134.154 45.1005 136.426 45.1005C138.731 45.1005 140.488 44.282 141.933 42.6446C143.378 41.0073 144.101 38.9105 144.101 36.3543Z" fill="#008373"/>
</g>
<defs>
<clipPath id="clip0">
<rect width="148.285" height="60" fill="white"/>
</clipPath>
</defs>
</svg>
