<svg width="180" height="60" viewBox="0 0 180 60" fill="none" xmlns="http://www.w3.org/2000/svg">
<path d="M149.466 50.5259C149.463 50.5259 148.916 51.0138 148.916 51.0138C148.134 51.7128 147.329 52.4612 146.358 52.0869C146.09 51.9893 145.901 51.6319 145.856 51.3545C145.812 49.3537 146.713 47.4998 147.586 45.6947L147.81 45.2226C150.324 41.0262 153.245 36.0815 157.536 32.6498C158.259 32.1282 159.043 31.6898 159.871 32.0317C160.062 32.2102 160.283 32.5196 160.283 32.8283C160.283 32.9263 160.197 33.1863 160.146 33.2673C158.948 35.2038 157.807 37.2368 156.697 39.1884C154.528 43.0438 152.278 47.0285 149.466 50.5264L149.466 50.5259ZM126.218 40.6362C126.054 40.7507 123.155 39.7743 122.595 37.0906C122.12 34.78 123.711 32.9745 125.251 32.0644C125.911 31.5436 126.907 31.3651 127.637 31.6243C128.315 32.0804 128.498 32.8943 128.498 33.7713C128.498 34.3092 128.427 34.8617 128.364 35.3658C128.364 35.3658 128.352 35.4638 128.35 35.4801C127.867 37.285 127.128 39.0583 126.218 40.6363L126.218 40.6362ZM115.146 51.551C114.85 51.1118 114.752 50.6316 114.743 50.1124C114.686 46.9229 118.117 41.2113 120.54 38.0996H120.545C121.56 40.3222 123.859 41.7509 125.246 42.353C123.523 46.192 117.612 54.4137 115.147 51.551H115.146ZM156.979 52.1173C156.405 52.5076 155.599 52.2076 155.901 51.3132C156.651 49.0359 159.635 44.3951 159.635 44.3951L167.947 29.653H162.254C161.983 30.0975 161.404 31.1183 161.404 31.1183C161.141 30.6796 160.353 29.7039 160.029 29.4932C158.638 28.6141 156.597 29.0298 155.19 29.8266C149.069 33.4057 144.603 40.4773 141.08 45.9911C141.08 45.9911 137.373 52.1211 135.315 52.577C133.708 52.7072 133.874 50.5428 133.943 50.0386C134.565 46.3944 136.007 42.93 137.461 39.7906C140.417 37.7412 143.791 35.0573 146.857 32.1133C153.511 25.7526 159.121 18.5465 159.94 16.9364C159.94 16.9364 159.053 17.1156 158.005 17.1478C152.886 24.2886 142.41 34.6673 139.235 36.2115C140.642 32.8277 149.732 16.6757 157.467 8.94997L158.684 7.77839C160.566 5.94029 162.517 4.05348 164.037 3.74436C164.197 3.72818 164.404 3.74436 164.582 4.11909C164.65 5.55027 164.117 6.6077 163.506 7.81128L162.649 9.56829C162.649 9.56829 163.863 9.34048 164.66 9.07954C165.584 7.33987 166.608 5.38735 166.231 3.0618C166.105 2.31346 165.563 1.74424 164.855 1.614C162.548 1.17481 160.033 2.88221 158.009 4.2653L157.928 4.31375C147.526 12.4631 138.742 24.2078 131.063 40.2461C130.506 40.6684 128.356 41.1732 127.99 40.9289C128.748 39.3678 129.703 37.2689 130.181 34.9917C130.264 34.3409 130.341 33.6743 130.341 33.0238C130.341 31.6238 130.005 30.3067 128.75 29.3961C127.28 28.664 125.462 29.0058 124.237 29.5586C118.748 31.8358 114.645 37.4644 111.685 42.0994C110.092 45.0443 108.505 48.1984 108.065 51.8104C107.756 54.6402 108.386 56.462 109.995 57.3733C111.65 58.2186 113.732 57.34 114.55 56.9174C120.111 53.9897 123.997 48.1179 127.06 42.7497C127.182 42.7337 128.854 42.6852 130.119 42.3594C130.136 42.3594 130.143 42.3594 130.171 42.3765C130.099 42.6194 129.445 44.5719 129.445 44.5719C127.504 50.2647 126.606 54.1363 128.44 56.43C131.06 59.6672 135.398 56.3166 138.927 51.8914C138.169 57.1941 140.917 58.024 143.012 57.6177C145.419 56.9674 148.1 54.3967 149.345 53.0796C148.945 54.6246 149.054 57.3901 151.243 57.6664C152.743 57.9438 153.866 57.1276 155.166 56.4279C159.826 53.8902 165.406 45.434 166.854 42.9892H164.955C162.896 46.101 160.275 50.1811 156.979 52.1179L156.979 52.1173ZM85.1791 20.5404H90.5132L93.5236 15.6506H88.1885L85.1791 20.5404ZM170.386 7.55057C166.319 9.86074 162.103 11.3568 156.999 10.8365C155.584 12.431 154.207 14.0736 152.938 15.7651C160.101 17.587 167.695 13.5368 171.93 9.68214C176.41 5.79436 178.708 0.898674 178.708 0.898674C178.708 0.898674 175.35 4.73711 170.386 7.55066L170.386 7.55057ZM125.534 6.3148C124.685 16.0418 117.124 21.7521 115.254 22.2064C114.12 22.4338 112.185 21.9299 113.912 17.8476C116.456 12.3491 120.798 7.68144 125.456 5.28992C125.57 5.69665 125.567 5.95625 125.533 6.31454L125.534 6.3148ZM110.8 30.8275C110.259 29.6566 108.973 28.9082 107.602 28.9894C103.152 29.3963 98.799 33.056 96.5133 38.3101C95.314 41.0105 94.6595 43.2387 94.2302 46.7846C95.614 45.191 98.4367 42.5723 101.64 41.1408C101.64 41.1408 102.076 37.7413 104.298 34.7157C105.139 33.4628 106.823 31.446 108.712 31.9826C110.364 32.536 109.783 37.1068 107.589 41.53C105.965 44.7837 103.48 48.0378 100.966 50.2819C98.743 52.1689 95.4542 54.446 92.5768 52.6894C90.7645 51.6164 89.8402 49.3711 90.0355 46.4757C90.9014 38.2617 94.6405 31.2669 99.991 23.2966C105.508 15.8956 111.59 8.29941 119.784 4.24805C121.455 3.40235 123.002 3.20716 124.34 3.72774C124.34 3.72774 116.649 7.95691 112.983 15.7814C112.05 17.7661 110.753 20.4493 112.059 22.8243C112.742 24.0603 113.954 24.1581 114.929 24.093C119.423 23.0518 122.327 18.8552 124.699 15.0168C126.074 12.1052 127.297 9.20974 127.297 5.98857C127.297 5.59828 127.277 5.07801 127.244 4.68719C129.391 3.54904 133.793 5.56556 133.793 5.56556C137.234 6.7046 144.559 12.3168 147.03 13.3898C148.235 11.9912 150.216 9.87679 151.331 8.81928L149.717 7.82693C147.132 6.24906 144.4 4.75245 141.71 3.27237C135.603 -0.0617135 130.631 1.10915 128.101 2.02015C127.107 2.37777 126.198 2.68694 126.198 2.68694C124.32 0.637518 121.241 0.832218 118.972 1.38565C110.811 3.72783 103.236 9.43698 95.1132 19.3434C89.1415 27.1025 85.4369 33.8045 83.4632 40.4243C81.9414 44.8809 81.4789 51.436 85.1933 55.3238C88.3514 58.6248 92.539 57.9098 95.4964 56.7227C101.904 53.567 107.662 46.7672 110.532 38.9436C111.224 36.6179 111.993 33.3322 110.801 30.8269L110.8 30.8275ZM39.7793 23.2806C39.7686 23.313 38.6911 25.7852 38.6911 25.7852C38.5353 25.9152 38.289 25.8503 38.0068 25.7852L37.5231 25.7034C36.0045 25.232 34.8589 24.2233 34.5057 23.0198C34.0185 20.6774 36.0196 18.8394 36.9013 18.1727C37.7472 17.5866 39.0623 17.2777 39.826 17.8798C40.297 18.433 40.4755 19.1485 40.4755 19.9298C40.4757 20.9868 40.1494 22.1741 39.7793 23.2806H39.7793ZM37.4647 27.9809C37.4647 27.9809 37.4158 28.1278 37.3916 28.1758C37.3854 28.1758 34.9423 32.1605 34.9423 32.1605C33.4678 34.129 31.6269 36.6022 29.3255 37.789C28.6434 38.0169 27.7005 38.1636 27.2201 37.5621C26.2014 36.3419 26.7264 34.6503 27.153 33.2841L27.3039 32.796C28.5268 29.4781 30.4671 26.5496 32.3556 23.8327C32.3791 23.8166 32.432 23.8005 32.4512 23.8005C32.4556 23.8167 32.4632 23.8167 32.4664 23.8494C33.6515 26.1262 35.8737 27.1831 37.5356 27.6718C37.5456 27.6718 37.5563 27.688 37.5563 27.7207C37.5565 27.7691 37.5294 27.8347 37.4647 27.9805L37.4647 27.9809ZM68.0264 25.3622C69.1192 23.8498 72.3 19.7993 73.0754 19.1163C75.6834 16.8218 76.7258 17.8314 76.8161 18.5466C74.382 22.9058 71.5094 27.8993 68.8085 32.389C68.8138 32.373 67.9632 33.6739 67.9632 33.6739C66.7703 35.4953 65.5692 37.0568 63.61 38.1466C63.3306 38.2284 62.8701 38.2611 62.5636 38.0326C62.1947 37.7886 62.0491 37.3818 62.0906 36.9586C62.208 35.5602 63.6321 31.283 68.0263 25.362L68.0264 25.3622ZM40.9417 15.4726C37.57 13.2604 30.7933 17.4896 25.3657 24.7435C20.4022 31.2505 18.2589 38.8134 20.5914 42.3109C24.0611 46.4261 30.5024 40.4404 33.2416 37.2365L33.595 36.862C35.4577 34.8612 36.8969 32.4536 38.2898 30.1436C38.2898 30.1436 39.57 28.0291 39.6312 27.9313C40.4224 27.7855 41.3755 27.5576 42.4494 27.2485C42.4342 27.2969 38.3405 34.1777 38.7582 37.5934C38.8882 38.6353 38.7888 42.4415 42.505 43.5962C47.4579 44.4263 51.4132 40.5869 54.9018 37.1711C54.9018 37.1711 55.4964 36.6023 55.8326 36.2776C55.7476 36.6183 55.6366 37.0728 55.6366 37.0728C54.1866 42.1155 56.1411 43.1734 57.3638 43.5639C61.0589 44.638 65.4732 39.2698 65.4874 39.2698C65.373 40.9608 65.0383 42.3597 66.8208 43.4821C68.5033 44.0844 70.2061 43.1663 71.5003 42.3041C76.1623 39.0184 79.9179 33.876 82.9511 29.4308H81.0162C80.9933 29.4308 76.2413 36.3182 73.1557 37.8152C73.1513 37.8152 72.5894 38.1035 72.2658 37.8754C71.8652 37.5335 72.0233 36.8232 72.2702 36.32C72.2858 36.2871 84.1842 15.6507 84.1842 15.6507H78.5664C78.5664 15.6507 77.9527 16.6436 77.9027 16.7086C77.8649 16.6762 77.7749 16.5055 77.7125 16.4237C74.2319 11.6091 66.3496 19.0148 60.4153 27.6025C58.1306 30.9048 55.222 34.6231 52.2059 37.3073C52.2059 37.3073 47.7377 41.4031 45.8286 38.4604C45.1307 37.2239 45.3454 35.4163 45.739 34.2292C47.9618 27.9018 51.7921 22.1596 56.1506 18.6941C57.381 17.735 58.7183 17.4576 59.3821 17.8644C60.0144 18.2392 60.1164 19.1655 59.7164 19.8C58.7013 19.7676 57.8881 20.0761 57.2269 20.7593C55.9244 22.1258 55.4719 23.4435 55.886 24.68C57.8977 27.5427 61.9097 21.882 61.7156 18.4336C61.6463 17.1971 60.9866 16.0262 60.0023 15.4564C58.5352 14.5784 56.2969 14.8058 54.8485 15.5057C52.9095 16.2374 49.8401 18.7909 48.0484 20.7758C45.7929 23.2649 41.9247 26.0298 40.7149 25.7202C41.1112 24.6624 44.3786 17.9773 40.9414 15.4731L40.9417 15.4726ZM69.1795 51.6645C62.5632 47.4025 53.5839 46.6546 39.1032 50.6722C23.6659 54.2999 18.5183 56.6254 11.7589 51.957C9.16205 49.6637 8.23096 45.9713 8.92628 40.6529C10.5388 31.9825 14.8964 23.6384 22.6371 14.3835C26.9576 9.56887 30.9652 5.43705 36.2572 3.7781C40.313 2.73721 39.9338 5.92469 39.4431 6.3805C38.9252 6.3805 38.0553 6.46212 37.383 6.90081C36.8373 7.324 35.3395 8.69045 35.2591 10.5285C35.143 13.3424 38.0551 12.7567 39.3111 11.2118C40.665 9.47085 42.6657 6.13686 41.0919 3.02966C40.4322 1.92369 39.2925 1.15938 37.8773 0.899074C33.0316 0.622137 28.5183 2.93204 24.3532 5.48582C15.2467 11.8131 7.96016 20.5808 3.83767 30.1781C1.46055 35.9686 -0.689148 44.2631 2.53327 51.0145C5.02597 55.6989 10.2011 58.1871 16.3756 57.6668C20.706 57.2118 25.9417 55.8122 29.4641 54.9672C32.9858 54.1208 51.0127 47.924 56.9364 58.7092C56.9364 58.7092 58.9061 54.8856 63.8284 54.8041C67.8753 54.4307 73.7137 55.9756 77.965 59.0981C76.5486 56.968 72.5328 53.8286 69.1827 51.6648L69.1795 51.6645Z" fill="#F40009"/>
</svg>
