<svg width="161" height="60" viewBox="0 0 161 60" fill="none" xmlns="http://www.w3.org/2000/svg">
<g clip-path="url(#clip0)">
<path d="M160.5 0H0V60H160.5V0Z" fill="#3B5998"/>
<path fill-rule="evenodd" clip-rule="evenodd" d="M86.8148 25.7033C84.8315 25.4927 83.1155 26.0903 81.6649 27.8249V17.1863L76.4125 17.8187V42.4427H81.6649V40.9811C82.3733 41.4839 83.0624 42.0893 83.8685 42.3761C86.9288 43.4669 90.9643 42.5777 92.3762 38.5073C93.2825 35.8961 93.2589 33.2189 92.5765 30.5783C91.8199 27.6449 89.8565 26.0255 86.8148 25.7033ZM87.5998 36.3677C87.3687 37.9913 86.069 38.8421 84.5262 38.7227C84.1406 38.6927 83.7919 38.6141 83.4787 38.4923C82.2351 37.7825 81.8592 36.5939 81.75 35.8475C81.7488 35.8481 81.7476 35.8481 81.7476 35.8487C81.6625 34.6937 81.5708 32.2787 82.1374 31.1375C82.6183 30.2627 83.4576 29.7863 84.5708 29.7497C86.1523 29.6981 87.3488 30.4781 87.5841 32.0741C87.7929 33.4805 87.8025 34.9625 87.5998 36.3677Z" fill="white"/>
<path fill-rule="evenodd" clip-rule="evenodd" d="M105.429 26.0074C103.604 25.522 101.761 25.528 99.9396 26.0104C97.2123 26.7322 95.3846 28.4482 94.7957 31.1776C94.4741 32.6668 94.4102 34.2502 94.4953 35.7772C94.6895 39.2704 96.8617 41.7586 100.233 42.5314C100.281 42.5428 100.33 42.5512 100.378 42.562H100.377C100.377 42.562 100.387 42.5638 100.402 42.5668C100.532 42.5926 100.661 42.6166 100.792 42.6364C100.835 42.64 100.88 42.6436 100.923 42.6478H100.926C101.09 42.6778 101.286 42.7 101.492 42.7162C102.152 42.7858 102.992 42.8356 103.693 42.7534C103.698 42.7534 103.7 42.7522 103.704 42.7516C103.74 42.751 103.776 42.751 103.811 42.7486C107.293 42.5686 109.935 40.3858 110.706 37.0372C111.129 35.2006 111.129 33.355 110.72 31.5172C110.079 28.6324 108.32 26.7766 105.429 26.0074ZM105.651 36.103C105.634 36.2116 105.616 36.319 105.591 36.4258C105.242 37.9666 104.117 38.8006 102.616 38.731C101.003 38.6578 99.8961 37.72 99.7405 36.1168C99.6282 34.9456 99.6192 33.7498 99.7169 32.578C99.8702 30.7282 101.034 29.7166 102.779 29.7508C104.213 29.7784 105.234 30.5866 105.599 31.9576C105.929 33.337 105.684 35.7892 105.651 36.103Z" fill="white"/>
<path fill-rule="evenodd" clip-rule="evenodd" d="M26.5814 25.9207H22.8326V23.4415C23.1066 21.0979 26.9996 21.5431 26.9996 21.5431L27.0008 21.3829L26.9996 21.3649V17.5153H26.999V17.5147H26.996C26.862 17.4829 19.2522 15.6871 17.7407 21.4465C17.7407 21.4477 17.7407 21.4495 17.7389 21.4507C17.7358 21.4633 17.7322 21.4759 17.7292 21.4885C17.4915 22.2085 17.5078 25.5061 17.5108 25.9207H14.2616V30.3301H17.7123V42.3241H22.7373V30.3301H26.5808L27.0135 25.9207H26.5814Z" fill="white"/>
<path fill-rule="evenodd" clip-rule="evenodd" d="M38.5653 28.0307C38.5037 27.9629 38.4428 27.8975 38.3903 27.8429V27.8423C38.3818 27.8339 38.3752 27.8267 38.3667 27.8183C38.2937 27.7427 38.2424 27.6923 38.2424 27.6923C37.0592 26.4959 36.6127 26.1983 35.6859 25.9265C32.1217 24.8825 28.6517 26.7383 27.5529 30.3041C26.8777 32.4953 26.8681 34.7507 27.2639 36.9695C28.1189 41.7749 31.7132 43.3841 35.5441 42.5909C36.7195 42.3473 37.5932 41.6195 38.4036 40.6061C38.4036 40.6061 38.4766 40.5173 38.5659 40.3445V42.4589H43.4678V25.9397H38.5659V28.0307H38.5653ZM38.1338 36.3437C37.9697 37.8713 36.7267 38.7887 35.2575 38.7311C33.7521 38.6729 32.7559 37.8713 32.4307 36.4349C32.0409 34.3913 32.497 31.9631 32.5356 31.7663C32.9291 30.3947 33.9325 29.7161 35.4047 29.7503C36.8504 29.7827 37.9649 30.6335 38.1278 32.1227C38.2805 33.5159 38.2841 34.9499 38.1338 36.3437Z" fill="white"/>
<path fill-rule="evenodd" clip-rule="evenodd" d="M58.4389 41.2751C58.2114 40.4477 57.9526 39.6317 57.7022 38.8433L57.4656 37.9667C57.4656 37.9667 51.322 40.8995 50.3638 35.3267C50.2751 34.4069 50.3023 33.4577 50.4296 32.5499C50.6685 30.8369 51.7196 29.9195 53.3916 29.7623C53.9563 29.7089 54.544 29.7359 55.1034 29.8301C55.8648 29.9579 56.6082 30.1859 57.4415 30.3905C57.7311 29.5091 58.0274 28.6373 58.3031 27.7595C58.3466 27.6221 58.3828 27.5033 58.4111 27.3971H58.4117L58.5499 26.8697C58.5155 26.7995 58.4316 26.7269 58.3194 26.6561V26.6567C58.1782 26.5391 57.9375 26.4413 57.5616 26.3045C57.4113 26.2499 57.2605 26.2013 57.1096 26.1545C56.9745 26.1119 56.8864 26.0867 56.8864 26.0867H56.887C55.2729 25.6277 53.616 25.5923 51.9326 25.7687C48.3847 26.1413 45.9766 28.2233 45.3087 31.6601C44.9581 33.4685 44.9744 35.2991 45.3768 37.1129C45.9796 39.8291 47.6353 41.5841 50.327 42.3689C52.0834 42.8807 53.8833 42.9065 55.6742 42.6287C56.4272 42.5117 57.5073 42.1235 58.2826 41.8469L58.5777 41.7437L58.4383 41.2739L58.4389 41.2751Z" fill="white"/>
<path fill-rule="evenodd" clip-rule="evenodd" d="M74.6144 34.8125C74.5909 33.6689 74.6066 32.5199 74.4436 31.3961C73.9953 28.3145 72.1086 26.3645 69.0572 25.8551C67.8927 25.6613 66.6612 25.6871 65.478 25.7993C62.2396 26.1065 59.7814 28.1123 59.2776 31.1309C58.9717 32.9621 58.9325 34.9055 59.1799 36.7445C59.5534 39.5111 60.9079 41.2733 63.2515 42.1193H63.2527C63.263 42.1199 63.2732 42.1217 63.2835 42.1229C63.2823 42.1241 63.2829 42.1241 63.2823 42.1247C64.3521 42.4427 69.5876 43.8041 74.2029 41.4983L74.0177 40.8227C74.0158 40.8239 74.0128 40.8239 74.011 40.8239C73.7974 39.9227 73.5404 39.0311 73.2984 38.1377L73.2725 38.0501C73.2725 38.0501 73.1765 38.0843 73.0064 38.1383C73.0028 38.1389 72.9979 38.1389 72.9943 38.1395C72.7928 38.1917 72.5937 38.2529 72.3958 38.3189C72.359 38.3309 72.3228 38.3423 72.2859 38.3531C71.5872 38.5487 70.5886 38.7899 69.5339 38.9249C68.6488 39.0137 67.7545 39.0173 66.8519 38.9405C65.3863 38.6993 64.2646 37.9187 64.3183 36.0731H65.1558C68.0291 36.0731 70.9018 36.0731 73.7757 36.0725C73.8439 36.0725 73.9133 36.0731 73.9815 36.0719L73.9809 36.0731C73.9809 36.0731 74.5981 36.0653 74.6241 36.0593C74.6241 36.0593 74.6235 35.8973 74.6241 35.8775L74.6144 34.8125ZM69.8899 32.5601H64.2145C64.2441 31.4375 64.3852 30.3941 65.3887 29.7587C66.4542 29.0855 67.6314 29.0603 68.7272 29.6639C69.835 30.2723 69.9219 31.3715 69.8899 32.5601Z" fill="white"/>
<path fill-rule="evenodd" clip-rule="evenodd" d="M146.236 26.112H140.667L135.828 33.6348V17.9376V17.8344V17.2014L130.572 17.8344V42.459H135.828V34.923L140.667 42.4698H146.236L140.987 34.2774L146.236 26.112Z" fill="white"/>
<path fill-rule="evenodd" clip-rule="evenodd" d="M123.344 26.005C121.518 25.519 119.674 25.525 117.853 26.0074C115.127 26.7298 113.299 28.4452 112.71 31.174C112.389 32.6638 112.325 34.2466 112.41 35.7742C112.603 39.2674 114.776 41.7562 118.147 42.5284C118.195 42.5398 118.244 42.5482 118.293 42.559H118.292C118.292 42.559 118.3 42.5608 118.315 42.5638C118.445 42.5896 118.576 42.6136 118.706 42.6328C118.749 42.637 118.794 42.6412 118.837 42.6436C118.838 42.6448 118.839 42.6448 118.841 42.6448C119.005 42.6748 119.2 42.6976 119.405 42.7138C120.067 42.7834 120.908 42.8332 121.608 42.751C121.611 42.7498 121.614 42.7498 121.619 42.7486C121.655 42.748 121.69 42.748 121.725 42.7462C125.207 42.5656 127.849 40.3822 128.62 37.0348C129.043 35.1982 129.043 33.352 128.635 31.5142C127.993 28.6294 126.234 26.7736 123.344 26.005ZM123.565 36.1C123.548 36.2092 123.53 36.316 123.505 36.4234C123.155 37.9642 122.031 38.797 120.53 38.7286C118.917 38.6536 117.81 37.7164 117.654 36.1138C117.542 34.9432 117.532 33.7474 117.63 32.5756C117.785 30.7252 118.947 29.7136 120.694 29.7478C122.125 29.7754 123.148 30.5836 123.513 31.9546C123.842 33.3334 123.598 35.7868 123.565 36.1Z" fill="white"/>
</g>
<defs>
<clipPath id="clip0">
<rect width="160.5" height="60" fill="white"/>
</clipPath>
</defs>
</svg>
