<svg width="57" height="60" viewBox="0 0 57 60" fill="none" xmlns="http://www.w3.org/2000/svg">
<g clip-path="url(#clip0)">
<path d="M41.4782 39.3128C48.5884 35.4211 54.0186 32.4486 54.5126 32.1779C55.9861 31.3714 57.5298 29.3132 54.5126 27.6681C53.5428 27.1383 48.2586 24.2569 41.4698 20.5532L32.1326 29.9621L41.4782 39.3128Z" fill="url(#paint0_linear)"/>
<path d="M32.1321 29.9619L2.26794 60.054C2.94236 60.1396 3.75353 59.961 4.68655 59.4503C6.61818 58.3931 27.3624 47.0382 41.4782 39.3117L32.1321 29.9619V29.9619Z" fill="url(#paint1_linear)"/>
<path d="M32.1321 29.962L41.4693 20.5532C41.4693 20.5532 6.7642 1.61878 4.68652 0.485287C3.88792 0.0494734 3.01722 -0.10262 2.24652 0.0690083L32.1321 29.962Z" fill="url(#paint2_linear)"/>
<path d="M32.1321 29.9619L2.24605 0.0693359C1.01163 0.344685 0 1.41306 0 3.5605C0 7.04887 0 53.5386 0 56.4675C0 58.4898 0.795814 59.9121 2.26744 60.054L32.1321 29.9619Z" fill="url(#paint3_linear)"/>
</g>
<defs>
<linearGradient id="paint0_linear" x1="47.5179" y1="36.2355" x2="39.9277" y2="21.3389" gradientUnits="userSpaceOnUse">
<stop stop-color="#FCD08F"/>
<stop offset="1" stop-color="#F79673"/>
</linearGradient>
<linearGradient id="paint1_linear" x1="36.4814" y1="34.0174" x2="7.58134" y2="65.0089" gradientUnits="userSpaceOnUse">
<stop stop-color="#E74047"/>
<stop offset="1" stop-color="#7F50A0"/>
</linearGradient>
<linearGradient id="paint2_linear" x1="36.6351" y1="25.6136" x2="7.27651" y2="-4.78811" gradientUnits="userSpaceOnUse">
<stop stop-color="#E6FFAB"/>
<stop offset="1" stop-color="#47BEBC"/>
</linearGradient>
<linearGradient id="paint3_linear" x1="16.0664" y1="60.0539" x2="16.0664" y2="0.0695719" gradientUnits="userSpaceOnUse">
<stop stop-color="#84E9DB"/>
<stop offset="1" stop-color="#197491"/>
</linearGradient>
<clipPath id="clip0">
<rect width="56.2791" height="60" fill="white"/>
</clipPath>
</defs>
</svg>
