<svg width="251" height="202" viewBox="0 0 251 202" fill="none" xmlns="http://www.w3.org/2000/svg">
<path d="M144.483 19.28C144.485 23.0956 143.355 26.8261 141.237 29.9997C139.118 33.1732 136.106 35.6472 132.581 37.1088C129.057 38.5703 125.178 38.9538 121.435 38.2106C117.693 37.4674 114.255 35.631 111.556 32.9336C108.857 30.2363 107.019 26.7991 106.274 23.057C105.529 19.3148 105.91 15.4357 107.37 11.9104C108.83 8.38499 111.302 5.3717 114.475 3.25165C117.647 1.13159 121.377 5.1271e-07 125.193 0C130.307 -6.87213e-07 135.212 2.03096 138.829 5.64638C142.446 9.26179 144.48 14.1657 144.483 19.28V19.28Z" fill="white"/>
<path d="M248.033 69.82C242.683 69.38 229.273 68.13 209.813 73.3C207.353 53.22 201.813 37.63 194.983 20.99C168.86 30.2274 145.05 45.0169 125.193 64.34C105.34 45.0149 81.5332 30.225 55.4126 20.99C48.5626 37.63 43.0425 53.22 40.5825 73.3C19.6825 67.82 7.71254 69.38 2.36254 69.82C-3.38746 100.09 1.00254 134.49 19.4625 159.66C45.6025 195.28 87.0625 198 108.463 201.11C99.4625 192.41 79.1426 169.55 74.8226 163.91L74.7425 163.83C55.5525 138.77 49.5126 112.55 50.9126 81.95C51.2711 76.1374 52.0532 70.3588 53.2526 64.66V64.66C55.2016 54.6518 58.0155 44.8316 61.6626 35.31C71.9626 39.72 96.3726 51.58 117.663 72.62C109.938 81.3377 103.321 90.9776 97.9625 101.32C86.5519 91.8336 73.5325 84.4704 59.5225 79.58C59.1171 83.5663 58.9768 87.5751 59.1026 91.58C93.3426 106.42 116.243 132.13 125.023 146.97C132.353 137.36 137.253 129.82 148.253 119.6C150.291 125.163 151.906 130.873 153.083 136.68C149.663 142.17 138.473 159.24 125.183 170.25C111.903 159.25 100.713 142.17 97.2926 136.68C97.9026 133.68 98.4326 130.97 99.2926 128.02C96.3589 125.185 93.2709 122.514 90.0426 120.02C88.0776 126.168 86.5668 132.451 85.5225 138.82C98.8625 163.19 113.623 175.22 125.023 184.44C137.083 174.85 153.803 160.78 164.873 138.82C159.793 109.94 142.793 85.09 138.003 79.01C135.273 81.66 132.513 84.49 130.173 87.19C135.369 93.9079 139.872 101.135 143.613 108.76C136.892 114.661 130.726 121.164 125.193 128.19C119.665 121.162 113.502 114.658 106.783 108.76C115.633 90.61 131.493 72.62 139.013 66.76C153.845 53.7742 170.605 43.1711 188.693 35.33C193.84 48.5969 197.277 62.465 198.923 76.6C184.542 81.5087 170.924 88.42 158.473 97.13C160.362 100.413 162.032 103.817 163.473 107.32C174.473 99.5 190.663 90.76 205.083 86.32C218.273 82.32 232.233 80.41 238.433 80.41C239.773 92.32 241.433 126.33 221.903 152.99C210.743 168.21 194.343 178.73 173.013 184.41C188.803 168.17 210.463 137.73 210.913 92.75C207.143 93.82 203.173 95.06 199.643 96.39C198.593 125.74 188.163 147.39 175.643 163.79C174.783 164.79 155.543 187.87 141.923 201.07C163.323 197.96 204.783 195.24 230.923 159.62C249.393 134.48 253.793 100.08 248.033 69.82ZM77.3826 184.44C56.0526 178.76 39.6625 168.24 28.4925 153.02C8.93254 126.36 10.6225 92.35 11.9625 80.44H12.2526C21.5378 80.6156 30.7586 82.0246 39.6726 84.63C37.3226 134.1 60.6526 167.24 77.3826 184.44Z" fill="white"/>
</svg>
