<svg width="683" height="576" viewBox="0 0 683 576" fill="none" xmlns="http://www.w3.org/2000/svg">
<g clip-path="url(#clip0)">
<path d="M508.06 161.068H331.546V434.537H508.06V161.068Z" fill="white"/>
<path d="M296.168 327.981H477.152" stroke="black" stroke-miterlimit="10"/>
<path d="M296.168 345.865H477.152" stroke="black" stroke-miterlimit="10"/>
<path d="M296.168 363.748H477.152" stroke="black" stroke-miterlimit="10"/>
<path d="M296.168 381.632H477.152" stroke="black" stroke-miterlimit="10"/>
<path d="M419.803 286.998C445.306 286.998 465.98 266.314 465.98 240.799C465.98 215.283 445.306 194.599 419.803 194.599C394.3 194.599 373.626 215.283 373.626 240.799C373.626 266.314 394.3 286.998 419.803 286.998Z" fill="#ED3E2E"/>
<path opacity="0.7" d="M550.141 258.31H477.152V326.118H550.141V258.31Z" fill="#FFC806"/>
<path d="M500.258 291.408L510.685 295.622V298.887L497.06 292.574V290.142L510.685 283.846V287.111L500.258 291.408ZM498.809 344.217H496.161L506.288 317.883H508.92L498.809 344.217ZM509.103 371.308L498.093 366.994V363.829L512.318 370.125V372.557L498.093 378.87V375.672L509.103 371.308Z" fill="white"/>
<path d="M420.548 26.5683H26.5552V285.88H420.548V26.5683Z" stroke="black" stroke-miterlimit="10"/>
<path d="M26.5552 40.3535H420.548" stroke="black" stroke-miterlimit="10"/>
<path d="M173.651 63.4531H55.2295V181.932H173.651V63.4531Z" stroke="black" stroke-miterlimit="10"/>
<path d="M196.367 73.8852H377.35" stroke="black" stroke-miterlimit="10"/>
<path d="M196.367 91.7688H377.35" stroke="black" stroke-miterlimit="10"/>
<path d="M196.367 109.652H377.35" stroke="black" stroke-miterlimit="10"/>
<path d="M196.367 127.536H377.35" stroke="black" stroke-miterlimit="10"/>
<path opacity="0.44" d="M114.44 94.7494L82.1908 150.636H146.689L114.44 94.7494Z" fill="#2E5BFF"/>
<path d="M35.1202 37.0003C36.9712 37.0003 38.4718 35.4991 38.4718 33.6472C38.4718 31.7953 36.9712 30.294 35.1202 30.294C33.2692 30.294 31.7687 31.7953 31.7687 33.6472C31.7687 35.4991 33.2692 37.0003 35.1202 37.0003Z" fill="#ED3E2E"/>
<path d="M46.6644 37.0003C48.5154 37.0003 50.016 35.4991 50.016 33.6472C50.016 31.7953 48.5154 30.294 46.6644 30.294C44.8134 30.294 43.3129 31.7953 43.3129 33.6472C43.3129 35.4991 44.8134 37.0003 46.6644 37.0003Z" fill="#FFC806"/>
<path d="M58.2086 37.0003C60.0596 37.0003 61.5602 35.4991 61.5602 33.6472C61.5602 31.7953 60.0596 30.294 58.2086 30.294C56.3576 30.294 54.8571 31.7953 54.8571 33.6472C54.8571 35.4991 56.3576 37.0003 58.2086 37.0003Z" fill="#50B89D"/>
<path d="M200.091 238.004L211.263 228.131H199.867L200.091 238.004Z" fill="#FFC806"/>
<path d="M259.912 191.246H204.321C195.815 191.246 188.919 198.145 188.919 206.656V213.839C188.919 222.35 195.815 229.249 204.321 229.249H259.912C268.418 229.249 275.314 222.35 275.314 213.839V206.656C275.314 198.145 268.418 191.246 259.912 191.246Z" fill="#FFC806"/>
<path d="M220.572 213.601C222.423 213.601 223.924 212.099 223.924 210.247C223.924 208.396 222.423 206.894 220.572 206.894C218.721 206.894 217.221 208.396 217.221 210.247C217.221 212.099 218.721 213.601 220.572 213.601Z" fill="white"/>
<path d="M232.117 213.601C233.968 213.601 235.468 212.099 235.468 210.247C235.468 208.396 233.968 206.894 232.117 206.894C230.266 206.894 228.765 208.396 228.765 210.247C228.765 212.099 230.266 213.601 232.117 213.601Z" fill="white"/>
<path d="M243.661 213.601C245.512 213.601 247.012 212.099 247.012 210.247C247.012 208.396 245.512 206.894 243.661 206.894C241.81 206.894 240.309 208.396 240.309 210.247C240.309 212.099 241.81 213.601 243.661 213.601Z" fill="white"/>
<path d="M553.865 126.232L542.693 116.359H554.088L553.865 126.232Z" fill="#2E5BFF"/>
<path d="M494.043 117.476L549.634 117.476C558.141 117.476 565.036 110.577 565.036 102.067V94.8835C565.036 86.373 558.141 79.4738 549.634 79.4738H494.043C485.537 79.4738 478.641 86.373 478.641 94.8835V102.067C478.641 110.577 485.537 117.476 494.043 117.476Z" fill="#2E5BFF"/>
<path d="M533.383 101.828C535.234 101.828 536.735 100.327 536.735 98.4751C536.735 96.6232 535.234 95.1219 533.383 95.1219C531.532 95.1219 530.031 96.6232 530.031 98.4751C530.031 100.327 531.532 101.828 533.383 101.828Z" fill="white"/>
<path d="M521.839 101.828C523.69 101.828 525.19 100.327 525.19 98.4751C525.19 96.6232 523.69 95.1219 521.839 95.1219C519.988 95.1219 518.487 96.6232 518.487 98.4751C518.487 100.327 519.988 101.828 521.839 101.828Z" fill="white"/>
<path d="M510.295 101.828C512.146 101.828 513.646 100.327 513.646 98.4751C513.646 96.6232 512.146 95.1219 510.295 95.1219C508.444 95.1219 506.943 96.6232 506.943 98.4751C506.943 100.327 508.444 101.828 510.295 101.828Z" fill="white"/>
<path d="M547.906 33.6472C549.757 33.6472 551.258 32.1459 551.258 30.294C551.258 28.4421 549.757 26.9409 547.906 26.9409C546.055 26.9409 544.555 28.4421 544.555 30.294C544.555 32.1459 546.055 33.6472 547.906 33.6472Z" fill="#F98B67"/>
<path d="M554.982 47.4324C556.833 47.4324 558.333 45.9312 558.333 44.0793C558.333 42.2274 556.833 40.7261 554.982 40.7261C553.131 40.7261 551.63 42.2274 551.63 44.0793C551.63 45.9312 553.131 47.4324 554.982 47.4324Z" fill="#F98B67"/>
<path d="M477.896 185.285C480.776 185.285 483.11 182.95 483.11 180.069C483.11 177.188 480.776 174.853 477.896 174.853C475.017 174.853 472.683 177.188 472.683 180.069C472.683 182.95 475.017 185.285 477.896 185.285Z" fill="#F98B67"/>
<path d="M508.433 203.169C511.312 203.169 513.646 200.833 513.646 197.952C513.646 195.072 511.312 192.736 508.433 192.736C505.553 192.736 503.219 195.072 503.219 197.952C503.219 200.833 505.553 203.169 508.433 203.169Z" fill="#F98B67"/>
<path d="M39.2166 209.13C42.0959 209.13 44.4301 206.794 44.4301 203.914C44.4301 201.033 42.0959 198.698 39.2166 198.698C36.3372 198.698 34.0031 201.033 34.0031 203.914C34.0031 206.794 36.3372 209.13 39.2166 209.13Z" fill="#F98B67"/>
<path d="M489.962 442.175V441.43L488.174 439.194L484.041 434.172L479.647 428.852C479.647 428.852 475.416 425.923 474.329 425.417C470.367 423.584 466.464 422.183 461.802 422.183C458.934 422.183 448.217 422.615 448.194 424.418C448.194 427.093 463.202 437.22 474.21 442.138C479.043 442.175 489.962 442.175 489.962 442.175Z" fill="#FFC806"/>
<path d="M487.69 442.175C472.415 430.417 441.231 366.282 449.23 342.511C466.256 351.192 484.935 381.125 493.746 406.4C494.22 408.044 494.6 409.714 494.885 411.4L498.46 427.794L499.324 442.197L487.69 442.175Z" fill="#2E5BFF"/>
<path d="M498.117 442.175C492.963 437.987 491.317 425.588 491.273 420.961C491.191 412.324 492.517 405.961 499.897 396.46C507.278 386.959 505.312 371.2 515.113 360.566C524.915 349.933 531.409 346.967 543.043 346.967C554.677 346.967 558.371 365.835 558.311 370.581C558.177 389.731 546.119 392.444 538.76 401.579C533.42 408.211 533.003 413.636 531.387 416.736C522.718 433.442 515.672 439.723 510.458 442.175" fill="#ED3E2E"/>
<path d="M500.963 440.789C501.111 408.129 535.513 359.076 542.864 351.721" stroke="white" stroke-width="0.4" stroke-linecap="round" stroke-linejoin="round"/>
<path d="M502.817 425.946C499.011 421.795 495.548 410.029 496.069 406.974" stroke="white" stroke-width="0.4" stroke-linecap="round" stroke-linejoin="round"/>
<path d="M493.068 439.358C487.675 429.798 462.092 383.182 452.551 348.845" stroke="white" stroke-width="0.4" stroke-linecap="round" stroke-linejoin="round"/>
<path d="M510.488 442.175H526.516L513.11 492.1H477.263L464.073 442.175H510.488Z" fill="#B37361"/>
<path d="M453.438 425.432C461.251 425.968 471.082 426.326 478.016 431.057" stroke="white" stroke-width="0.4" stroke-linecap="round" stroke-linejoin="round"/>
<path d="M577.56 239.193C575.676 248.187 561.987 359.75 566.463 386.397C570.939 413.043 643.921 468.877 647.116 469.854C650.84 467.119 656.322 458.155 656.322 458.155C656.322 458.155 602.809 396.091 601.788 393.602C600.768 391.114 613.511 247.389 613.511 247.389L577.56 239.193Z" fill="#1F161E"/>
<path d="M664.715 259.498L610.115 482.305H591.726L610.361 249.871L664.715 259.498Z" fill="#273237"/>
<path d="M625.934 131.929C633.472 131.929 672.789 133.203 679.894 147.048C686.999 160.893 680.304 224.886 675.887 227.367C673.504 228.701 672.856 227.405 672.163 230.117C671.471 232.829 664.715 259.498 664.715 259.498C660.425 259.617 597.878 250.191 577.575 239.17C577.694 236.108 578.678 228.142 578.678 227.531C575.981 228.634 572.719 228.865 571.826 227.531C563.901 215.527 575.713 152.942 584.189 140.349C587.794 134.946 613.839 131.966 625.934 131.929Z" fill="#2E5BFF"/>
<path d="M651.823 229.096C653.67 229.096 669.571 240.273 668.208 245.765C669.326 241.354 672.841 227.725 672.841 227.725C671.329 228.015 653.179 229.118 651.823 229.096Z" fill="#1F161E"/>
<path d="M635.669 139.231C635.669 141.66 616.52 141.66 616.52 139.231V114.641H635.669V139.231Z" fill="#F8CDBA"/>
<path d="M624.683 120.461C626.173 120.461 635.669 124.663 635.669 127.003V114.641C633.3 114.641 624.683 120.461 624.683 120.461Z" fill="#1F161E"/>
<path d="M622.061 122.257C632.349 122.257 640.688 113.913 640.688 103.62C640.688 93.3279 632.349 84.9842 622.061 84.9842C611.774 84.9842 603.434 93.3279 603.434 103.62C603.434 113.913 611.774 122.257 622.061 122.257Z" fill="#F8CDBA"/>
<path d="M615.761 76.3777C606.197 76.3777 600.239 82.3836 600.239 90.081C600.239 96.4819 601.788 100.103 603.613 101.02C604.767 94.8053 607.277 91.929 609.355 90.6921C610.972 91.929 613.735 94.9245 617.429 95.8485C621.123 96.7725 630.738 96.5936 638.506 102.242C641.046 99.9319 643.578 96.9289 643.578 93.3895C643.578 89.85 642.014 85.4089 632.816 82.8456C626.739 81.1541 625.89 76.3777 615.761 76.3777Z" fill="#1F161E"/>
<path d="M604.656 109.157C606.457 109.157 607.918 108.396 607.918 107.458C607.918 106.52 606.457 105.759 604.656 105.759C602.854 105.759 601.394 106.52 601.394 107.458C601.394 108.396 602.854 109.157 604.656 109.157Z" fill="#FA9E9F"/>
<path d="M625.175 109.157C626.976 109.157 628.437 108.396 628.437 107.458C628.437 106.52 626.976 105.759 625.175 105.759C623.373 105.759 621.912 106.52 621.912 107.458C621.912 108.396 623.373 109.157 625.175 109.157Z" fill="#FA9E9F"/>
<path d="M612.625 103.933C612.014 104.805 608.901 108.464 612.186 109.939" stroke="#1F161E" stroke-miterlimit="10" stroke-linecap="round"/>
<path d="M618.762 114.216C619.745 114.216 621.257 112.994 622.054 111.899" stroke="#1F161E" stroke-miterlimit="10" stroke-linecap="round"/>
<path d="M639.281 110.073C641.658 110.073 643.586 108.145 643.586 105.766C643.586 103.388 641.658 101.459 639.281 101.459C636.903 101.459 634.976 103.388 634.976 105.766C634.976 108.145 636.903 110.073 639.281 110.073Z" fill="#F8CDBA"/>
<path d="M652.255 168.597C651.92 172.711 650.609 193.038 651.101 195.713C644.852 197.889 587.637 225.035 577.739 228.015" stroke="#1F161E" stroke-miterlimit="10" stroke-linecap="round"/>
<path d="M585.805 162.182C584.487 166.787 580.048 187.688 583.169 197.397" stroke="#1F161E" stroke-miterlimit="10" stroke-linecap="round"/>
<path d="M600.411 218.507C603.39 220.601 631.945 233.246 671.426 228.478" stroke="#1F161E" stroke-miterlimit="10" stroke-linecap="round"/>
<path d="M597.677 197.397C599.591 197.703 593.35 192.718 589.812 194.573C586.274 196.429 581.508 204.826 582.483 206.771C582.615 207.124 582.824 207.443 583.095 207.705C583.366 207.966 583.692 208.164 584.049 208.282C584.406 208.401 584.786 208.438 585.159 208.391C585.533 208.343 585.891 208.213 586.207 208.008C587.168 207.39 594.34 196.861 597.677 197.397Z" fill="#F8CDBA"/>
<path d="M655.711 459.071C656.731 459.816 665.781 465.942 665.855 469.801C665.93 473.661 657.424 486.455 655.711 486.821C653.998 487.186 652.776 485.74 652.776 483.154C652.776 480.569 656.009 476.038 655.577 474.026C655.145 472.015 650.967 468.333 648.822 468.266" fill="#1F161E"/>
<path d="M608.372 482.305C608.372 484.078 609.4 495.211 607.344 496.247C605.289 497.282 582.603 497.893 581.575 496.865C580.547 495.837 579.921 493.668 580.83 493.05C581.739 492.432 590.512 490.673 591.704 489.853C592.896 489.034 594.542 484.637 593.938 482.305" fill="#1F161E"/>
<path d="M163.399 399.653H19.3719V472.745H163.399V399.653Z" fill="#B37361"/>
<path d="M234.355 365.399C234.98 369.124 245.601 454.302 247.322 455.711C249.042 457.119 267.312 460.241 268.876 457.901C269.189 454.176 269.621 394.772 270.589 389.459" fill="#1F161E"/>
<path d="M28.868 347.627C21.502 343.998 36.8596 415.935 77.2792 415.935C117.699 415.935 185.735 354.333 196.751 354.333C221.068 354.333 278.632 402.097 283.146 402.097C286.602 398.64 293.513 392.589 293.513 390.175C293.513 387.76 238.399 297.031 197.16 297.031C181.17 297.054 45.4991 355.846 28.868 347.627Z" fill="#273237"/>
<path d="M51.6138 348.849C59.6947 347.016 69.7493 342.269 78.6495 337.418C54.4365 345.339 34.5953 350.458 28.8679 347.627C24.9652 345.704 27.4379 364.959 36.6137 383.506C34.9528 379.922 32.5844 353.201 51.6138 348.849Z" fill="#1F161E"/>
<path d="M69.429 222.65C75.797 222.822 108.947 221.846 118.034 230.504C124.774 236.928 145.733 292.165 148.965 311.562C134.888 318.722 33.359 367.358 1.93639 345.973C1.24374 329.356 4.46867 263.298 25.0174 228.656C32.5323 223.649 63.3069 222.494 69.429 222.65Z" fill="#ED3E2E"/>
<path d="M82.3437 206.846H62.9792V227.665C62.9792 232.881 82.3437 232.837 82.3437 227.665V206.846Z" fill="#F8CDBA"/>
<path d="M62.9792 219.416C62.9792 217.107 69.377 211.302 73.3318 211.51C73.4286 208.94 64.2975 205.244 64.2975 205.244L62.9792 208.798V219.416Z" fill="#1F161E"/>
<path d="M102.624 206.846C103.059 204.831 103.279 202.775 103.28 200.713C103.28 185.348 91.2812 172.889 76.4674 172.889C61.6536 172.889 49.655 185.348 49.655 200.713C49.6559 202.775 49.8756 204.831 50.3104 206.846H102.624Z" fill="#1F161E"/>
<path d="M95.5562 188.09C92.2717 187.591 88.9946 185.006 86.7081 183.314C73.6744 192.867 65.3253 192.994 64.4241 192.994C63.5229 192.994 59.8511 198.269 58.1604 198.865L58.0115 198.776C58.5141 201.552 59.5883 204.193 61.1659 206.531C62.7435 208.869 64.79 210.854 67.1753 212.358C69.5606 213.863 72.2325 214.854 75.0215 215.27C77.8104 215.686 80.6553 215.517 83.3754 214.774C86.0955 214.03 88.6313 212.729 90.8218 210.953C93.0123 209.176 94.8096 206.963 96.0994 204.455C97.3892 201.946 98.1433 199.197 98.314 196.381C98.4846 193.565 98.0679 190.744 97.0905 188.098C96.5807 188.159 96.0654 188.156 95.5562 188.09Z" fill="#F8CDBA"/>
<path d="M61.9439 176.354C66.3123 176.354 69.8536 172.811 69.8536 168.441C69.8536 164.07 66.3123 160.527 61.9439 160.527C57.5756 160.527 54.0343 164.07 54.0343 168.441C54.0343 172.811 57.5756 176.354 61.9439 176.354Z" fill="#1F161E"/>
<path d="M65.4668 192.569C64.6121 192.609 63.8057 192.977 63.2151 193.597C62.6245 194.217 62.295 195.04 62.295 195.896C62.295 196.752 62.6245 197.575 63.2151 198.195C63.8057 198.814 64.6121 199.182 65.4668 199.223" stroke="#1F161E" stroke-miterlimit="10" stroke-linecap="round"/>
<path d="M90.8195 192.994C91.7951 194.298 94.305 196.585 90.8195 199.007" stroke="#1F161E" stroke-miterlimit="10" stroke-linecap="round"/>
<path d="M80.2509 200.75C80.2509 201.727 80.6679 204.059 82.7608 204.663" stroke="#1F161E" stroke-miterlimit="10" stroke-linecap="round"/>
<path d="M73.7637 200.982C75.4584 200.982 76.8322 200.268 76.8322 199.387C76.8322 198.506 75.4584 197.792 73.7637 197.792C72.069 197.792 70.6952 198.506 70.6952 199.387C70.6952 200.268 72.069 200.982 73.7637 200.982Z" fill="#FA9E9F"/>
<path d="M96.5766 200.982C98.2713 200.982 99.6451 200.268 99.6451 199.387C99.6451 198.506 98.2713 197.792 96.5766 197.792C94.8819 197.792 93.5081 198.506 93.5081 199.387C93.5081 200.268 94.8819 200.982 96.5766 200.982Z" fill="#FA9E9F"/>
<path d="M117.334 280.228L138.032 274.9C140.02 278.283 149.702 311.524 149.702 311.524L117.751 324.997C118.168 318.7 119.427 289.863 117.334 280.228Z" fill="#F8CDBA"/>
<path d="M44.7617 275.019C44.7617 277.523 42.654 287.054 41.4102 291.532" stroke="#1F161E" stroke-miterlimit="10" stroke-linecap="round"/>
<path d="M117.334 280.228C116.835 276.286 113.915 254.073 108.948 242.382" stroke="#1F161E" stroke-miterlimit="10" stroke-linecap="round"/>
<path d="M117.334 280.228L138.032 274.9C140.02 278.283 149.702 311.524 149.702 311.524L117.751 324.997C118.168 318.7 119.427 289.863 117.334 280.228Z" fill="#F8CDBA"/>
<path d="M283.764 400.339C284.226 401.084 290.393 408.655 292.575 408.736C294.757 408.818 308.007 399.839 307.426 397.909C306.845 395.979 298.533 397.239 297.103 396.561C295.673 395.883 292.478 392.693 291.957 391.278" fill="#1F161E"/>
<path d="M251.18 456.5C251.023 457.328 250.182 467.082 251.693 468.661C253.205 470.241 268.973 472.983 269.889 471.187C270.805 469.392 263.93 464.526 263.402 463.05C262.873 461.575 262.761 457.089 263.402 455.688" fill="#1F161E"/>
<path d="M226.46 313.611H156.323L173.022 269.341H243.158L226.46 313.611Z" fill="#969696"/>
<path d="M168.017 311.942H97.88V313.611H168.017V311.942Z" fill="#969696"/>
<path d="M41.4102 291.532C40.0621 296.569 33.5154 318.179 36.1818 321.904C38.8481 325.63 105.626 317.187 123.493 311.621C128.044 310.131 131.418 306.226 133.436 305.72C136.028 305.281 138.69 305.815 140.912 307.221C143.133 308.627 144.757 310.804 145.472 313.335C138.337 316.793 35.3178 369.415 1.93643 345.995C-4.37192 341.472 6.69563 286.331 7.20208 283.551C12.8401 284.23 41.4102 291.532 41.4102 291.532Z" fill="#F8CDBA"/>
<path d="M118.287 312.962C120.298 312.486 122.056 312.016 123.501 311.569C128.051 310.079 131.425 306.174 133.444 305.667C136.035 305.228 138.698 305.763 140.919 307.169C143.141 308.575 144.765 310.752 145.479 313.283" stroke="#1F161E" stroke-miterlimit="10" stroke-linecap="round"/>
</g>
<defs>
<clipPath id="clip0">
<rect width="683" height="576" fill="white"/>
</clipPath>
</defs>
</svg>
