<svg width="176" height="175" viewBox="0 0 176 175" fill="none" xmlns="http://www.w3.org/2000/svg">
<path d="M59.3202 15.3998L43.918 30.802L68.0508 54.9348L83.453 39.5326L59.3202 15.3998Z" fill="white"/>
<path d="M153.205 109.285L103.226 159.261L87.826 174.661L72.433 159.261L87.826 143.861L122.409 109.287L92.245 79.133L107.645 63.733L116.339 72.427L131.739 87.827L153.205 109.285Z" fill="white"/>
<path d="M53.254 109.284L87.826 143.858L103.226 159.258L87.826 174.658L72.426 159.258L22.449 109.281L43.91 87.813L59.31 72.423L72.426 59.307L116.346 15.4L131.746 30.79L103.237 59.307L53.254 109.284Z" fill="white"/>
<path d="M175.656 43.913L160.256 59.313L144.856 43.913L116.338 15.4L131.738 0L160.256 28.513L175.656 43.913Z" fill="white"/>
<path d="M175.656 43.913L160.256 59.313L136.126 83.435L120.726 68.035L144.852 43.909L160.252 28.509L175.656 43.913Z" fill="white"/>
<path d="M0.00500488 43.913L15.405 59.313L30.805 43.913L59.323 15.4L43.923 0L15.405 28.513L0.00500488 43.913Z" fill="white"/>
<path d="M54.598 67.71L39.205 83.11L15.405 59.31L0.00500488 43.917L15.405 28.517L30.805 43.917L54.598 67.71Z" fill="white"/>
<path d="M88.3508 92.0842L70.548 109.887L88.3508 127.69L106.154 109.887L88.3508 92.0842Z" fill="white"/>
</svg>
