<svg width="60" height="60" viewBox="0 0 60 60" fill="none" xmlns="http://www.w3.org/2000/svg">
<path d="M42.1257 0H17.8743C8.01838 0 0 8.01838 0 17.8743V42.1257C0 51.9816 8.01838 60 17.8743 60H42.1257C51.9816 60 60 51.9816 60 42.1257V17.8743C59.9999 8.01838 51.9815 0 42.1257 0ZM53.964 42.1257C53.964 48.6637 48.6637 53.964 42.1257 53.964H17.8743C11.3363 53.964 6.036 48.6637 6.036 42.1257V17.8743C6.036 11.3361 11.3363 6.036 17.8743 6.036H42.1257C48.6637 6.036 53.964 11.3361 53.964 17.8743V42.1257Z" fill="url(#paint0_linear)"/>
<path d="M30 14.4819C21.4433 14.4819 14.4819 21.4434 14.4819 30C14.4819 38.5566 21.4433 45.5181 30 45.5181C38.5567 45.5181 45.5181 38.5567 45.5181 30C45.5181 21.4432 38.5567 14.4819 30 14.4819ZM30 39.4822C24.7631 39.4822 20.5179 35.2369 20.5179 30.0001C20.5179 24.7632 24.7632 20.5179 30 20.5179C35.2369 20.5179 39.4821 24.7632 39.4821 30.0001C39.4821 35.2368 35.2368 39.4822 30 39.4822Z" fill="url(#paint1_linear)"/>
<path d="M45.5482 18.3168C47.6018 18.3168 49.2666 16.652 49.2666 14.5983C49.2666 12.5447 47.6018 10.8799 45.5482 10.8799C43.4945 10.8799 41.8297 12.5447 41.8297 14.5983C41.8297 16.652 43.4945 18.3168 45.5482 18.3168Z" fill="url(#paint2_linear)"/>
<defs>
<linearGradient id="paint0_linear" x1="30" y1="59.8253" x2="30" y2="0.46603" gradientUnits="userSpaceOnUse">
<stop stop-color="#E09B3D"/>
<stop offset="0.3" stop-color="#C74C4D"/>
<stop offset="0.6" stop-color="#C21975"/>
<stop offset="1" stop-color="#7024C4"/>
</linearGradient>
<linearGradient id="paint1_linear" x1="30" y1="59.8254" x2="30" y2="0.466102" gradientUnits="userSpaceOnUse">
<stop stop-color="#E09B3D"/>
<stop offset="0.3" stop-color="#C74C4D"/>
<stop offset="0.6" stop-color="#C21975"/>
<stop offset="1" stop-color="#7024C4"/>
</linearGradient>
<linearGradient id="paint2_linear" x1="45.5482" y1="59.8253" x2="45.5482" y2="0.466008" gradientUnits="userSpaceOnUse">
<stop stop-color="#E09B3D"/>
<stop offset="0.3" stop-color="#C74C4D"/>
<stop offset="0.6" stop-color="#C21975"/>
<stop offset="1" stop-color="#7024C4"/>
</linearGradient>
</defs>
</svg>
