<svg width="31" height="30" viewBox="0 0 31 30" fill="none" xmlns="http://www.w3.org/2000/svg">
<path d="M10.1881 2.6451L7.54256 5.2906L11.6876 9.43569L14.3331 6.79019L10.1881 2.6451Z" fill="#333333"/>
<path d="M26.3138 18.7709L17.7294 27.3549L15.0842 30L12.4403 27.3549L15.0842 24.7098L21.0243 18.7713L15.8433 13.592L18.4884 10.9469L19.9817 12.4402L22.6268 15.0853L26.3138 18.7709Z" fill="#333333"/>
<path d="M9.14612 18.7709L15.0842 24.7094L17.7294 27.3545L15.0842 29.9996L12.4391 27.3545L3.85501 18.7704L7.54118 15.083L10.1863 12.4396L12.4391 10.1868L19.9829 2.64528L22.628 5.28869L17.7313 10.1868L9.14612 18.7709Z" fill="#333333"/>
<path d="M30.17 7.54255L27.5249 10.1877L24.8798 7.54255L19.9815 2.64512L22.6266 0L27.5249 4.89743L30.17 7.54255Z" fill="#333333"/>
<path d="M30.17 7.54255L27.5249 10.1877L23.3803 14.3309L20.7352 11.6858L24.8791 7.54187L27.5242 4.89675L30.17 7.54255Z" fill="#333333"/>
<path d="M0 7.54255L2.64512 10.1877L5.29025 7.54255L10.1885 2.64512L7.54341 0L2.64512 4.89743L0 7.54255Z" fill="#333333"/>
<path d="M9.37696 11.63L6.73304 14.2751L2.64512 10.1872L0 7.54324L2.64512 4.89812L5.29025 7.54324L9.37696 11.63Z" fill="#333333"/>
<path d="M15.1744 15.8165L12.1165 18.8743L15.1744 21.9322L18.2322 18.8743L15.1744 15.8165Z" fill="#333333"/>
</svg>
