<svg width="96" height="18" viewBox="0 0 96 18" fill="none" xmlns="http://www.w3.org/2000/svg">
<path d="M0 0.121693V17.3963H2.18975V4.0389L6.05829 10.9487L7.22615 8.95365L2.31139 0.121693H0ZM14.8416 0.121693L8.56432 11.338L7.42079 13.3331L7.95606 14.282H9.19692L14.9389 4.0389V17.3963H17.1286V0.121693H14.8416Z" fill="#333333"/>
<path d="M29.2951 2.48175L28.3462 5.06078L30.5359 10.6325H26.2051L25.5482 12.3356H31.0225L33.0663 17.3963H35.402L29.2951 2.48175ZM28.3462 0.121693H26.497L19.4169 17.3963H21.6553L27.4216 2.65206L28.3462 0.121693Z" fill="#333333"/>
<path d="M47.6394 3.74689L48.6613 1.97077C47.9314 1.38684 47.0798 0.900227 46.1553 0.53527C45.2064 0.194644 44.1602 0 42.9923 0C42.0921 0 41.2648 0.121652 40.5106 0.340626C39.732 0.5596 39.0751 0.875897 38.5398 1.31385C37.9802 1.75179 37.5423 2.28706 37.2503 2.91966C36.934 3.55225 36.788 4.28216 36.788 5.1094C36.788 5.79065 36.8853 6.37458 37.1287 6.86119C37.3476 7.3478 37.6883 7.76142 38.1262 8.10204C38.5641 8.44267 39.1237 8.73464 39.805 8.97794C40.4619 9.22125 41.2405 9.46455 42.1164 9.65919C42.895 9.85384 43.6006 10.0485 44.2331 10.2431C44.8657 10.4378 45.3767 10.6324 45.8146 10.8757C46.2282 11.119 46.5445 11.411 46.7635 11.7516C46.9825 12.0922 47.1041 12.4815 47.1041 12.9681C47.1041 13.844 46.7635 14.501 46.0823 14.9389C45.401 15.3769 44.4278 15.5958 43.2113 15.5958C42.53 15.5958 41.8974 15.5472 41.2892 15.4012C40.6809 15.2552 40.1213 15.0849 39.586 14.8659C39.0508 14.6469 38.5885 14.4036 38.1749 14.1117C37.7612 13.844 37.4206 13.5764 37.1773 13.2844L36.1311 15.1335C37.1043 15.9365 38.1749 16.5447 39.3671 16.9583C40.5592 17.372 41.8244 17.5666 43.1626 17.5666C44.0385 17.5666 44.8657 17.4936 45.6443 17.299C46.3986 17.1043 47.0555 16.8123 47.6151 16.4231C48.1747 16.0338 48.6126 15.5228 48.9532 14.9146C49.2695 14.3063 49.4399 13.5764 49.4399 12.7492C49.4399 11.9706 49.2939 11.3137 49.0262 10.7784C48.7586 10.2431 48.3693 9.80518 47.8584 9.41589C47.3474 9.05093 46.7392 8.73464 46.0093 8.49133C45.2794 8.24803 44.4764 8.00472 43.6005 7.81008C42.822 7.63977 42.1407 7.46945 41.5811 7.29914C40.9972 7.15316 40.5349 6.95851 40.1456 6.73954C39.7563 6.52056 39.4887 6.25293 39.3184 5.93663C39.1237 5.64467 39.0508 5.25538 39.0508 4.76877C39.0508 3.89287 39.3427 3.21162 39.9753 2.70068C40.6079 2.21407 41.5811 1.94644 42.9436 1.94644C43.4546 1.94644 43.9412 2.01943 44.4278 2.11675C44.9144 2.21407 45.3523 2.36005 45.766 2.53037C46.1553 2.70068 46.5202 2.89533 46.8608 3.08997C47.1771 3.30894 47.4448 3.52792 47.6394 3.74689Z" fill="#333333"/>
<path d="M56.6266 17.3963H58.8163V4.25787H56.6266V17.3963ZM50.6656 0.121693V2.06813H64.7773V0.121693H50.6656Z" fill="#333333"/>
<path d="M76.2437 10.7784C76.779 10.6568 77.2899 10.4135 77.7279 10.0729C78.1658 9.75656 78.5551 9.36727 78.8714 8.90499C79.1877 8.46704 79.431 7.9561 79.6013 7.3965C79.7716 6.8369 79.869 6.25297 79.869 5.64471C79.869 4.96345 79.723 4.30653 79.4797 3.64961C79.212 2.99269 78.8471 2.40876 78.3848 1.87349C77.9225 1.33822 77.3629 0.924598 76.7303 0.608301C76.0977 0.292005 75.3922 0.121693 74.6379 0.121693H67.2415V17.3963H69.4312V11.1921H71.6209L70.4044 9.24562H69.4312V2.06813H74.5163C74.9299 2.06813 75.3192 2.16545 75.7085 2.3601C76.0978 2.55474 76.414 2.79804 76.706 3.13867C76.998 3.4793 77.2169 3.84425 77.3873 4.2822C77.5576 4.72015 77.6549 5.18243 77.6549 5.64471C77.6549 6.13132 77.5819 6.56927 77.4359 7.00721C77.2656 7.46949 77.071 7.83445 76.8277 8.17508C76.56 8.5157 76.2437 8.78334 75.8788 8.95365C75.5138 9.14829 75.1002 9.24562 74.6623 9.24562H72.7402L74.0053 11.1921L77.9469 17.3963H80.4286L76.2437 10.7784Z" fill="#333333"/>
<path d="M80.696 0.121693L86.0731 9.12396L87.1923 7.20186L83.1048 0.121693H80.696ZM93.6155 0.121693L88.3358 9.12396L87.241 11.0947V17.3963H89.4307V11.0947L95.9999 0.121693H93.6155Z" fill="#333333"/>
</svg>
