<svg width="59" height="60" viewBox="0 0 59 60" fill="none" xmlns="http://www.w3.org/2000/svg">
<g clip-path="url(#clip0)">
<path d="M58.7145 29.952C58.7145 46.096 45.6271 59.1833 29.4832 59.1833C13.3393 59.1833 0.251892 46.096 0.251892 29.952C0.251892 13.8079 13.3393 0.72073 29.4832 0.72073C45.6271 0.72073 58.7145 13.8079 58.7145 29.952Z" fill="white"/>
<path d="M29.483 0.72049C13.339 0.72049 0.251648 13.8079 0.251648 29.9518C0.251648 42.3357 7.95652 52.9222 18.8303 57.1814C18.5749 54.8686 18.3439 51.3117 18.9317 48.7869C19.4629 46.5055 22.3594 34.257 22.3594 34.257C22.3594 34.257 21.485 32.5059 21.485 29.9171C21.485 25.8524 23.8409 22.8179 26.7743 22.8179C29.2683 22.8179 30.4728 24.6903 30.4728 26.9355C30.4728 29.4436 28.876 33.1933 28.052 36.6683C27.3633 39.5777 29.511 41.9504 32.3806 41.9504C37.576 41.9504 41.5697 36.4722 41.5697 28.5647C41.5697 21.5657 36.5406 16.6722 29.3596 16.6722C21.0422 16.6722 16.1603 22.9107 16.1603 29.3578C16.1603 31.8702 17.1281 34.5642 18.3358 36.0287C18.5746 36.3182 18.6096 36.5717 18.5385 36.8671C18.3166 37.7904 17.8235 39.7758 17.7266 40.1822C17.5992 40.7173 17.303 40.8309 16.749 40.573C13.0982 38.8737 10.8156 33.536 10.8156 29.2488C10.8156 20.0278 17.5153 11.5595 30.1299 11.5595C40.2703 11.5595 48.1505 18.7854 48.1505 28.4422C48.1505 38.5164 41.7985 46.6241 32.9821 46.6241C30.0199 46.6241 27.2354 45.0853 26.2822 43.2675C26.2822 43.2675 24.8164 48.8487 24.4611 50.2164C23.8012 52.7554 22.0196 55.938 20.828 57.8796C23.563 58.7264 26.4695 59.1831 29.483 59.1831C45.6271 59.1831 58.7145 46.0957 58.7145 29.9518C58.7145 13.8079 45.6271 0.72049 29.483 0.72049Z" fill="#E60023"/>
</g>
<defs>
<clipPath id="clip0">
<rect width="58.6581" height="60" fill="white"/>
</clipPath>
</defs>
</svg>
