<svg width="745" height="522" viewBox="0 0 745 522" fill="none" xmlns="http://www.w3.org/2000/svg">
<g clip-path="url(#clip0)">
<path d="M332.04 417.91C366.895 417.91 395.15 411.664 395.15 403.96C395.15 396.256 366.895 390.01 332.04 390.01C297.185 390.01 268.93 396.256 268.93 403.96C268.93 411.664 297.185 417.91 332.04 417.91Z" fill="black"/>
<path d="M332.04 403.96L296.59 514.91" stroke="black" stroke-width="4" stroke-miterlimit="10" stroke-linecap="round"/>
<path d="M332.04 403.96L367.49 514.91" stroke="black" stroke-width="4" stroke-miterlimit="10" stroke-linecap="round"/>
<path d="M308.23 478.48L347.75 453.14" stroke="black" stroke-width="2" stroke-miterlimit="10" stroke-linecap="round"/>
<path d="M316.17 453.14L355.7 478.48" stroke="black" stroke-width="2" stroke-miterlimit="10" stroke-linecap="round"/>
<path d="M394.15 283.86C393.99 288.78 394.06 306.01 393.25 313.38" stroke="#1F161E" stroke-miterlimit="10" stroke-linecap="round"/>
<path d="M191.12 65.9599C191.12 62.4639 188.286 59.6299 184.79 59.6299C181.294 59.6299 178.46 62.4639 178.46 65.9599V87.8099C178.46 91.3058 181.294 94.1399 184.79 94.1399C188.286 94.1399 191.12 91.3058 191.12 87.8099V65.9599Z" fill="black"/>
<path d="M184.79 130.87C191.804 130.87 197.49 125.184 197.49 118.17C197.49 111.156 191.804 105.47 184.79 105.47C177.776 105.47 172.09 111.156 172.09 118.17C172.09 125.184 177.776 130.87 184.79 130.87Z" fill="#FFC806"/>
<path d="M609.37 269H615.37C616 268.997 616.604 268.746 617.05 268.3C617.496 267.854 617.747 267.25 617.75 266.62V229.74C617.751 229.428 617.689 229.118 617.569 228.83C617.449 228.541 617.273 228.279 617.05 228.06L609.47 220.48C609.25 220.258 608.988 220.082 608.7 219.962C608.412 219.842 608.102 219.78 607.79 219.78H585.4C584.77 219.783 584.166 220.034 583.72 220.48C583.274 220.926 583.023 221.53 583.02 222.16V225.72" fill="#FFC806"/>
<path d="M88.06 357C107.06 360.6 103.67 474 67.2 467.14C32.76 460.6 64.88 352.59 88.06 357Z" fill="black"/>
<path d="M4.64 371C19.76 362.44 83.05 442.08 54.1 458.46C26.75 474 -13.77 381.44 4.64 371Z" fill="#FFD644"/>
<path d="M5.5 371C14.8333 393.333 37.4 441.7 53 456.5" stroke="white" stroke-width="0.5"/>
<path d="M81.69 521.92H43.51C41.9722 521.92 40.4885 521.352 39.3428 520.326C38.1971 519.301 37.4698 517.888 37.3 516.36L32.48 473.08C32.3755 472.202 32.4581 471.312 32.7224 470.469C32.9867 469.625 33.4266 468.847 34.0133 468.186C34.5999 467.524 35.32 466.995 36.1261 466.632C36.9322 466.269 37.806 466.081 38.69 466.08H86.31C87.187 466.081 88.054 466.266 88.8547 466.623C89.6554 466.981 90.3719 467.503 90.9576 468.156C91.5433 468.808 91.9851 469.577 92.2543 470.412C92.5235 471.246 92.614 472.128 92.52 473L87.91 516.28C87.7564 517.824 87.035 519.255 85.8858 520.297C84.7365 521.34 83.2413 521.918 81.69 521.92Z" fill="#969696"/>
<path d="M98.79 312.84C113.26 317.04 102.17 404.57 74.46 396.51C48.3 388.91 81.18 307.72 98.79 312.84Z" fill="#2E5BFF"/>
<path d="M99 313.5C95.3333 329.333 84.9 367.6 72.5 394" stroke="white" stroke-width="0.5"/>
<path d="M122.65 382.48C132.65 391.1 91.97 457.04 72.75 440.48C54.6 424.91 110.44 372 122.65 382.48Z" fill="#7CC64A"/>
<path d="M122.5 383C114.5 393.5 93.3 418.8 72.5 436" stroke="white" stroke-width="0.5"/>
<path d="M62.7 321.94C84.36 321.94 104.19 460.24 62.7 460.24C23.52 460.24 36.33 321.94 62.7 321.94Z" fill="#ED3E2E"/>
<path d="M63 456.5C59.1667 436.5 53.8 381.6 63 322" stroke="white" stroke-width="0.5"/>
<path d="M100.71 456.72H24.51C22.2733 456.72 20.46 458.533 20.46 460.77V468.15C20.46 470.387 22.2733 472.2 24.51 472.2H100.71C102.947 472.2 104.76 470.387 104.76 468.15V460.77C104.76 458.533 102.947 456.72 100.71 456.72Z" fill="#D8D8D8"/>
<path d="M599.29 225.72H577.29C576.937 225.72 576.588 225.79 576.262 225.925C575.936 226.06 575.64 226.259 575.391 226.508C575.142 226.758 574.945 227.055 574.811 227.381C574.677 227.708 574.609 228.057 574.61 228.41V272.21C574.61 272.922 574.892 273.604 575.394 274.109C575.897 274.613 576.578 274.897 577.29 274.9H606.68C607.392 274.897 608.073 274.613 608.576 274.109C609.078 273.604 609.36 272.922 609.36 272.21V235.81C609.361 235.458 609.293 235.108 609.159 234.782C609.025 234.456 608.829 234.16 608.58 233.91L601.18 226.51C600.679 226.007 600 225.723 599.29 225.72Z" fill="#D8D8D8"/>
<path d="M609.37 234.76H601.9C601.502 234.76 601.121 234.602 600.839 234.321C600.558 234.039 600.4 233.658 600.4 233.26V225.72" fill="#969696"/>
<path d="M617.78 228.83H610.31C609.91 228.827 609.528 228.667 609.245 228.385C608.963 228.102 608.803 227.72 608.8 227.32V219.78" fill="#E8B400"/>
<path d="M574.64 175.65H523.08C521.407 175.65 520.05 177.006 520.05 178.68V195.52C520.05 197.193 521.407 198.55 523.08 198.55H574.64C576.313 198.55 577.67 197.193 577.67 195.52V178.68C577.67 177.006 576.313 175.65 574.64 175.65Z" fill="#7CC64A"/>
<path d="M548.85 214.25L555.79 193.23H541.91L548.85 214.25Z" fill="#7CC64A"/>
<path d="M535.1 181.75L529.28 191.82H540.91L535.1 181.75Z" fill="white"/>
<path d="M562.61 191.82L568.43 181.75H556.79L562.61 191.82Z" fill="white"/>
<path d="M548.85 191.16C551.263 191.16 553.22 189.203 553.22 186.79C553.22 184.376 551.263 182.42 548.85 182.42C546.436 182.42 544.48 184.376 544.48 186.79C544.48 189.203 546.436 191.16 548.85 191.16Z" fill="white"/>
<path d="M544.36 127.12H510.52C509.056 127.12 507.87 128.307 507.87 129.77V150.23C507.87 151.694 509.056 152.88 510.52 152.88H544.36C545.824 152.88 547.01 151.694 547.01 150.23V129.77C547.01 128.307 545.824 127.12 544.36 127.12Z" fill="#D8D8D8"/>
<path d="M509.1 127.93L527.44 140" stroke="#969696" stroke-width="0.82" stroke-linecap="round" stroke-linejoin="round"/>
<path d="M547.01 127.12L527.44 140" stroke="#969696" stroke-width="0.82" stroke-linecap="round" stroke-linejoin="round"/>
<path d="M547.01 132.72C550.103 132.72 552.61 130.213 552.61 127.12C552.61 124.027 550.103 121.52 547.01 121.52C543.917 121.52 541.41 124.027 541.41 127.12C541.41 130.213 543.917 132.72 547.01 132.72Z" fill="#FFD644"/>
<path d="M547.989 128.98H547.326V124.585L545.996 125.073V124.475L547.885 123.765H547.989V128.98Z" fill="white"/>
<path d="M743.43 142.83H597.43C596.751 142.83 596.2 143.381 596.2 144.06V144.82C596.2 145.499 596.751 146.05 597.43 146.05H743.43C744.109 146.05 744.66 145.499 744.66 144.82V144.06C744.66 143.381 744.109 142.83 743.43 142.83Z" fill="#D8D8D8"/>
<path d="M659.1 78.8899H650.23C648.816 78.8899 647.67 80.036 647.67 81.4499V140.27C647.67 141.684 648.816 142.83 650.23 142.83H659.1C660.514 142.83 661.66 141.684 661.66 140.27V81.4499C661.66 80.036 660.514 78.8899 659.1 78.8899Z" fill="#969696"/>
<path d="M666.53 93.8799H663.79C662.614 93.8799 661.66 94.8335 661.66 96.0099V140.7C661.66 141.876 662.614 142.83 663.79 142.83H666.53C667.706 142.83 668.66 141.876 668.66 140.7V96.0099C668.66 94.8335 667.706 93.8799 666.53 93.8799Z" fill="#D8D8D8"/>
<path d="M673.6 93.8799H670.72C669.582 93.8799 668.66 94.8022 668.66 95.9399V140.77C668.66 141.908 669.582 142.83 670.72 142.83H673.6C674.738 142.83 675.66 141.908 675.66 140.77V95.9399C675.66 94.8022 674.738 93.8799 673.6 93.8799Z" fill="#969696"/>
<path d="M678.676 97.3833L676.313 98.4681C675.209 98.975 674.725 100.281 675.232 101.385L693.819 141.872C694.326 142.977 695.632 143.461 696.737 142.954L699.099 141.869C700.204 141.362 700.688 140.056 700.181 138.952L681.593 98.4647C681.086 97.3605 679.78 96.8763 678.676 97.3833Z" fill="#D8D8D8"/>
<path d="M654.66 126.65C656.819 126.65 658.57 124.9 658.57 122.74C658.57 120.581 656.819 118.83 654.66 118.83C652.501 118.83 650.75 120.581 650.75 122.74C650.75 124.9 652.501 126.65 654.66 126.65Z" fill="#D8D8D8"/>
<path d="M658.2 128.99H651.12C650.601 128.99 650.18 129.411 650.18 129.93C650.18 130.449 650.601 130.87 651.12 130.87H658.2C658.719 130.87 659.14 130.449 659.14 129.93C659.14 129.411 658.719 128.99 658.2 128.99Z" fill="#D8D8D8"/>
<path d="M658.2 133.8H651.12C650.601 133.8 650.18 134.221 650.18 134.74C650.18 135.259 650.601 135.68 651.12 135.68H658.2C658.719 135.68 659.14 135.259 659.14 134.74C659.14 134.221 658.719 133.8 658.2 133.8Z" fill="#D8D8D8"/>
<path d="M586.56 230.24H579.48C578.961 230.24 578.54 230.661 578.54 231.18C578.54 231.699 578.961 232.12 579.48 232.12H586.56C587.079 232.12 587.5 231.699 587.5 231.18C587.5 230.661 587.079 230.24 586.56 230.24Z" fill="#969696"/>
<path d="M586.56 234.76H579.48C578.961 234.76 578.54 235.181 578.54 235.7C578.54 236.219 578.961 236.64 579.48 236.64H586.56C587.079 236.64 587.5 236.219 587.5 235.7C587.5 235.181 587.079 234.76 586.56 234.76Z" fill="#969696"/>
<path d="M604.92 242.49H579.07C578.551 242.49 578.13 242.911 578.13 243.43C578.13 243.949 578.551 244.37 579.07 244.37H604.92C605.439 244.37 605.86 243.949 605.86 243.43C605.86 242.911 605.439 242.49 604.92 242.49Z" fill="#969696"/>
<path d="M604.92 246.93H579.07C578.551 246.93 578.13 247.351 578.13 247.87C578.13 248.389 578.551 248.81 579.07 248.81H604.92C605.439 248.81 605.86 248.389 605.86 247.87C605.86 247.351 605.439 246.93 604.92 246.93Z" fill="#969696"/>
<path d="M604.92 251.37H579.07C578.551 251.37 578.13 251.791 578.13 252.31C578.13 252.829 578.551 253.25 579.07 253.25H604.92C605.439 253.25 605.86 252.829 605.86 252.31C605.86 251.791 605.439 251.37 604.92 251.37Z" fill="#969696"/>
<path d="M665.89 101.27C665.89 100.867 665.563 100.54 665.16 100.54C664.757 100.54 664.43 100.867 664.43 101.27V135.43C664.43 135.833 664.757 136.16 665.16 136.16C665.563 136.16 665.89 135.833 665.89 135.43V101.27Z" fill="#969696"/>
<path d="M635.18 144.44H628.92C627.545 144.44 626.43 145.555 626.43 146.93C626.43 148.305 627.545 149.42 628.92 149.42H635.18C636.555 149.42 637.67 148.305 637.67 146.93C637.67 145.555 636.555 144.44 635.18 144.44Z" fill="#D8D8D8"/>
<path d="M711.94 144.44H705.68C704.305 144.44 703.19 145.555 703.19 146.93C703.19 148.305 704.305 149.42 705.68 149.42H711.94C713.315 149.42 714.43 148.305 714.43 146.93C714.43 145.555 713.315 144.44 711.94 144.44Z" fill="#D8D8D8"/>
<path d="M475.65 149.31H439.14C432.513 149.31 427.14 154.683 427.14 161.31V179.12C427.14 185.747 432.513 191.12 439.14 191.12H475.65C482.277 191.12 487.65 185.747 487.65 179.12V161.31C487.65 154.683 482.277 149.31 475.65 149.31Z" fill="#D8D8D8"/>
<path d="M448.76 156.04H439.66V184.39H448.76V156.04Z" fill="#ED3E2E"/>
<path d="M461.95 174.9H452.85V184.4H461.95V174.9Z" fill="#ED3E2E"/>
<path d="M475.13 166.9H466.03V184.39H475.13V166.9Z" fill="#ED3E2E"/>
<path d="M184.79 79.8799C179.761 79.8786 174.781 80.868 170.134 82.7917C165.487 84.7153 161.265 87.5355 157.708 91.0912C154.152 94.6469 151.33 98.8684 149.406 103.515C147.481 108.161 146.49 113.141 146.49 118.17H223.09C223.09 113.141 222.099 108.161 220.174 103.515C218.249 98.8684 215.428 94.6469 211.872 91.0912C208.315 87.5355 204.093 84.7153 199.446 82.7917C194.799 80.868 189.819 79.8786 184.79 79.8799Z" fill="#7CC64A"/>
<path d="M185 67L185 0" stroke="black" stroke-width="2" stroke-linecap="round" stroke-linejoin="round"/>
<path d="M485.19 501.68C485.19 504.05 483.8 519 486.57 520.38C489.34 521.76 519.79 522.6 521.17 521.21C522.55 519.82 523.38 516.92 522.17 516.09C520.96 515.26 509.17 512.91 507.57 511.8C505.97 510.69 503.76 504.8 504.57 501.68" fill="#1F161E"/>
<path d="M394.15 306.25L411.29 300.1C410.55 268.83 403.24 198.96 392.86 188.57C390.42 186.14 342.16 181.9 333.55 181.9C282.17 181.9 266.93 187.76 263.06 191.64C251.06 203.64 247.32 259.24 247.32 278.71C247.32 298.18 302.32 308.28 302.32 308.28L366.79 312.71C366.79 312.71 380.93 314.17 393.16 314.89C393.43 311.14 394.15 306.25 394.15 306.25Z" fill="#2E5BFF"/>
<path d="M445.22 324.38C449.91 322.99 496.55 315.38 506.71 325.38C516.87 335.38 548.85 478.75 548.85 482.05H523.1L488.34 407.24" fill="#273237"/>
<path d="M275.41 311.63C274.24 317.48 267.21 323.76 267.21 355.63C267.21 399.7 303.31 400.63 316.27 400.63C356.65 400.63 421.98 388.63 426.39 386.43C429.32 391.33 483.25 501.43 483.5 503.89H508.33C508.33 503.89 492.94 339.17 465.17 320.49C456.15 314.49 296.12 308.07 275.41 311.63Z" fill="#1F161E"/>
<path d="M420.81 279.41C414.29 279.41 408.91 280.96 394.15 283.86L393.38 312.1C407.38 306.46 410.63 298.62 414.69 298.62C424.83 298.62 430.13 303.85 436.12 303.85C440.3 303.85 447.82 300.57 447.82 296.11C447.82 286.77 428.89 279.41 420.81 279.41Z" fill="#F8CDBA"/>
<path d="M524.56 480.07C524.56 482.45 523.17 497.39 525.94 498.78C528.71 500.17 559.16 500.99 560.54 499.61C561.92 498.23 562.75 495.32 561.54 494.49C560.33 493.66 548.54 491.3 546.94 490.19C545.34 489.08 543.13 483.19 543.94 480.07" fill="#1F161E"/>
<path d="M342.64 188.55C342.64 192.32 320.75 192.43 320.75 188.55V157.89H342.64V188.55Z" fill="#F8CDBA"/>
<path d="M335.51 168C333.51 168 320.75 173.64 320.75 176.79V160.15C323.93 160.15 335.51 168 335.51 168Z" fill="#1F161E"/>
<path d="M339.74 169.3C354.376 169.3 366.24 157.436 366.24 142.8C366.24 128.165 354.376 116.3 339.74 116.3C325.104 116.3 313.24 128.165 313.24 142.8C313.24 157.436 325.104 169.3 339.74 169.3Z" fill="#F8CDBA"/>
<path d="M367.09 122C363.81 127.21 356.95 129.6 349.52 129.6C343.19 129.6 333.97 127.76 327.41 131.5C323.86 133.5 319.79 138.05 318.97 147.16C318.97 148.72 317.2 154.77 317.2 156.72C317.2 158.05 315.7 158.92 313.2 158.92C311.91 158.92 309.36 156.83 309.36 153.64C309.36 149.95 310.83 148.64 310.83 145.51C310.83 142.38 307 139.37 307 130.67C307 118.14 315 110.42 320.66 110.42C325.82 110.42 327.44 111.62 328.09 112.13C328.09 100.74 343.09 95.54 349.04 95.54C355.84 95.54 359.04 98.3301 359.04 101.88C359.04 107.54 356.34 112.35 354.97 113.43C358.071 110.64 362.099 109.104 366.27 109.12C374.06 109.12 376.68 114.24 376.68 117.74C376.68 125.35 367.55 132.4 364.15 132.4C363.295 130.59 362.291 128.854 361.15 127.21" fill="#1F161E"/>
<path d="M319.79 151.95C322.91 151.95 325.44 149.42 325.44 146.3C325.44 143.18 322.91 140.65 319.79 140.65C316.67 140.65 314.14 143.18 314.14 146.3C314.14 149.42 316.67 151.95 319.79 151.95Z" fill="#F8CDBA"/>
<path d="M366.5 147.66C368.919 147.66 370.88 146.639 370.88 145.38C370.88 144.121 368.919 143.1 366.5 143.1C364.081 143.1 362.12 144.121 362.12 145.38C362.12 146.639 364.081 147.66 366.5 147.66Z" fill="#FA9E9F"/>
<path d="M338.95 147.66C341.369 147.66 343.33 146.639 343.33 145.38C343.33 144.121 341.369 143.1 338.95 143.1C336.531 143.1 334.57 144.121 334.57 145.38C334.57 146.639 336.531 147.66 338.95 147.66Z" fill="#FA9E9F"/>
<path d="M355.8 140.65C356.62 141.82 360.8 146.73 356.39 148.72" stroke="#1F161E" stroke-miterlimit="10" stroke-linecap="round"/>
<path d="M347.56 154.45C346.24 154.45 344.21 152.81 343.14 151.34" stroke="#1F161E" stroke-miterlimit="10" stroke-linecap="round"/>
<path d="M382.5 225.62C384.5 229.87 394.15 270.87 394.15 283.86" stroke="#1F161E" stroke-miterlimit="10" stroke-linecap="round"/>
<path d="M247.32 275.41C247.32 321.5 247.75 334.87 266.25 334.87C308.89 334.87 373.35 299.87 384.84 299.87C394.99 299.87 400.29 305.11 406.28 305.11C410.45 305.11 417.97 301.82 417.97 297.37C417.97 288.02 399.04 280.66 390.97 280.66C372.8 280.66 300.29 298.18 298.52 298.18C296.75 298.18 293.77 297.41 293.77 294.43C293.77 289.02 297.31 276.52 297.77 275.43L247.32 275.41Z" fill="#F8CDBA"/>
<path d="M308.42 235.21C307.2 238.72 297.69 274.99 296.59 279.41" stroke="#1F161E" stroke-miterlimit="10" stroke-linecap="round"/>
<path d="M669.458 515.747C670.177 518.481 672.977 520.116 675.712 519.397C678.446 518.678 680.081 515.878 679.362 513.143L628.163 318.401C627.444 315.666 624.644 314.032 621.909 314.751C619.175 315.47 617.541 318.27 618.259 321.004L669.458 515.747Z" fill="#969696"/>
<path d="M617.751 321.013C618.47 318.278 616.836 315.478 614.101 314.759C611.366 314.04 608.566 315.674 607.847 318.409L556.649 513.151C555.93 515.886 557.564 518.686 560.299 519.405C563.033 520.124 565.833 518.49 566.552 515.755L617.751 321.013Z" fill="#969696"/>
<path d="M547.102 321.011C547.821 318.277 546.187 315.477 543.453 314.758C540.718 314.039 537.918 315.673 537.199 318.408L486 513.15C485.281 515.885 486.915 518.685 489.65 519.404C492.385 520.123 495.185 518.488 495.904 515.754L547.102 321.011Z" fill="#D8D8D8"/>
<path d="M597.919 512.152C598.626 514.895 601.423 516.546 604.166 515.839C606.909 515.132 608.559 512.335 607.852 509.592L557.512 314.273C556.805 311.53 554.009 309.88 551.266 310.587C548.523 311.294 546.873 314.09 547.579 316.833L597.919 512.152Z" fill="#D8D8D8"/>
<path d="M258.681 321.017C259.4 318.282 257.766 315.482 255.031 314.763C252.297 314.044 249.497 315.678 248.778 318.413L197.579 513.155C196.86 515.89 198.494 518.69 201.229 519.409C203.964 520.128 206.764 518.494 207.483 515.759L258.681 321.017Z" fill="#969696"/>
<path d="M309.519 515.759C310.238 518.494 313.038 520.128 315.773 519.409C318.507 518.69 320.141 515.89 319.422 513.156L268.224 318.413C267.505 315.679 264.705 314.045 261.97 314.764C259.235 315.483 257.601 318.282 258.32 321.017L309.519 515.759Z" fill="#969696"/>
<path d="M649.27 305.14H154.1C151.598 305.14 149.57 307.168 149.57 309.67V315.76C149.57 318.262 151.598 320.29 154.1 320.29H649.27C651.772 320.29 653.8 318.262 653.8 315.76V309.67C653.8 307.168 651.772 305.14 649.27 305.14Z" fill="#D8D8D8"/>
<path d="M185.506 321.02C186.225 318.285 184.591 315.485 181.857 314.766C179.122 314.047 176.322 315.681 175.603 318.416L124.404 513.158C123.685 515.893 125.319 518.693 128.054 519.412C130.789 520.131 133.589 518.497 134.308 515.762L185.506 321.02Z" fill="#D8D8D8"/>
<path d="M236.344 515.76C237.063 518.494 239.862 520.128 242.597 519.409C245.332 518.691 246.966 515.891 246.247 513.156L195.048 318.414C194.329 315.679 191.53 314.045 188.795 314.764C186.06 315.483 184.426 318.283 185.145 321.017L236.344 515.76Z" fill="#D8D8D8"/>
<path d="M520.28 305.14H427.77L444.53 247.5C444.949 246.109 445.806 244.891 446.974 244.028C448.142 243.165 449.558 242.702 451.01 242.71H529.51C530.541 242.693 531.562 242.918 532.491 243.366C533.42 243.813 534.231 244.472 534.861 245.289C535.49 246.106 535.92 247.058 536.116 248.071C536.312 249.083 536.269 250.127 535.99 251.12L520.28 305.14Z" fill="black"/>
<path d="M485.38 279.58C488.506 279.58 491.04 277.046 491.04 273.92C491.04 270.794 488.506 268.26 485.38 268.26C482.254 268.26 479.72 270.794 479.72 273.92C479.72 277.046 482.254 279.58 485.38 279.58Z" fill="white"/>
<path d="M438.76 301.09H373.85V305.14H438.76V301.09Z" fill="black"/>
</g>
<defs>
<clipPath id="clip0">
<rect width="745" height="522" fill="white"/>
</clipPath>
</defs>
</svg>
