<svg width="240" height="30" viewBox="0 0 240 30" fill="none" xmlns="http://www.w3.org/2000/svg">
<path d="M22.5 18.3H6.54002V14.34H27.12C26.58 12.66 24.84 11.1 21.78 11.1H6.84002C3.42002 11.1 1.44002 12.36 1.44002 15.12V18.06C1.44002 20.46 3.48002 21.84 6.48002 21.84H22.62V26.04H0.900024C1.44002 28.32 3.18002 29.52 6.30002 29.52H22.56C25.98 29.52 27.66 28.2 27.66 25.38V22.44C27.66 19.86 25.68 18.48 22.5 18.3Z" fill="#333333"/>
<path d="M55.08 11.16H35.4V29.58H40.98V22.5H55.5C59.52 22.5 61.74 21.12 61.74 17.88V15.84C61.68 12.84 59.16 11.16 55.08 11.16ZM56.88 17.04C56.88 18.36 56.64 19.08 54.48 19.08H40.98L41.04 14.28H54.24C56.64 14.28 56.94 15 56.94 16.26V17.04H56.88Z" fill="#333333"/>
<path d="M77.94 10.38L74.58 14.52L80.28 22.38H68.4L65.46 25.5H82.62L85.56 29.58H92.16L77.94 10.38Z" fill="#333333"/>
<path d="M102.84 14.34H123.72C123.18 12.18 121.08 11.1 118.08 11.1H102.48C99.78 11.1 97.2 12.18 97.2 15.12V25.44C97.2 28.38 99.78 29.46 102.48 29.46H118.26C121.86 29.46 123.12 28.44 123.72 25.98H102.84V14.34Z" fill="#333333"/>
<path d="M136.98 26.1V20.46H148.2V17.34H131.34V29.58H156.24V26.1H136.98Z" fill="#333333"/>
<path d="M157.08 11.16H131.94V14.4H157.08V11.16Z" fill="#333333"/>
<path d="M172.56 11.16H163.8L174.12 18.72C175.62 17.7 177.36 16.62 178.92 15.72L172.56 11.16ZM185.28 20.58C183.78 21.6 182.28 22.74 180.84 23.82L188.64 29.52H197.46L185.28 20.58Z" fill="#333333"/>
<path d="M239.4 0.419983C191.4 3.17998 169.2 23.7 164.22 28.56L163.2 29.52H172.08C196.08 5.45998 230.58 1.19998 239.4 0.419983Z" fill="#333333"/>
</svg>
