<svg width="233" height="30" viewBox="0 0 233 30" fill="none" xmlns="http://www.w3.org/2000/svg">
<g clip-path="url(#clip0)">
<path d="M198.397 12.0692V30.3292H204.253V18.1717H225.566V30.3292H231.417V12.1009L198.397 12.0692Z" fill="#333333"/>
<path d="M203.601 6.16256H226.117C229.245 5.5409 231.571 2.7809 232.227 0.110901H197.492C198.142 2.78173 200.502 5.5409 203.601 6.16256Z" fill="#333333"/>
<path d="M180.663 30.3409C183.615 29.0892 185.203 26.9242 185.812 24.3909H159.548L159.564 0.125854L153.677 0.142512V30.3409H180.663Z" fill="#333333"/>
<path d="M109.895 6.08087H130.69C133.825 5.17004 136.458 2.78172 137.099 0.134216H104.066V17.98H131.103V24.2425L109.895 24.2592C106.572 25.1859 103.753 27.4175 102.348 30.365L104.066 30.3334H136.912V12.0467H109.895V6.08087Z" fill="#333333"/>
<path d="M58.5592 6.13838H81.0683C84.2 5.51421 86.5275 2.75673 87.18 0.0842285H52.4475C53.0958 2.75673 55.4575 5.51421 58.5592 6.13838Z" fill="#333333"/>
<path d="M58.5592 18.0734H81.0683C84.2 17.4559 86.5275 14.6959 87.18 12.0217H52.4475C53.0958 14.6967 55.4575 17.4559 58.5592 18.0734Z" fill="#333333"/>
<path d="M58.5592 30.3375H81.0683C84.2 29.715 86.5275 26.9559 87.18 24.285H52.4475C53.0958 26.9567 55.4575 29.715 58.5592 30.3375Z" fill="#333333"/>
<path d="M0 0.157583C0.676667 2.79675 2.96167 5.49425 6.09667 6.17008H15.5717L16.055 6.36092V30.2701H21.9717V6.36092L22.5092 6.17008H31.9925C35.1625 5.35341 37.3983 2.79675 38.0633 0.157583V0.0992432H0V0.157583Z" fill="#333333"/>
</g>
<defs>
<clipPath id="clip0">
<rect width="232.5" height="30" fill="white"/>
</clipPath>
</defs>
</svg>
