<svg width="72" height="30" viewBox="0 0 72 30" fill="none" xmlns="http://www.w3.org/2000/svg">
<g clip-path="url(#clip0)">
<path d="M67.664 29.1123L57.0971 0.0191978L57.0898 0H56.8813L54.7053 5.97855L50.7439 16.8625L50.7346 16.8539C49.3616 15.6425 47.4246 14.8851 44.9851 14.6031L44.241 14.5263L44.9791 14.4317C49.0021 13.7088 51.7064 11.168 51.7064 8.1069C51.7064 3.90913 47.7582 0.979107 42.1027 0.979107H30.3356V1.19161H33.7549V22.8821L25.4507 0.0191978L25.4434 0H25.2349L23.0589 5.97855L14.666 29.0374L14.6144 29.0434C14.4709 29.0611 14.3291 29.0752 14.1887 29.0858C13.9775 29.1023 13.7677 29.1123 13.5572 29.1123H5.0769L21.1967 1.1916L21.3165 0.981749H1.60139V9.61891H1.81058C1.84765 5.41188 4.29772 1.19161 9.71092 1.19161H16.2416L0 29.3214H21.8805V21.0464H21.6713C21.6429 24.7132 19.5642 28.196 15.044 28.9825L14.9004 29.007L18.3428 19.545H27.9862L31.461 29.1123H28.0332V29.3214H41.4871V29.1123H38.0447V14.6806H42.0167C46.0589 14.6806 48.3772 16.4865 48.3772 19.6337V22.1937C48.3772 22.4757 48.3964 22.8881 48.4176 23.233V23.2456L46.2826 29.1109H43.4936V29.3201H49.2669V29.1109H46.5077L48.452 23.7699C48.456 23.8215 48.458 23.8526 48.458 23.8526L48.5116 24.3339L48.5632 24.6523C48.8876 26.6218 49.641 28.0696 50.8015 28.9554L50.9683 29.0765C51.8501 29.6895 52.9457 30 54.2267 30C55.9234 30 57.0547 29.577 57.9888 28.5813L57.8664 28.4661C57.0058 29.2605 56.2835 29.5823 55.3785 29.5823C53.8367 29.5823 53.0298 27.7121 53.0298 25.8678V22.281C53.038 21.391 52.8986 20.5059 52.6173 19.6615L52.5789 19.5503V19.5463H59.6326L63.1074 29.1136H59.6796V29.3228H71.3222V29.1136L67.664 29.1123ZM18.4196 19.3358L23.1701 6.2844L27.9101 19.3358H18.4196ZM38.0466 14.4707V1.19161H41.0786C45.1288 1.19161 47.267 3.59931 47.267 8.15191C47.267 12.9938 46.0397 14.4707 42.0167 14.4707H38.0466ZM52.4968 19.3358L52.4763 19.2842C52.1629 18.5207 51.7066 17.8242 51.1318 17.2319L50.9332 17.0333L50.912 17.0135L54.8139 6.2844L59.5538 19.3358H52.4968Z" fill="#333333"/>
</g>
<defs>
<clipPath id="clip0">
<rect width="71.3222" height="30" fill="white"/>
</clipPath>
</defs>
</svg>
