<svg width="72" height="72" viewBox="0 0 72 72" fill="none" xmlns="http://www.w3.org/2000/svg">
<path d="M53.136 11.448C49.248 9.21597 45.576 8.85597 42.84 10.44C42.696 10.512 42.552 10.656 42.408 10.728L15.12 26.928L14.976 27C14.904 27 14.904 27.072 14.832 27.072L14.544 27.216C12.024 28.872 10.656 32.04 10.656 36.288C10.656 40.824 12.24 45.792 14.832 50.256H8.71201V63.36H21.816V58.608C22.68 59.328 23.688 59.976 24.696 60.552C26.64 61.776 28.872 62.424 31.176 62.496C32.544 62.496 33.84 62.208 34.992 61.488L63.072 44.856V44.784C65.736 43.128 67.176 39.888 67.176 35.568C67.176 26.784 60.912 15.912 53.136 11.448ZM20.736 57.672V62.28H9.79201V51.336H20.736V57.672ZM32.112 47.232V52.992H26.352V47.232H32.112ZM28.8 30.528V27.792H36.936V35.928H33.552C32.184 33.912 30.6 32.112 28.8 30.528ZM32.328 35.928H28.8V31.968C30.096 33.192 31.248 34.488 32.328 35.928ZM19.008 41.616V36.936H23.688V41.616H19.008ZM37.8 58.608C38.808 56.664 39.384 54.432 39.312 52.2C39.312 47.232 37.368 41.688 34.344 36.936H38.016V26.712H27.72V29.664C26.928 29.088 26.136 28.512 25.272 28.008C23.328 26.784 21.024 26.136 18.72 26.064L39.96 13.464C38.952 15.408 38.448 17.568 38.52 19.8C38.52 25.488 41.04 31.896 44.856 37.008H42.84V41.688H47.52V40.104C49.032 41.616 50.688 42.984 52.488 44.064C54.432 45.288 56.664 45.936 58.968 46.008H59.112L37.8 58.608ZM66.096 35.64C66.096 39.672 64.728 42.624 62.352 43.992C59.976 45.36 56.592 45.072 53.136 42.984C51.048 41.76 49.176 40.248 47.592 38.448V36.936H46.296C42.336 31.896 39.672 25.416 39.672 19.728C39.672 15.984 40.896 13.176 42.984 11.664L43.848 11.16C44.712 10.728 45.72 10.512 46.728 10.512C48.816 10.584 50.832 11.232 52.632 12.312C60.048 16.632 66.096 27.144 66.096 35.64Z" fill="black"/>
<path d="M31.032 48.312H27.432V51.912H31.032V48.312Z" fill="black"/>
<path d="M7.05598 44.5681H2.37598V49.2481H7.05598V44.5681Z" fill="black"/>
<path d="M45 26.7839H50.76V21.0239H45V26.7839ZM46.08 22.1039H49.68V25.7039H46.08V22.1039Z" fill="black"/>
<path d="M69.12 18H66.816V20.304H69.12V18Z" fill="black"/>
<path d="M58.176 27.5759H55.872V29.8799H58.176V27.5759Z" fill="black"/>
<path d="M64.296 30.4561H61.992V32.7601H64.296V30.4561Z" fill="black"/>
<path d="M55.8 34.1279H53.496V36.4319H55.8V34.1279Z" fill="black"/>
</svg>
