<svg width="72" height="72" viewBox="0 0 72 72" fill="none" xmlns="http://www.w3.org/2000/svg">
<path d="M70.92 41.1118L52.992 30.7438L57.312 28.2238C57.456 28.1518 57.6 27.9358 57.6 27.7198V16.7758C57.6 16.5598 57.528 16.4158 57.312 16.3438C57.24 16.3438 57.24 16.3438 57.168 16.3438L47.736 10.7998C47.592 10.7278 47.376 10.7278 47.16 10.7998L37.656 16.3438C37.584 16.3438 37.584 16.4158 37.512 16.4878L37.44 16.5598C37.44 16.6318 37.44 16.6318 37.44 16.7038C37.44 16.7758 37.44 16.7758 37.44 16.8478V21.8158L35.856 20.8798L27.648 25.6318V22.3198C27.648 22.1038 27.576 21.9598 27.36 21.8878C27.288 21.8878 27.288 21.8878 27.216 21.8878L17.712 16.4158C17.568 16.3438 17.352 16.3438 17.136 16.4158L7.632 21.8878C7.56 21.8878 7.56 21.9598 7.488 22.0318C7.488 22.0318 7.416 22.0318 7.416 22.1038C7.416 22.1758 7.416 22.1758 7.344 22.2478V22.3198V33.2638C7.344 33.4798 7.416 33.6239 7.632 33.7679L10.584 35.4958L1.08 41.1118L19.44 51.6959V52.9918C19.44 53.2078 19.512 53.3519 19.728 53.4959L29.232 58.9678C29.304 59.0398 29.376 59.0398 29.52 59.0398V59.0398C29.592 59.0398 29.736 59.0398 29.808 58.9678L30.888 58.3198L36.144 61.3438L47.448 54.7198L52.344 57.5998L69.624 47.5198L64.728 44.7118L70.92 41.1118ZM39.096 16.7758L47.52 11.8798L56.016 16.7758L47.52 21.6718L42.984 19.0078C42.984 19.0798 39.096 16.7758 39.096 16.7758ZM38.52 22.3918V17.7838L42.48 20.0158L47.016 22.6078V27.2158V32.2558L38.52 27.4318V23.6158V22.3918ZM9.144 22.3198L17.568 17.4238L25.992 22.3198L17.568 27.2158L13.032 24.5518L9.144 22.3198ZM8.64 23.2558L13.608 26.1358L17.136 28.1518V33.0479V37.8718L12.96 35.4958L11.88 34.8479L8.64 32.9758V23.2558ZM20.448 52.2718V51.0478V42.9838L22.176 43.9198L28.944 47.8078V55.8718V57.4558L20.448 52.5598V52.2718V52.2718ZM21.024 41.9758L29.448 37.0798L37.872 41.9758L29.448 46.8718L22.392 42.8398L21.024 41.9758ZM39.528 46.0798L52.2 38.7358L62.64 44.7118L47.52 53.4959L39.6 48.9598L39.528 46.0798ZM36.144 60.0478L31.968 57.6718L39.312 53.4238C39.456 53.3518 39.6 53.1358 39.6 52.9198V50.1118L46.44 54.0718L36.144 60.0478ZM67.536 47.5198L52.416 56.3038L48.6 54.0718L63.72 45.2878L67.536 47.5198ZM52.272 37.4398L39.528 44.8558V41.9758C39.528 41.7598 39.456 41.6158 39.24 41.4718C39.168 41.4718 39.168 41.4718 39.096 41.4718L29.592 35.9998C29.448 35.9278 29.232 35.9278 29.016 35.9998L19.512 41.4718C19.44 41.4718 19.44 41.5438 19.44 41.5438L19.368 41.6158C19.368 41.6878 19.296 41.6878 19.296 41.7598C19.296 41.8318 19.296 41.8318 19.296 41.9038V50.3998L3.24 41.0398L11.808 36.0718L17.208 39.3118C17.28 39.3838 17.352 39.3838 17.496 39.3838H17.568C17.64 39.3838 17.784 39.3838 17.856 39.3118L27.36 33.7679C27.504 33.6959 27.648 33.4798 27.648 33.2638V26.8558L35.856 22.1038L37.368 22.9678V27.7198C37.368 27.9358 37.44 28.0798 37.656 28.2238L47.16 33.6958C47.232 33.7678 47.304 33.7679 47.448 33.7679H47.52C47.592 33.7679 47.736 33.7678 47.808 33.6958L51.912 31.3198L68.76 41.0398L63.648 43.9918L52.272 37.4398Z" fill="black"/>
</svg>
