<svg width="72" height="72" viewBox="0 0 72 72" fill="none" xmlns="http://www.w3.org/2000/svg">
<path d="M66.6 27.5761C66.6 26.9281 66.456 26.3521 66.168 25.7761C65.52 24.4801 64.368 23.2561 62.64 22.2481C60.624 21.0961 57.888 20.1601 54.576 19.5121C53.424 17.5681 51.84 15.9841 49.824 14.8321C48.096 13.8241 46.152 13.1761 43.992 12.8161C39.24 12.0961 34.056 13.0321 29.232 15.5521C22.896 14.7601 17.496 15.4801 14.04 17.4961C10.584 19.5121 9.28802 22.7521 10.512 26.4241C7.34402 28.5841 5.61602 30.8161 5.54402 33.0481C5.54402 33.1201 5.47202 33.1921 5.47202 33.2641V44.0641C5.47202 44.7841 5.61602 45.4321 5.90402 46.0801C6.55202 47.3761 7.70402 48.6001 9.50402 49.6081C11.52 50.7601 14.256 51.6961 17.568 52.3441C18.72 54.2881 20.304 55.8721 22.392 57.0241C24.12 58.0321 26.064 58.6801 28.224 59.0401C29.232 59.1841 30.312 59.2561 31.392 59.2561C34.344 59.2561 37.368 58.6801 40.32 57.5281C40.392 57.4561 40.536 57.4561 40.608 57.3841C40.968 57.2401 41.328 57.0961 41.76 56.8801C42.048 56.7361 42.264 56.5921 42.552 56.5201C42.696 56.4481 42.84 56.3761 43.056 56.3041C43.848 56.3761 44.64 56.4481 45.432 56.5201C46.296 56.5921 47.088 56.5921 47.88 56.5921C48.6 56.5921 49.248 56.5921 49.896 56.5201C49.968 56.5201 50.04 56.5201 50.112 56.5201C50.616 56.5201 51.048 56.4481 51.552 56.3761C51.624 56.3761 51.696 56.3761 51.768 56.3761C52.2 56.3041 52.56 56.2321 52.992 56.1601C53.064 56.1601 53.064 56.1601 53.136 56.1601C55.152 55.8001 56.88 55.2241 58.32 54.3601C60.912 52.8481 62.28 50.6881 62.352 48.0961V45.0721C65.304 42.9841 66.888 40.6801 66.888 38.5201V27.7201C66.672 27.7201 66.672 27.6481 66.6 27.5761ZM55.8 54.2881V44.7121C56.592 44.4241 57.384 44.0641 58.104 43.7041C58.968 43.2001 59.76 42.5521 60.336 41.9041C60.552 41.6881 60.696 41.4721 60.912 41.1841C60.912 41.1121 60.984 41.1121 60.984 41.0401V45.2881V45.6481V45.8641V48.2401C60.984 50.4001 59.76 52.2721 57.528 53.5681C57.024 53.7841 56.448 54.0721 55.8 54.2881ZM27.504 16.5601C27.432 16.6321 27.36 16.6321 27.288 16.7041C26.784 16.9921 26.28 17.3521 25.776 17.7121C25.272 18.0721 24.768 18.4321 24.336 18.7921C24.264 18.8641 24.12 18.9361 24.048 19.0081C23.616 19.3681 23.184 19.8001 22.752 20.1601C22.68 20.2321 22.608 20.3041 22.536 20.3761C22.176 20.7361 21.744 21.1681 21.384 21.5281C21.312 21.6001 21.312 21.6001 21.24 21.6721C20.808 21.8161 20.376 21.9601 20.016 22.0321C19.944 22.0321 19.944 22.0321 19.872 22.1041C19.368 22.2481 18.936 22.4641 18.432 22.6081C18.288 22.6801 18.144 22.6801 18 22.7521C17.64 22.8961 17.352 22.9681 16.992 23.1121C16.848 23.1841 16.632 23.2561 16.488 23.3281C16.2 23.4721 15.912 23.5441 15.696 23.6881C15.552 23.7601 15.336 23.8321 15.192 23.9041C14.976 24.0481 14.688 24.1201 14.472 24.2641C14.328 24.3361 14.112 24.4081 13.968 24.4801C13.752 24.6241 13.536 24.6961 13.32 24.8401C13.176 24.9121 13.032 24.9841 12.816 25.1281C12.6 25.2721 12.384 25.3441 12.168 25.4881C12.024 25.5601 11.88 25.6321 11.736 25.7761C11.664 25.8481 11.592 25.8481 11.448 25.9201C10.512 22.8241 11.592 20.2321 14.544 18.5041C16.92 17.1361 20.304 16.4161 24.336 16.4161C25.344 16.4161 26.424 16.4161 27.504 16.5601ZM31.104 15.8401C35.28 13.9681 39.744 13.3201 43.776 13.8961C45.792 14.1841 47.592 14.8321 49.176 15.7681C50.76 16.7041 52.056 17.8561 53.064 19.2241H52.992C52.344 19.1521 51.696 19.0081 50.976 18.9361C50.832 18.9361 50.688 18.9361 50.472 18.8641C49.896 18.7921 49.248 18.7201 48.672 18.7201C48.528 18.7201 48.456 18.7201 48.312 18.7201C47.592 18.6481 46.872 18.6481 46.08 18.5761C45.936 18.5761 45.792 18.5761 45.576 18.5761C44.928 18.5761 44.28 18.5761 43.632 18.5761C43.56 18.5761 43.416 18.5761 43.344 18.5761C43.272 18.5761 43.272 18.5761 43.2 18.5761C42.696 18.5761 42.264 18.5761 41.76 18.5761C41.616 18.5761 41.472 18.5761 41.328 18.5761C41.256 18.5761 41.256 18.5761 41.184 18.5041C40.464 18.2161 39.744 18.0001 39.024 17.7841C38.88 17.7121 38.736 17.7121 38.664 17.6401C37.944 17.4241 37.152 17.2081 36.432 16.9921C36.288 16.9201 36.144 16.9201 36 16.8481C35.28 16.6321 34.488 16.4881 33.768 16.2721C33.696 16.2721 33.624 16.2721 33.552 16.2001C32.832 16.0561 32.112 15.9121 31.392 15.7681C31.32 15.9121 31.248 15.9121 31.104 15.8401ZM55.224 20.8081C57.96 21.3841 60.336 22.2481 62.064 23.2561C63.576 24.1201 64.656 25.1281 65.16 26.2801C65.664 27.4321 65.592 28.5121 65.16 29.5201C65.088 29.6641 65.016 29.8081 64.944 29.9521C64.944 29.9521 64.944 30.0241 64.872 30.0241C64.8 30.0961 64.728 30.2401 64.656 30.3121C64.584 30.3841 64.512 30.5281 64.44 30.6001C64.368 30.6721 64.368 30.7441 64.296 30.7441C63.432 31.8961 62.208 32.8321 61.2 33.5521V33.4801C61.2 33.4801 61.2 33.4081 61.128 33.4081C61.056 33.3361 61.056 33.1921 60.984 33.1201C60.912 32.9761 60.84 32.7601 60.696 32.6161C60.624 32.4721 60.552 32.4001 60.48 32.2561C60.408 32.1121 60.264 31.8961 60.192 31.7521C60.12 31.6081 60.048 31.5361 59.976 31.3921C59.832 31.1761 59.76 31.0321 59.616 30.8161C59.544 30.7441 59.472 30.6001 59.4 30.5281C59.256 30.3121 59.112 30.1681 58.968 29.9521C58.896 29.8801 58.824 29.7361 58.752 29.6641C58.536 29.3761 58.32 29.1601 58.104 28.9441L58.032 28.8721C57.744 28.5841 57.528 28.2961 57.24 28.0081C57.168 27.9361 57.096 27.8641 56.952 27.7921C56.808 27.6481 56.592 27.4321 56.448 27.2881C56.448 27.0721 56.448 26.9281 56.448 26.7121C56.448 26.6401 56.448 26.5681 56.448 26.4241C56.448 26.1361 56.448 25.7761 56.448 25.4881C56.448 25.4161 56.448 25.2721 56.448 25.2001C56.448 24.9841 56.376 24.7681 56.376 24.5521C56.376 24.4081 56.376 24.3361 56.304 24.1921C56.304 23.9761 56.232 23.8321 56.232 23.6161C56.232 23.4721 56.16 23.4001 56.16 23.2561C56.088 23.0401 56.088 22.8961 56.016 22.6801C56.016 22.6081 55.944 22.4641 55.944 22.3921C55.872 22.1041 55.8 21.8161 55.656 21.6001V21.5281C55.44 21.3121 55.296 21.0241 55.224 20.8081ZM42.264 45.9361V52.5601V55.5121C41.76 55.8001 41.256 56.0161 40.752 56.2321C40.608 56.3041 40.392 56.3761 40.248 56.4481C39.888 56.5921 39.528 56.7361 39.168 56.8801C38.952 56.9521 38.808 57.0241 38.592 57.0961C38.088 57.2401 37.656 57.3841 37.152 57.5281C36.936 57.6001 36.648 57.6721 36.432 57.6721C36.216 57.7441 35.928 57.8161 35.712 57.8161C35.424 57.8881 35.136 57.9601 34.848 57.9601C34.632 57.9601 34.488 58.0321 34.272 58.0321C33.552 58.1041 32.76 58.1761 32.04 58.2481V48.5281C32.112 48.5281 32.112 48.5281 32.184 48.5281C32.832 48.5281 33.552 48.4561 34.272 48.3841C34.488 48.3841 34.632 48.3121 34.848 48.3121C35.136 48.2401 35.424 48.2401 35.712 48.1681C35.928 48.0961 36.216 48.0961 36.432 48.0241C36.72 47.9521 36.936 47.8801 37.224 47.8801C37.728 47.7361 38.16 47.5921 38.664 47.4481C38.88 47.3761 39.024 47.3041 39.24 47.2321C39.384 47.1601 39.528 47.1601 39.672 47.0881C39.744 47.0881 39.816 47.0161 39.888 47.0161C40.032 46.9441 40.176 46.9441 40.248 46.8721C40.392 46.8001 40.608 46.7281 40.752 46.6561C40.896 46.5841 41.04 46.5121 41.184 46.4401C41.472 46.2961 41.76 46.2241 41.976 46.0801C42.048 46.0081 42.12 45.9361 42.264 45.9361C42.192 45.9361 42.192 45.9361 42.264 45.9361C42.192 45.9361 42.192 45.9361 42.264 45.9361ZM29.232 16.8481C29.304 16.8481 29.304 16.7761 29.376 16.7761C29.448 16.7761 29.52 16.7761 29.592 16.7761C30.168 16.8481 30.744 16.9201 31.32 17.0641C31.464 17.0641 31.608 17.1361 31.752 17.1361C32.4 17.2801 33.048 17.3521 33.696 17.4961C33.768 17.4961 33.912 17.5681 33.984 17.5681C34.56 17.7121 35.136 17.8561 35.712 18.0001C35.856 18.0721 36 18.0721 36.144 18.1441C36.792 18.3601 37.44 18.5041 38.16 18.7201H38.232C37.584 18.7921 36.864 18.7921 36.216 18.8641C36.072 18.8641 35.856 18.8641 35.712 18.9361C35.136 19.0081 34.488 19.0801 33.912 19.1521C33.696 19.1521 33.48 19.2241 33.264 19.2241C32.472 19.2961 31.752 19.4401 30.96 19.5121C30.168 19.6561 29.448 19.8001 28.656 19.8721C28.44 19.9441 28.152 19.9441 27.936 20.0161C27.432 20.0881 26.856 20.2321 26.352 20.3041C26.136 20.3761 25.848 20.4481 25.632 20.4481C25.056 20.5921 24.552 20.7361 24.048 20.8081C23.832 20.8801 23.688 20.8801 23.472 20.9521C23.4 20.9521 23.328 20.9521 23.256 21.0241C23.256 21.0241 23.328 20.9521 23.4 20.9521C23.76 20.5921 24.192 20.2321 24.624 19.8721C24.696 19.8001 24.768 19.7281 24.912 19.6561C25.272 19.3681 25.632 19.0801 26.064 18.7921C26.136 18.7201 26.208 18.6481 26.352 18.5761C26.784 18.2881 27.216 17.9281 27.72 17.6401C27.792 17.5681 27.936 17.4961 28.008 17.4241C28.368 17.2801 28.8 17.0641 29.232 16.8481ZM11.736 26.9281C11.808 26.9281 11.808 26.9281 11.736 26.9281C11.88 26.8561 12.024 26.7841 12.168 26.6401C12.24 26.5681 12.384 26.4961 12.456 26.4961C13.104 26.1361 13.824 25.7761 14.544 25.4161C14.688 25.3441 14.76 25.3441 14.904 25.2721C15.192 25.1281 15.48 24.9841 15.768 24.9121C15.912 24.8401 16.056 24.7681 16.128 24.7681C16.416 24.6241 16.704 24.5521 16.992 24.4081C17.136 24.3361 17.208 24.3361 17.352 24.2641C17.712 24.1201 18.144 23.9761 18.576 23.8321H18.648C19.008 23.6881 19.44 23.5441 19.872 23.4001C19.584 23.7601 19.296 24.1921 19.008 24.6241C18.936 24.7681 18.864 24.8401 18.792 24.9841C18.576 25.3441 18.36 25.6321 18.216 25.9921C18.144 26.1361 18.072 26.2081 18 26.3521C17.784 26.7841 17.496 27.2161 17.352 27.7201C17.136 28.1521 16.92 28.6561 16.776 29.0881C16.704 29.2321 16.704 29.3761 16.632 29.5201C16.488 29.8081 16.416 30.1681 16.344 30.4561C16.272 30.6001 16.272 30.8161 16.2 30.9601C16.128 31.2481 16.056 31.6081 15.984 31.8961C15.984 32.0401 15.912 32.2561 15.912 32.4001C15.912 32.4721 15.912 32.5441 15.84 32.6161C15.84 32.6161 15.84 32.6161 15.768 32.5441C15.696 32.4721 15.624 32.4001 15.552 32.3281C15.336 32.1121 15.192 31.9681 14.976 31.7521C14.904 31.6801 14.832 31.5361 14.688 31.4641C14.544 31.3201 14.4 31.1041 14.256 30.9601C14.184 30.8881 14.112 30.7441 14.04 30.6721C13.896 30.5281 13.752 30.3121 13.608 30.1681C13.536 30.0961 13.464 30.0241 13.392 29.8801C13.248 29.6641 13.032 29.3761 12.888 29.1601C12.888 29.1601 12.888 29.0881 12.816 29.0881C12.672 28.8001 12.456 28.5841 12.312 28.2961C12.24 28.2241 12.24 28.1521 12.168 28.0081C12.096 27.8641 11.952 27.6481 11.88 27.5041C11.808 27.4321 11.808 27.2881 11.736 27.2161C11.88 27.0721 11.808 27.0001 11.736 26.9281C11.736 26.9281 11.808 26.9281 11.736 26.9281ZM23.976 22.1041C24.48 21.9601 24.984 21.8881 25.488 21.7441C25.776 21.6721 26.064 21.6001 26.28 21.5281C26.856 21.3841 27.36 21.3121 27.936 21.1681C28.152 21.0961 28.44 21.0961 28.656 21.0241C29.448 20.8801 30.312 20.7361 31.104 20.5921C31.968 20.4481 32.76 20.3761 33.624 20.2321C33.912 20.1601 34.272 20.1601 34.56 20.1601C35.064 20.0881 35.568 20.0161 36.144 20.0161C36.504 20.0161 36.864 19.9441 37.224 19.9441C37.728 19.8721 38.16 19.8721 38.664 19.8721C39.024 19.8721 39.456 19.8721 39.816 19.8001C40.248 19.8001 40.68 19.7281 41.112 19.7281C41.472 19.8721 41.832 20.0161 42.192 20.1601C42.48 20.3041 42.84 20.3761 43.128 20.5201C43.56 20.6641 43.992 20.8801 44.352 21.0961C44.568 21.2401 44.856 21.3121 45.144 21.4561C45.648 21.6721 46.08 21.8881 46.512 22.1761C46.728 22.2481 46.872 22.3201 47.088 22.4641C47.736 22.8241 48.384 23.1121 48.96 23.4721C49.536 23.8321 50.184 24.1921 50.688 24.5521C50.832 24.6241 50.976 24.7681 51.192 24.9121C51.552 25.2001 51.984 25.4161 52.344 25.7041C52.56 25.8481 52.704 25.9921 52.92 26.1361C53.208 26.3521 53.568 26.6401 53.856 26.8561C54.072 27.0001 54.288 27.2161 54.432 27.3601C54.648 27.5761 54.864 27.7201 55.152 27.9361C55.152 28.1521 55.08 28.3681 55.08 28.5841C55.08 28.8001 55.008 28.9441 55.008 29.1601C54.936 29.4481 54.864 29.7361 54.792 30.0241C54.72 30.1681 54.72 30.3841 54.648 30.5281C54.576 30.8161 54.432 31.1761 54.36 31.4641C54.288 31.6081 54.288 31.7521 54.216 31.8961C54.072 32.3281 53.856 32.8321 53.64 33.2641C53.424 33.7681 53.208 34.2001 52.92 34.7041C52.848 34.8481 52.776 34.9921 52.704 35.1361C52.488 35.4241 52.344 35.7841 52.128 36.0721C51.984 36.2161 51.912 36.4321 51.768 36.5761C51.552 36.8641 51.408 37.1521 51.192 37.3681C51.048 37.5121 50.904 37.7281 50.76 37.8721C50.544 38.0881 50.4 38.3041 50.184 38.5921C49.752 38.7361 49.32 38.8081 48.888 38.9521C48.6 39.0241 48.312 39.0961 48.024 39.1681C47.52 39.3121 47.016 39.3841 46.512 39.5281C46.224 39.6001 45.936 39.6721 45.72 39.7441C45.144 39.8881 44.64 39.9601 44.064 40.1041C43.848 40.1761 43.56 40.1761 43.344 40.2481C42.552 40.3921 41.688 40.5361 40.896 40.6801C40.032 40.8241 39.24 40.8961 38.376 41.0401C38.16 41.0401 37.944 41.1121 37.656 41.1121C37.08 41.1841 36.432 41.2561 35.856 41.3281C35.496 41.3281 35.208 41.4001 34.848 41.4001C34.344 41.4721 33.84 41.4721 33.336 41.5441C32.976 41.5441 32.616 41.5441 32.184 41.6161C31.752 41.6161 31.32 41.6881 30.888 41.6881C30.528 41.5441 30.168 41.4001 29.808 41.2561C29.52 41.1121 29.232 41.0401 28.872 40.8961C28.44 40.7521 28.008 40.5361 27.648 40.3201C27.432 40.1761 27.144 40.1041 26.928 39.9601C26.424 39.7441 25.992 39.5281 25.56 39.2401C25.344 39.1681 25.2 39.0961 24.984 38.9521C24.336 38.5921 23.688 38.3041 23.112 37.9441C22.536 37.5841 21.888 37.2241 21.384 36.8641C21.24 36.7201 21.024 36.6481 20.88 36.5041C20.52 36.2881 20.088 36.0001 19.728 35.7121C19.512 35.5681 19.296 35.4241 19.152 35.2801C18.864 35.0641 18.504 34.8481 18.216 34.5601C18 34.4161 17.784 34.2001 17.568 34.0561C17.352 33.8401 17.136 33.6961 16.92 33.4801C16.92 33.2641 16.992 33.0481 16.992 32.8321C16.992 32.6161 17.064 32.4721 17.064 32.2561C17.136 31.9681 17.208 31.6801 17.28 31.3921C17.352 31.1761 17.352 31.0321 17.424 30.8161C17.496 30.5281 17.64 30.2401 17.712 29.8801C17.784 29.7361 17.784 29.5201 17.856 29.3761C18 28.9441 18.216 28.4401 18.432 28.0081C18.648 27.5041 18.864 27.0721 19.152 26.6401C19.224 26.4961 19.368 26.3521 19.44 26.1361C19.584 25.8481 19.8 25.5601 19.944 25.2721C20.088 25.1281 20.16 24.9121 20.304 24.7681C20.52 24.4801 20.664 24.1921 20.88 23.9761C21.024 23.8321 21.168 23.6161 21.312 23.4721C21.528 23.2561 21.672 23.0401 21.888 22.7521C22.32 22.6081 22.752 22.5361 23.184 22.3921C23.4 22.2481 23.688 22.1761 23.976 22.1041ZM28.728 42.6241C28.8 42.6241 28.872 42.6241 28.944 42.6241C29.52 42.6241 30.168 42.6241 30.744 42.6241C30.816 42.6241 30.816 42.6241 30.888 42.6961C31.608 42.9841 32.328 43.2001 33.048 43.4161C33.192 43.4881 33.336 43.4881 33.408 43.5601C34.128 43.7761 34.92 43.9921 35.64 44.2081C35.784 44.2801 35.928 44.2801 36.072 44.3521C36.792 44.5681 37.584 44.7121 38.304 44.9281C38.376 44.9281 38.448 44.9281 38.52 45.0001C39.24 45.1441 39.96 45.2881 40.68 45.4321C40.752 45.4321 40.824 45.4321 40.896 45.5041C40.752 45.5761 40.536 45.6481 40.392 45.7201C40.32 45.7201 40.248 45.7921 40.104 45.8641C39.96 45.9361 39.816 46.0081 39.672 46.0801C39.528 46.1521 39.456 46.1521 39.312 46.2241C39.096 46.2961 38.88 46.3681 38.664 46.4401H38.592C38.448 46.5121 38.376 46.5121 38.232 46.5841C38.016 46.6561 37.872 46.7281 37.656 46.7281C37.44 46.8001 37.224 46.8721 37.08 46.8721C37.008 46.8721 36.936 46.8721 36.936 46.9441C36.504 47.0881 36.072 47.1601 35.568 47.2321C35.208 47.3041 34.92 47.3761 34.56 47.3761C34.344 47.3761 34.2 47.4481 33.984 47.4481C33.624 47.5201 33.264 47.5201 32.904 47.5921C32.76 47.5921 32.616 47.5921 32.472 47.5921C32.112 47.5921 31.68 47.6641 31.32 47.6641C30.744 47.6641 30.24 47.6641 29.736 47.5921C29.232 47.5921 28.728 47.5201 28.224 47.4481C28.152 47.4481 28.08 47.4481 28.008 47.3761C26.064 47.0881 24.336 46.4401 22.824 45.5761C21.24 44.6401 19.944 43.4881 18.936 42.1201C19.368 42.1921 19.8 42.2641 20.232 42.3361C20.376 42.3361 20.52 42.3361 20.664 42.4081C20.952 42.4801 21.312 42.4801 21.6 42.5521C21.744 42.5521 21.96 42.5521 22.104 42.6241C22.392 42.6241 22.68 42.6961 22.968 42.6961C23.184 42.6961 23.328 42.6961 23.544 42.7681C23.832 42.7681 24.12 42.8401 24.408 42.8401C24.624 42.8401 24.768 42.8401 24.984 42.8401C25.272 42.8401 25.56 42.8401 25.848 42.9121C26.064 42.9121 26.28 42.9121 26.496 42.9121C26.784 42.9121 27.072 42.9121 27.36 42.9121C27.576 42.9121 27.792 42.9121 28.008 42.9121C28.296 42.6241 28.512 42.6241 28.728 42.6241ZM48.744 40.0321L48.672 40.1041C48.312 40.4641 47.88 40.8241 47.448 41.1841C47.376 41.2561 47.304 41.3281 47.232 41.4001C46.872 41.6881 46.512 41.9761 46.08 42.2641C46.008 42.3361 45.936 42.4081 45.792 42.4801C45.36 42.7681 44.928 43.1281 44.424 43.4161C44.352 43.4881 44.208 43.5601 44.136 43.6321C43.704 43.9201 43.272 44.1361 42.84 44.3521C42.768 44.3521 42.768 44.4241 42.696 44.4241H42.624C42.552 44.4241 42.552 44.4241 42.48 44.4241C41.904 44.3521 41.328 44.2801 40.752 44.1361C40.608 44.1361 40.464 44.0641 40.32 44.0641C39.672 43.9201 39.024 43.8481 38.376 43.7041C38.304 43.7041 38.16 43.6321 38.088 43.6321C37.512 43.4881 36.936 43.3441 36.288 43.2001C36.144 43.1281 36 43.1281 35.856 43.0561C35.208 42.8401 34.56 42.6961 33.84 42.4801H33.768C34.416 42.4081 35.136 42.4081 35.784 42.3361C35.928 42.3361 36.144 42.3361 36.288 42.2641C36.864 42.1921 37.512 42.1201 38.088 42.0481C38.304 42.0481 38.52 41.9761 38.736 41.9761C39.528 41.9041 40.248 41.7601 41.04 41.6881C41.832 41.5441 42.552 41.4001 43.344 41.3281C43.56 41.2561 43.848 41.2561 44.064 41.1841C44.568 41.1121 45.144 40.9681 45.648 40.8961C45.936 40.8241 46.152 40.7521 46.44 40.7521C46.944 40.6081 47.52 40.5361 48.024 40.3921C48.24 40.3201 48.456 40.3201 48.672 40.2481C48.6 40.1041 48.672 40.1041 48.744 40.0321ZM57.528 42.6961C56.88 43.0561 56.16 43.4161 55.368 43.6321C52.488 44.6401 48.816 45.0001 44.568 44.6401C44.568 44.6401 44.64 44.6401 44.64 44.5681L44.712 44.4961C45.216 44.2081 45.72 43.8481 46.224 43.4881C46.728 43.1281 47.232 42.7681 47.664 42.4081C47.736 42.3361 47.88 42.2641 47.952 42.1921C48.384 41.8321 48.816 41.4001 49.248 41.0401C49.32 40.9681 49.392 40.8961 49.464 40.8241C49.896 40.4641 50.256 40.0321 50.616 39.6001L50.688 39.5281C51.048 39.3841 51.48 39.3121 51.84 39.1681C51.912 39.1681 52.056 39.0961 52.128 39.0961C52.632 38.9521 53.064 38.8081 53.568 38.5921C53.712 38.5201 53.856 38.4481 54 38.4481C54.288 38.3041 54.648 38.2321 54.936 38.0881C55.08 38.0161 55.296 37.9441 55.44 37.8721C55.728 37.7281 56.016 37.6561 56.232 37.5121C56.376 37.4401 56.592 37.3681 56.736 37.2961C56.952 37.1521 57.24 37.0801 57.456 36.9361C57.6 36.8641 57.816 36.7921 57.96 36.7201C58.176 36.5761 58.392 36.5041 58.608 36.3601C58.752 36.2881 58.968 36.2161 59.112 36.0721C59.328 35.9281 59.544 35.8561 59.76 35.7121C59.904 35.6401 60.048 35.5681 60.192 35.4961C60.192 35.4961 60.192 35.4961 60.264 35.4961C60.336 35.4241 60.408 35.4241 60.552 35.3521C60.624 35.7121 60.696 36.0721 60.768 36.3601V36.4321C60.768 36.6481 60.84 36.9361 60.84 37.1521C60.84 37.5841 60.84 38.0161 60.768 38.3761V38.4481C60.696 39.0241 60.48 39.5281 60.192 40.0321C59.76 41.0401 58.824 41.9761 57.528 42.6961ZM60.264 34.2721C60.12 34.3441 59.976 34.4161 59.832 34.5601C59.76 34.6321 59.616 34.7041 59.544 34.7761C59.184 34.9921 58.896 35.1361 58.536 35.3521C58.176 35.5681 57.816 35.7121 57.456 35.8561C57.312 35.9281 57.24 36.0001 57.096 36.0001C56.808 36.1441 56.592 36.2161 56.304 36.3601C56.16 36.4321 56.016 36.5041 55.872 36.5761C55.584 36.7201 55.296 36.7921 55.008 36.9361C54.864 37.0081 54.72 37.0801 54.576 37.0801C54.216 37.2241 53.856 37.3681 53.424 37.5121C53.352 37.5121 53.352 37.5841 53.28 37.5841C52.92 37.7281 52.488 37.8721 52.056 38.0161C52.344 37.6561 52.632 37.2241 52.92 36.7921C52.992 36.6481 53.064 36.5761 53.136 36.4321C53.352 36.0721 53.568 35.7841 53.712 35.4241C53.784 35.2801 53.856 35.2081 53.928 35.0641C54.144 34.6321 54.432 34.2001 54.576 33.6961C54.792 33.2641 55.008 32.7601 55.152 32.3281C55.224 32.1841 55.224 32.0401 55.296 31.8961C55.44 31.6081 55.512 31.2481 55.584 30.9601C55.656 30.8161 55.656 30.6001 55.728 30.4561C55.8 30.1681 55.872 29.8081 55.944 29.5201C55.944 29.3761 56.016 29.2321 56.016 29.0161C56.016 28.9441 56.016 28.8721 56.088 28.8001L56.16 28.8721C56.232 28.9441 56.304 29.0161 56.376 29.0881C56.592 29.3041 56.736 29.4481 56.952 29.6641C57.024 29.7361 57.096 29.8801 57.24 29.9521C57.384 30.0961 57.528 30.3121 57.672 30.4561C57.744 30.5281 57.816 30.6721 57.888 30.7441C58.032 30.8881 58.176 31.1041 58.32 31.2481C58.392 31.3201 58.464 31.4641 58.536 31.5361C58.68 31.7521 58.896 31.9681 59.04 32.1841C59.04 32.2561 59.112 32.2561 59.112 32.3281C59.256 32.6161 59.4 32.8321 59.616 33.1201C59.688 33.1921 59.688 33.2641 59.76 33.4081C59.832 33.5521 59.976 33.7681 60.048 33.9121C60.12 33.9841 60.12 34.1281 60.192 34.2001C60.192 34.0561 60.264 34.1281 60.264 34.2721C60.264 34.2721 60.264 34.2001 60.264 34.2721ZM16.776 34.8481C16.848 34.9201 16.992 34.9921 17.136 35.1361C17.352 35.2801 17.496 35.4241 17.712 35.5681C18 35.7841 18.36 36.0721 18.648 36.2881C18.864 36.4321 19.008 36.5761 19.224 36.7201C19.584 36.9361 19.944 37.2241 20.304 37.4401C20.448 37.5841 20.664 37.6561 20.808 37.8001C21.384 38.1601 21.96 38.5201 22.536 38.8081C23.328 39.2401 24.12 39.6721 24.912 40.1041C25.128 40.2481 25.416 40.3201 25.632 40.4641C26.28 40.7521 26.928 41.1121 27.576 41.4001C27.72 41.4721 27.864 41.5441 28.008 41.6161C27.936 41.6161 27.864 41.6161 27.792 41.6161C27 41.6161 26.28 41.6161 25.488 41.5441C25.344 41.5441 25.272 41.5441 25.128 41.5441C24.48 41.5441 23.832 41.4721 23.184 41.4001C23.04 41.4001 22.896 41.4001 22.752 41.3281C22.032 41.2561 21.312 41.1841 20.664 41.1121C20.52 41.1121 20.376 41.0401 20.232 41.0401C19.656 40.9681 19.08 40.8961 18.504 40.7521C18.432 40.7521 18.36 40.7521 18.216 40.6801C18.144 40.5361 18.072 40.3921 18 40.2481C18 40.1761 17.928 40.1041 17.928 40.0321C17.784 39.8161 17.712 39.5281 17.64 39.2401C17.64 39.1681 17.568 39.0961 17.568 39.0241C17.496 38.8081 17.424 38.5921 17.352 38.3761C17.352 38.3041 17.28 38.1601 17.28 38.0881C17.208 37.8721 17.208 37.7281 17.136 37.5121C17.136 37.4401 17.064 37.2961 17.064 37.2241C16.992 37.0081 16.992 36.8641 16.992 36.6481C16.992 36.5761 16.992 36.5041 16.92 36.3601C16.92 36.0721 16.848 35.8561 16.848 35.5681V35.4961C16.776 35.3521 16.776 35.0641 16.776 34.8481ZM55.296 26.3521C55.152 26.2801 55.08 26.2081 54.936 26.0641C54.792 25.9201 54.576 25.7761 54.432 25.6321C54.144 25.4161 53.784 25.1281 53.496 24.9121C53.28 24.7681 53.136 24.6241 52.92 24.4801C52.56 24.2641 52.2 23.9761 51.84 23.7601C51.696 23.6161 51.48 23.5441 51.336 23.4001C50.76 23.0401 50.184 22.6801 49.608 22.3921C48.816 21.9601 48.024 21.5281 47.232 21.0961C47.016 20.9521 46.728 20.8801 46.512 20.7361C45.864 20.4481 45.216 20.0881 44.568 19.8001C44.424 19.7281 44.28 19.6561 44.136 19.5841C44.208 19.5841 44.28 19.5841 44.352 19.5841C45.144 19.5841 45.936 19.5841 46.656 19.6561C46.728 19.6561 46.8 19.6561 46.944 19.6561C47.664 19.6561 48.312 19.7281 49.032 19.8001C49.176 19.8001 49.32 19.8001 49.392 19.8001C50.112 19.8721 50.832 19.9441 51.552 20.0161C51.696 20.0161 51.84 20.0881 51.912 20.0881C52.488 20.1601 53.136 20.2321 53.712 20.3761C53.784 20.3761 53.856 20.3761 53.928 20.3761C54 20.5201 54.072 20.6641 54.144 20.8081C54.144 20.8801 54.216 20.9521 54.216 21.0241C54.36 21.2401 54.432 21.5281 54.504 21.8161C54.504 21.8881 54.576 21.9601 54.576 22.0321C54.648 22.2481 54.72 22.4641 54.792 22.6081C54.792 22.6801 54.864 22.8241 54.864 22.8961C54.936 23.1121 54.936 23.2561 55.008 23.4721C55.008 23.5441 55.08 23.6881 55.08 23.7601C55.152 23.9761 55.152 24.1201 55.152 24.3361C55.152 24.4081 55.152 24.4801 55.224 24.6241C55.224 24.9121 55.296 25.2001 55.296 25.4881C55.296 25.8481 55.296 26.0641 55.296 26.3521ZM10.8 27.5761C10.8 27.6481 10.872 27.6481 10.872 27.7201C10.944 27.7921 10.944 27.9361 11.016 28.0801C11.088 28.2241 11.16 28.4401 11.304 28.5841C11.376 28.7281 11.448 28.8001 11.52 28.9441C11.592 29.0881 11.736 29.3041 11.808 29.4481C11.88 29.5921 11.952 29.6641 12.024 29.8081C12.168 29.9521 12.24 30.1681 12.384 30.3121C12.456 30.4561 12.528 30.5281 12.6 30.6721C12.744 30.8881 12.888 31.0321 13.032 31.2481C13.104 31.3201 13.176 31.4641 13.248 31.5361C13.464 31.7521 13.68 31.9681 13.896 32.2561C13.968 32.3281 13.968 32.3281 14.04 32.4001C14.328 32.6881 14.544 32.9761 14.832 33.2641C14.904 33.3361 15.048 33.4081 15.12 33.5521C15.264 33.6961 15.48 33.8401 15.624 34.0561C15.624 34.2721 15.624 34.4161 15.624 34.6321C15.624 34.7041 15.624 34.7761 15.624 34.9201C15.624 35.2081 15.624 35.5681 15.624 35.8561C15.624 35.9281 15.624 36.0721 15.624 36.1441C15.624 36.3601 15.696 36.5761 15.696 36.7921C15.696 36.9361 15.696 37.0081 15.768 37.1521C15.768 37.3681 15.84 37.5841 15.84 37.7281C15.84 37.8721 15.912 37.9441 15.912 38.0881C15.984 38.3041 15.984 38.5201 16.056 38.7361C16.056 38.8081 16.128 38.9521 16.128 39.0241C16.2 39.3121 16.272 39.6001 16.416 39.8881C16.488 40.1761 16.632 40.3921 16.704 40.6081C16.632 40.6081 16.632 40.6081 16.56 40.6081C16.488 40.6081 16.488 40.6081 16.416 40.6081C16.128 40.5361 15.84 40.4641 15.552 40.3921C15.336 40.3201 15.12 40.2481 14.832 40.1761C14.76 40.1761 14.688 40.1041 14.616 40.1041C12.744 39.6001 11.088 38.9521 9.79202 38.1601C8.28002 37.2961 7.20002 36.2881 6.69602 35.1361C5.47202 31.9681 8.49602 29.1601 10.8 27.5761Z" fill="black"/>
<path d="M32.112 31.824C32.976 32.328 34.056 32.616 35.208 32.76C35.928 32.832 36.648 32.832 37.368 32.76C38.52 32.616 39.6 32.328 40.464 31.824C41.328 31.32 41.904 30.672 42.048 30.024C42.192 29.592 42.192 29.232 42.048 28.8C41.832 28.152 41.328 27.504 40.392 27C39.528 26.496 38.448 26.208 37.296 26.064C36.576 25.992 35.856 25.992 35.136 26.064C33.984 26.208 32.904 26.496 32.04 27C31.176 27.504 30.6 28.152 30.456 28.8C30.312 29.232 30.312 29.592 30.456 30.024C30.672 30.744 31.176 31.32 32.112 31.824Z" fill="black"/>
</svg>
