<svg width="72" height="72" viewBox="0 0 72 72" fill="none" xmlns="http://www.w3.org/2000/svg">
<path d="M55.584 37.656C55.296 37.512 54.936 37.584 54.792 37.872L43.056 57.672C42.912 57.96 42.984 58.32 43.272 58.464C43.344 58.536 43.488 58.536 43.56 58.536C43.776 58.536 43.992 58.392 44.064 58.248L55.728 38.448C55.944 38.16 55.872 37.8 55.584 37.656Z" fill="black"/>
<path d="M51.408 53.928C51.12 53.784 50.76 53.856 50.616 54.144L45.72 62.496C45.576 62.784 45.648 63.144 45.936 63.288C46.008 63.36 46.08 63.36 46.224 63.36C46.44 63.36 46.656 63.216 46.728 63.072L51.624 54.72C51.768 54.432 51.696 54.072 51.408 53.928Z" fill="black"/>
<path d="M55.584 26.4239C55.872 26.2799 55.944 25.9199 55.8 25.6319C55.728 25.5599 55.656 25.4879 55.584 25.4159L48.384 21.2399L51.48 10.5119C51.624 10.4399 51.696 10.2959 51.696 10.0799C51.696 9.86386 51.552 9.64786 51.408 9.57586L40.752 3.45586C40.536 3.38386 40.32 3.38386 40.176 3.45586L24.768 12.3119C24.768 12.3119 24.768 12.3119 24.696 12.3839C24.624 12.4559 24.624 12.4559 24.552 12.5279C24.552 12.5279 24.552 12.5999 24.48 12.5999C24.48 12.5999 24.48 12.6719 24.408 12.6719L16.2 44.9999C16.128 45.2879 16.272 45.5039 16.488 45.6479L23.184 49.5359L19.224 61.6319C19.152 61.9199 19.224 62.2079 19.512 62.3519L30.168 68.5439C30.24 68.6159 30.384 68.6159 30.456 68.6159C30.528 68.6159 30.6 68.6159 30.672 68.5439C30.816 68.4719 30.888 68.3999 30.96 68.2559L55.584 26.4959C55.512 26.5679 55.584 26.4959 55.584 26.4239ZM40.464 4.67986L49.968 10.2239L35.784 18.3599L26.28 12.8159L40.464 4.67986ZM17.496 44.4239L25.416 13.7519L25.776 13.9679L35.064 19.3679L30.528 37.0799L27.072 50.3279L27 50.4719L23.76 48.5279L17.424 44.8559L17.496 44.4239ZM32.616 62.9999L39.456 42.3359C39.456 42.2639 39.456 42.1919 39.456 42.1199C39.456 41.9039 39.384 41.7599 39.24 41.6159C39.024 41.4719 38.736 41.4719 38.52 41.6159L28.44 49.7519L31.608 37.5839L34.416 26.6399L34.632 26.0639L34.776 25.3439L34.992 24.5519L36.288 19.5119L50.04 11.5919L47.376 20.5919L47.232 21.1679L47.088 21.7439L44.352 31.0319L44.136 31.6799L43.992 32.0399C43.992 32.1119 43.992 32.1839 43.992 32.2559C43.992 32.3999 44.064 32.5439 44.208 32.6879C44.424 32.8319 44.64 32.8319 44.856 32.7599L53.424 27.8639L32.616 62.9999Z" fill="black"/>
</svg>
